<?xml version="1.0" standalone="no"?>
<!DOCTYPE svg PUBLIC "-//W3C//DTD SVG 20010904//EN"
 "http://www.w3.org/TR/2001/REC-SVG-20010904/DTD/svg10.dtd">
<svg version="1.0" xmlns="http://www.w3.org/2000/svg"
 width="512.000000pt" height="512.000000pt" viewBox="0 0 512.000000 512.000000"
 preserveAspectRatio="xMidYMid meet">

<g transform="translate(0.000000,512.000000) scale(0.100000,-0.100000)"
fill="#fff" stroke="none">
<path d="M2455 5106 c-124 -31 -209 -88 -420 -281 -287 -262 -319 -275 -708
-295 -351 -18 -457 -49 -573 -164 -116 -117 -145 -218 -164 -581 -20 -385 -32
-411 -324 -731 -175 -191 -235 -290 -258 -422 -23 -137 23 -284 135 -424 29
-36 109 -127 177 -202 234 -256 250 -295 270 -676 19 -355 49 -460 164 -576
117 -116 219 -145 581 -164 380 -19 413 -33 705 -300 163 -149 214 -188 305
-234 182 -92 364 -66 554 77 38 29 132 110 210 182 261 240 299 255 681 275
355 19 460 49 576 164 116 117 145 219 164 581 20 384 32 411 324 731 175 191
235 290 258 422 23 137 -23 284 -135 424 -29 36 -109 127 -177 202 -234 256
-250 295 -270 676 -19 355 -49 460 -164 576 -117 116 -219 145 -581 164 -382
19 -416 34 -722 316 -61 56 -138 123 -173 148 -148 109 -295 147 -435 112z
m234 -157 c70 -29 179 -112 304 -228 137 -126 193 -173 257 -213 129 -80 224
-101 535 -118 242 -13 337 -29 418 -73 132 -70 169 -175 187 -537 21 -409 49
-478 318 -773 150 -164 195 -223 236 -307 41 -86 43 -186 6 -269 -31 -71 -114
-181 -229 -304 -284 -306 -309 -369 -331 -795 -19 -354 -56 -460 -187 -529
-82 -44 -177 -60 -423 -73 -409 -21 -478 -49 -773 -318 -164 -150 -223 -195
-307 -236 -55 -26 -76 -31 -140 -31 -63 0 -85 5 -140 31 -76 36 -173 111 -320
248 -270 251 -356 286 -760 306 -246 13 -341 29 -423 73 -132 70 -169 175
-187 537 -21 410 -50 481 -320 775 -146 160 -193 221 -234 305 -26 55 -31 76
-31 140 0 127 48 208 267 447 273 300 296 355 318 783 13 237 29 332 73 413
69 131 175 168 529 187 426 22 494 50 798 334 103 96 214 183 270 212 98 50
194 54 289 13z"/>
<path d="M2495 4782 c-59 -28 -104 -65 -260 -206 -175 -160 -249 -215 -350
-265 -134 -67 -230 -84 -540 -101 -282 -15 -347 -30 -384 -91 -28 -46 -40
-124 -51 -344 -25 -467 -62 -557 -382 -909 -267 -294 -268 -318 -9 -603 162
-178 213 -240 261 -322 76 -129 105 -239 120 -461 30 -434 33 -455 79 -501 45
-45 78 -50 501 -79 187 -12 298 -37 405 -90 103 -51 174 -106 364 -278 182
-165 245 -207 311 -207 65 0 130 43 297 194 232 211 306 265 433 315 98 38
186 55 348 66 436 31 457 34 503 79 45 45 50 76 79 501 15 221 44 331 120 461
48 82 99 144 261 322 257 283 257 311 0 594 -162 178 -213 240 -261 322 -76
130 -105 240 -120 461 -29 425 -34 456 -79 501 -46 45 -67 48 -503 79 -162 11
-250 28 -348 66 -127 50 -201 104 -433 315 -206 187 -275 222 -362 181z m122
-158 c26 -21 90 -76 141 -123 210 -194 311 -269 436 -327 142 -65 272 -89 576
-103 108 -6 202 -12 210 -15 8 -2 27 -7 41 -10 26 -6 27 -10 37 -103 6 -54 14
-161 17 -238 13 -308 59 -475 183 -656 53 -79 99 -133 256 -305 54 -60 110
-125 124 -146 l25 -38 -25 -38 c-14 -21 -70 -86 -124 -146 -157 -172 -203
-226 -256 -305 -123 -180 -170 -347 -183 -651 -6 -133 -23 -332 -30 -338 -12
-12 -105 -23 -275 -32 -307 -16 -435 -39 -576 -104 -127 -59 -215 -125 -450
-340 -60 -54 -125 -110 -146 -124 l-38 -25 -38 25 c-21 14 -98 81 -172 148
-194 177 -282 244 -395 300 -158 80 -274 103 -600 120 -214 11 -260 17 -275
35 -11 13 -22 120 -40 400 -25 385 -87 511 -434 891 -54 60 -110 125 -124 146
l-25 38 25 38 c14 21 70 86 124 146 214 234 278 319 340 449 64 136 88 271
104 572 11 209 17 260 34 273 19 16 76 22 271 32 316 17 438 40 590 114 114
56 203 122 374 279 137 125 225 197 241 197 5 0 30 -16 57 -36z"/>
<path d="M2730 3095 l-435 -435 -165 164 c-103 103 -175 167 -192 171 -26 7
-46 -11 -265 -226 -131 -128 -246 -245 -257 -261 -15 -24 -16 -33 -7 -56 7
-16 200 -216 430 -445 387 -387 419 -417 451 -417 32 0 80 45 729 694 627 627
694 697 694 726 0 28 -28 60 -244 276 -211 211 -248 244 -274 244 -26 0 -84
-54 -465 -435z m640 90 l175 -175 -628 -628 -627 -627 -355 355 c-195 195
-355 359 -355 365 0 5 78 87 172 182 l173 173 170 -170 c127 -126 178 -170
195 -170 19 0 127 102 460 435 239 239 437 435 440 435 3 0 84 -79 180 -175z"/>
</g>
</svg>
