<?xml version="1.0" standalone="no"?>
<!DOCTYPE svg PUBLIC "-//W3C//DTD SVG 20010904//EN"
 "http://www.w3.org/TR/2001/REC-SVG-20010904/DTD/svg10.dtd">
<svg version="1.0" xmlns="http://www.w3.org/2000/svg"
 width="512.000000pt" height="512.000000pt" viewBox="0 0 512.000000 512.000000"
 preserveAspectRatio="xMidYMid meet">

<g transform="translate(0.000000,512.000000) scale(0.100000,-0.100000)"
fill="#fff" stroke="none">
<path d="M2345 5015 c-22 -21 -25 -33 -25 -95 0 -58 -3 -72 -17 -77 -330 -111
-557 -370 -612 -699 -11 -65 -15 -71 -48 -89 -137 -74 -164 -271 -52 -383 75
-76 30 -73 991 -70 l855 3 49 30 c88 55 135 175 105 268 -19 57 -68 116 -116
139 -36 18 -45 27 -45 47 0 82 -82 321 -121 357 -26 23 -82 23 -108 0 -34 -31
-35 -62 -1 -134 28 -60 70 -197 70 -229 0 -11 -131 -13 -710 -13 -673 0 -710
1 -710 18 0 38 43 170 76 233 70 134 180 243 314 313 37 20 71 36 74 36 3 0 6
-86 6 -190 0 -189 0 -191 25 -215 15 -16 36 -25 55 -25 19 0 40 9 55 25 l25
24 0 296 0 295 80 0 80 0 0 -295 0 -296 25 -24 c15 -16 36 -25 55 -25 19 0 40
9 55 25 25 24 25 25 25 219 l0 196 52 -21 c29 -11 75 -36 101 -55 26 -19 61
-37 77 -41 60 -11 104 49 79 108 -14 36 -115 101 -224 145 l-80 33 -5 76 c-8
115 -7 115 -242 115 -187 0 -189 0 -213 -25z m1070 -1120 c16 -15 25 -36 25
-55 0 -19 -9 -40 -25 -55 l-24 -25 -831 0 -831 0 -24 25 c-16 15 -25 36 -25
55 0 19 9 40 25 55 l24 25 831 0 831 0 24 -25z"/>
<path d="M1888 3483 c-27 -31 -29 -57 -9 -135 37 -145 124 -281 243 -383 l58
-50 -2 -145 -3 -145 -165 -27 c-276 -44 -331 -57 -417 -98 -98 -46 -133 -77
-133 -120 0 -75 72 -90 172 -36 85 46 100 50 365 96 l231 40 50 -19 c167 -66
397 -66 564 0 l49 19 236 -41 c309 -53 379 -80 475 -185 81 -89 87 -94 112
-94 38 0 56 10 72 42 26 50 10 83 -80 173 -137 136 -222 170 -532 217 l-214
32 0 143 0 142 98 98 c82 82 105 112 139 183 94 192 95 310 4 310 -54 0 -68
-16 -91 -103 -27 -108 -73 -190 -150 -267 -224 -225 -557 -225 -781 -1 -83 84
-127 160 -155 271 -20 81 -36 100 -84 100 -23 0 -43 -7 -52 -17z m540 -669
c41 -8 100 -14 132 -14 56 0 185 21 223 35 16 7 17 -1 15 -111 l-3 -119 -55
-19 c-43 -15 -83 -19 -180 -19 -97 0 -137 4 -180 19 l-55 19 -3 119 c-2 110
-1 118 15 111 10 -3 51 -13 91 -21z"/>
<path d="M1060 2288 c-19 -31 -20 -52 -20 -336 l0 -303 25 -24 c32 -33 78 -33
110 0 l25 24 0 239 0 239 400 -131 400 -131 0 -348 0 -348 25 -24 c15 -16 36
-25 55 -25 19 0 40 9 55 25 l25 24 0 348 1 348 399 132 400 131 0 -796 0 -797
-400 -131 -400 -131 0 119 c0 113 -1 120 -25 143 -29 30 -74 32 -106 6 -22
-18 -24 -28 -29 -143 l-5 -124 -397 131 -398 130 0 101 c0 87 -3 105 -21 128
-29 37 -89 37 -118 0 -19 -24 -21 -40 -21 -169 0 -134 1 -143 23 -162 25 -23
976 -343 1020 -343 15 0 237 68 492 151 l466 150 467 -155 c257 -86 482 -156
500 -156 19 0 40 8 52 20 19 19 20 33 20 335 l0 316 -25 24 c-29 30 -74 32
-106 6 -24 -19 -24 -22 -29 -263 l-5 -244 -397 131 -398 130 0 796 0 796 400
-131 400 -131 0 -108 c0 -101 2 -109 25 -132 32 -33 78 -33 110 0 24 23 25 29
25 168 0 129 -2 147 -20 170 -16 21 -104 53 -504 186 -266 89 -498 161 -515
161 -17 0 -240 -68 -496 -151 l-465 -151 -467 156 c-258 86 -483 156 -501 156
-26 0 -36 -7 -52 -32z"/>
<path d="M1039 1507 c-57 -21 -97 -54 -126 -105 -27 -46 -28 -51 -28 -203 l0
-156 30 -49 c19 -30 49 -60 79 -79 44 -27 58 -30 126 -30 68 0 82 3 126 30 30
19 60 49 79 79 l30 49 0 157 0 157 -30 49 c-42 68 -105 105 -187 110 -38 3
-77 -1 -99 -9z m136 -172 c24 -23 25 -31 25 -135 0 -104 -1 -112 -25 -135 -15
-16 -36 -25 -55 -25 -19 0 -40 9 -55 25 -24 23 -25 31 -25 135 0 104 1 112 25
135 15 16 36 25 55 25 19 0 40 -9 55 -25z"/>
<path d="M3919 1507 c-57 -21 -97 -54 -126 -105 -27 -46 -28 -51 -28 -203 l0
-156 30 -49 c19 -30 49 -60 79 -79 44 -27 58 -30 126 -30 68 0 82 3 126 30 30
19 60 49 79 79 l30 49 0 157 0 157 -30 49 c-42 68 -105 105 -187 110 -38 3
-77 -1 -99 -9z m136 -172 c24 -23 25 -31 25 -135 0 -104 -1 -112 -25 -135 -15
-16 -36 -25 -55 -25 -19 0 -40 9 -55 25 -24 23 -25 31 -25 135 0 104 1 112 25
135 15 16 36 25 55 25 19 0 40 -9 55 -25z"/>
<path d="M2021 964 c-19 -24 -21 -40 -21 -151 0 -118 1 -125 25 -148 32 -33
78 -33 110 0 24 23 25 30 25 148 0 111 -2 127 -21 151 -16 20 -29 26 -59 26
-30 0 -43 -6 -59 -26z"/>
</g>
</svg>
