<?xml version="1.0" standalone="no"?>
<!DOCTYPE svg PUBLIC "-//W3C//DTD SVG 20010904//EN"
 "http://www.w3.org/TR/2001/REC-SVG-20010904/DTD/svg10.dtd">
<svg version="1.0" xmlns="http://www.w3.org/2000/svg"
 width="512.000000pt" height="512.000000pt" viewBox="0 0 512.000000 512.000000"
 preserveAspectRatio="xMidYMid meet">

<g transform="translate(0.000000,512.000000) scale(0.100000,-0.100000)"
fill="#fff" stroke="none">
<path d="M2410 4315 l0 -174 -32 -5 c-18 -3 -69 -10 -114 -16 -382 -51 -718
-269 -840 -547 -102 -229 -88 -579 30 -775 99 -165 252 -286 465 -369 93 -36
327 -108 449 -139 l42 -11 0 -344 c0 -269 -3 -345 -12 -345 -7 0 -36 13 -64
30 -86 49 -144 135 -166 246 l-11 54 -400 0 -400 0 7 -71 c17 -166 88 -346
183 -464 163 -201 443 -340 776 -386 l87 -12 0 -179 0 -178 145 0 145 0 2 178
3 177 82 7 c498 41 872 330 964 743 21 94 16 312 -10 410 -42 159 -126 283
-268 396 -124 98 -240 148 -608 258 l-160 49 -3 342 -2 341 52 -28 c84 -46
139 -130 163 -250 l7 -33 399 0 399 0 0 28 c0 106 -60 304 -127 417 -78 134
-223 265 -382 345 -77 38 -243 88 -356 105 -61 10 -120 19 -132 21 -23 4 -23
6 -23 179 l0 175 -145 0 -145 0 0 -175z m0 -1071 l0 -306 -47 27 c-145 83
-201 156 -210 269 -8 96 17 170 77 227 42 41 129 87 168 88 9 1 12 -67 12
-305z m381 -1096 c123 -64 178 -136 186 -242 13 -160 -92 -296 -254 -331 l-33
-7 0 312 0 311 23 -6 c12 -4 47 -20 78 -37z"/>
</g>
</svg>
