<?xml version="1.0" standalone="no"?>
<!DOCTYPE svg PUBLIC "-//W3C//DTD SVG 20010904//EN"
 "http://www.w3.org/TR/2001/REC-SVG-20010904/DTD/svg10.dtd">
<svg version="1.0" xmlns="http://www.w3.org/2000/svg"
 width="512.000000pt" height="512.000000pt" viewBox="0 0 512.000000 512.000000"
 preserveAspectRatio="xMidYMid meet">

<g transform="translate(0.000000,512.000000) scale(0.100000,-0.100000)"
fill="#fff" stroke="none">
<path d="M2016 5099 l-26 -20 0 -334 0 -333 -52 -18 c-29 -9 -104 -39 -166
-67 l-113 -50 -233 232 c-223 222 -234 231 -272 231 -37 0 -49 -10 -406 -368
-358 -357 -368 -369 -368 -406 0 -38 9 -49 231 -272 l232 -233 -50 -113 c-28
-62 -58 -137 -67 -165 l-18 -53 -333 0 -334 0 -20 -26 c-21 -26 -21 -36 -21
-546 l0 -519 25 -24 24 -25 330 0 329 0 18 -52 c9 -29 39 -104 67 -166 l50
-113 -232 -233 c-222 -223 -231 -234 -231 -272 0 -37 10 -49 368 -406 357
-358 369 -368 406 -368 38 0 49 9 272 231 l233 232 113 -50 c62 -28 137 -58
166 -67 l52 -18 0 -333 0 -334 26 -20 c26 -21 36 -21 546 -21 l519 0 24 25 25
24 0 330 0 329 53 18 c28 9 103 39 165 67 l113 50 233 -232 c223 -222 234
-231 272 -231 37 0 49 10 406 368 358 357 368 369 368 406 0 38 -9 49 -231
272 l-232 233 50 113 c28 62 58 137 67 166 l18 52 329 0 330 0 24 25 25 24 0
519 c0 510 0 520 -21 546 l-20 26 -334 0 -333 0 -18 53 c-9 28 -39 103 -67
165 l-50 113 232 233 c222 223 231 234 231 272 0 37 -10 49 -368 406 -357 358
-369 368 -406 368 -38 0 -49 -9 -272 -231 l-233 -232 -113 50 c-62 28 -137 58
-165 67 l-53 18 0 329 0 330 -25 24 -24 25 -519 0 c-510 0 -520 0 -546 -21z
m956 -458 c3 -295 4 -320 22 -340 10 -11 68 -37 128 -57 60 -20 159 -60 219
-90 64 -31 124 -54 142 -54 29 0 58 25 257 225 l225 225 292 -292 293 -293
-226 -226 c-189 -189 -225 -230 -226 -255 0 -16 24 -78 55 -141 30 -61 71
-161 91 -221 20 -60 46 -118 57 -128 20 -18 45 -19 340 -22 l319 -3 0 -409 0
-409 -319 -3 c-295 -3 -320 -4 -340 -22 -11 -10 -37 -68 -57 -128 -20 -60 -61
-160 -91 -221 -31 -63 -55 -125 -55 -141 1 -25 37 -66 226 -255 l226 -226
-293 -293 -292 -292 -224 224 c-135 135 -234 226 -248 229 -16 3 -66 -16 -145
-54 -66 -32 -169 -74 -228 -94 -59 -20 -116 -45 -126 -56 -18 -20 -19 -45 -22
-340 l-3 -319 -409 0 -409 0 -3 319 c-3 295 -4 320 -22 340 -10 11 -62 34
-115 52 -53 17 -152 58 -221 91 -69 33 -138 60 -154 60 -25 -1 -65 -37 -255
-226 l-226 -226 -293 293 -292 292 224 224 c135 135 226 234 229 248 3 16 -16
66 -54 145 -32 66 -74 169 -94 228 -20 59 -45 116 -56 126 -20 18 -45 19 -340
22 l-319 3 0 409 0 409 319 3 c295 3 320 4 340 22 11 10 37 68 57 128 20 60
60 159 90 219 31 64 54 124 54 142 0 29 -25 58 -225 257 l-225 225 292 292
293 293 225 -225 c199 -199 229 -225 257 -225 18 0 79 23 142 54 60 30 159 70
219 90 60 20 118 46 128 57 18 20 19 45 22 340 l3 319 409 0 409 0 3 -319z"/>
<path d="M2390 3950 c-599 -75 -1088 -535 -1207 -1137 -23 -121 -23 -385 0
-506 107 -541 508 -968 1033 -1101 470 -120 960 10 1312 348 514 493 574 1281
142 1854 -200 266 -519 463 -852 527 -102 19 -326 27 -428 15z m430 -179 c313
-70 589 -257 762 -515 151 -226 212 -427 212 -696 0 -270 -61 -470 -213 -697
-108 -161 -292 -323 -470 -413 -276 -139 -633 -165 -931 -68 -308 100 -583
336 -730 627 -39 79 -85 211 -106 311 -26 124 -25 372 4 495 81 356 290 641
597 818 138 80 308 137 465 157 97 13 312 3 410 -19z"/>
<path d="M2598 3089 c-10 -5 -22 -18 -27 -28 -6 -10 -47 -233 -91 -495 -77
-451 -80 -479 -65 -502 33 -51 100 -56 129 -11 23 35 179 972 166 996 -23 44
-75 62 -112 40z"/>
<path d="M1937 2781 c-131 -82 -247 -157 -258 -167 -27 -25 -26 -85 4 -111 12
-11 128 -86 258 -166 153 -96 245 -147 263 -147 60 0 100 86 58 128 -10 10
-95 66 -190 126 -95 59 -172 111 -172 116 0 5 77 57 172 116 95 60 180 116
190 126 42 42 2 128 -59 128 -19 0 -108 -51 -266 -149z"/>
<path d="M2865 2905 c-33 -32 -33 -79 -1 -108 13 -12 101 -69 195 -127 94 -58
170 -107 170 -110 0 -3 -76 -52 -170 -110 -202 -124 -219 -138 -219 -180 0
-39 39 -80 76 -80 18 0 110 51 263 147 130 80 246 155 259 166 28 26 30 86 3
111 -10 10 -126 84 -257 167 -160 99 -248 149 -267 149 -16 0 -38 -10 -52 -25z"/>
</g>
</svg>
