<?xml version="1.0" standalone="no"?>
<!DOCTYPE svg PUBLIC "-//W3C//DTD SVG 20010904//EN"
 "http://www.w3.org/TR/2001/REC-SVG-20010904/DTD/svg10.dtd">
<svg version="1.0" xmlns="http://www.w3.org/2000/svg"
 width="512.000000pt" height="512.000000pt" viewBox="0 0 512.000000 512.000000"
 preserveAspectRatio="xMidYMid meet">

<g transform="translate(0.000000,512.000000) scale(0.100000,-0.100000)"
fill="#fff" stroke="none">
<path d="M1422 5082 c-10 -10 -60 -119 -112 -242 l-95 -225 -3 -189 c-4 -205
6 -294 37 -360 29 -60 96 -123 163 -154 l58 -27 0 -637 0 -637 26 -20 c27 -21
30 -21 1064 -21 1034 0 1037 0 1064 21 l26 20 0 269 c0 148 -3 276 -6 285 -10
26 -59 46 -87 36 -53 -21 -57 -38 -57 -268 l0 -213 -105 0 -104 0 -3 441 -3
441 -24 19 c-22 18 -42 19 -285 19 -261 0 -263 0 -284 -23 -22 -23 -22 -25
-22 -460 l0 -437 -525 0 -525 0 2 587 3 586 42 14 c23 8 61 31 85 52 l43 38
41 -33 c68 -56 129 -78 214 -78 66 -1 85 4 141 31 36 18 75 43 88 57 l24 25
36 -31 c126 -111 316 -111 442 0 l36 31 24 -25 c13 -14 52 -39 88 -57 56 -27
75 -32 141 -31 86 0 146 22 215 79 l42 34 26 -27 c26 -27 70 -53 120 -71 l27
-11 0 -218 c0 -207 1 -221 21 -246 26 -33 79 -36 109 -6 19 19 20 33 20 243
l0 222 59 27 c68 32 131 92 160 152 34 69 42 145 39 354 l-3 197 -95 225 c-52
123 -102 232 -112 242 -17 17 -76 18 -1138 18 -1062 0 -1121 -1 -1138 -18z
m2238 -274 l58 -138 -1158 0 -1158 0 43 103 c24 56 50 119 58 140 l16 37 1042
-2 1042 -3 57 -137z m-1942 -476 l-3 -189 -29 -37 c-31 -41 -94 -75 -139 -76
-36 0 -95 25 -125 53 -50 46 -56 72 -60 245 -2 89 -1 169 2 177 4 13 35 15
181 15 l176 0 -3 -188z m512 16 c0 -200 -11 -239 -77 -282 -99 -64 -213 -30
-264 79 -16 34 -19 66 -19 201 0 88 3 164 7 167 3 4 84 7 180 7 l173 0 0 -172z
m510 0 c0 -200 -11 -239 -83 -286 -87 -58 -210 -24 -256 70 -19 40 -21 61 -21
216 l0 172 180 0 180 0 0 -172z m508 7 c3 -181 -6 -220 -61 -272 -63 -60 -145
-66 -220 -17 -66 43 -77 82 -77 282 l0 172 178 -2 177 -3 3 -160z m507 -5 c0
-91 -3 -177 -7 -192 -18 -63 -105 -128 -173 -128 -46 0 -109 34 -141 76 l-29
37 -3 189 -3 188 178 -2 178 -3 0 -165z m-615 -1245 l0 -385 -160 0 -160 0 0
385 0 385 160 0 160 0 0 -385z"/>
<path d="M1859 3621 l-24 -19 0 -267 0 -267 29 -24 28 -25 260 3 c259 3 260 3
279 27 18 22 19 42 19 285 0 261 0 263 -23 284 -23 21 -30 22 -284 22 -242 0
-262 -1 -284 -19z m441 -291 l0 -161 -157 3 -158 3 -3 158 -3 157 161 0 160 0
0 -160z"/>
<path d="M453 3400 c-12 -5 -26 -18 -32 -29 -7 -13 -11 -188 -11 -531 l0 -511
25 -24 c31 -32 69 -32 100 0 l25 24 0 465 0 466 341 2 342 3 19 26 c15 20 18
35 13 58 -13 60 -23 61 -432 60 -202 0 -378 -4 -390 -9z"/>
<path d="M3878 3395 c-37 -21 -46 -69 -20 -104 l19 -26 342 -3 341 -2 0 -466
0 -465 25 -24 c31 -32 69 -32 100 0 l25 24 0 514 c0 492 -1 516 -19 538 l-19
24 -384 2 c-321 2 -387 0 -410 -12z"/>
<path d="M177 2078 c-10 -7 -53 -100 -97 -205 l-80 -193 0 -178 c0 -224 10
-263 84 -337 28 -29 68 -58 89 -64 l37 -13 0 -514 c0 -501 1 -515 20 -534 20
-20 33 -20 869 -20 820 0 850 1 872 19 24 19 24 23 27 217 3 212 -2 243 -44
263 -35 16 -48 14 -78 -10 l-26 -20 0 -160 0 -159 -75 0 -75 0 0 348 0 349
-23 21 c-22 21 -31 22 -239 22 -198 0 -218 -2 -239 -19 l-24 -19 -3 -351 -3
-351 -409 0 -410 0 2 457 3 456 45 24 c24 13 54 32 65 42 20 19 21 19 54 -10
96 -80 278 -75 354 9 l19 21 42 -33 c24 -18 64 -38 90 -46 88 -24 209 3 259
58 l19 21 42 -33 c24 -18 64 -38 90 -46 88 -24 209 3 259 58 19 21 19 21 62
-12 24 -19 55 -36 69 -40 l26 -6 0 -163 c0 -158 1 -164 23 -185 29 -27 67 -28
98 -3 23 19 24 25 27 184 l3 165 32 13 c44 18 114 85 140 134 20 37 22 57 25
243 l3 202 -76 188 c-42 103 -86 195 -97 205 -19 16 -78 17 -927 17 -710 0
-911 -3 -924 -12z m1795 -233 c21 -49 37 -93 38 -97 0 -5 -409 -8 -910 -8
-501 0 -910 2 -910 4 0 2 14 36 31 77 17 41 35 84 40 97 l9 22 832 -2 833 -3
37 -90z m-1562 -387 c0 -114 -3 -138 -20 -165 -50 -83 -170 -83 -220 0 -17 27
-20 51 -20 165 l0 132 130 0 130 0 0 -132z m410 0 c0 -114 -3 -138 -20 -165
-37 -62 -116 -81 -178 -43 -51 31 -62 71 -62 215 l0 125 130 0 130 0 0 -132z
m410 0 c0 -114 -3 -138 -20 -165 -37 -62 -116 -81 -178 -43 -51 31 -62 71 -62
215 l0 125 130 0 130 0 0 -132z m410 0 c0 -114 -3 -138 -20 -165 -37 -62 -116
-81 -178 -43 -51 31 -62 71 -62 215 l0 125 130 0 130 0 0 -132z m410 0 c0
-114 -3 -138 -20 -165 -37 -62 -116 -81 -178 -43 -51 31 -62 71 -62 215 l0
125 130 0 130 0 0 -132z m-500 -993 l0 -295 -115 0 -115 0 0 295 0 295 115 0
115 0 0 -295z"/>
<path d="M3092 2073 c-11 -10 -54 -102 -97 -205 l-76 -187 3 -203 c3 -186 5
-206 25 -243 26 -49 96 -116 141 -134 l32 -13 0 -500 c0 -526 2 -545 45 -562
9 -3 397 -6 861 -6 831 0 844 0 864 20 19 19 20 33 20 234 l0 215 -26 20 c-34
26 -54 26 -88 0 l-26 -20 0 -160 0 -159 -75 0 -75 0 0 344 c0 332 -1 344 -21
370 l-20 26 -224 0 -224 0 -20 -26 c-20 -26 -21 -38 -21 -370 l0 -344 -410 0
-410 0 0 460 0 460 26 6 c14 4 45 21 69 40 43 33 43 33 62 12 50 -55 171 -82
259 -58 26 8 66 28 90 46 l42 33 19 -21 c50 -55 171 -82 259 -58 26 8 66 28
90 46 l42 33 19 -21 c76 -84 258 -89 354 -9 33 29 34 29 54 10 11 -10 41 -29
65 -42 l45 -24 5 -167 c5 -151 7 -169 24 -182 25 -18 67 -18 92 0 17 13 19 31
24 182 l5 167 45 24 c25 12 64 44 87 69 63 68 73 113 73 326 l0 178 -80 192
c-44 106 -87 199 -97 206 -13 9 -214 12 -924 12 -849 0 -908 -1 -927 -17z
m1799 -232 c21 -51 39 -95 39 -97 0 -2 -409 -4 -910 -4 -500 0 -910 2 -910 5
0 7 60 156 71 177 9 17 45 18 840 16 l831 -3 39 -94z m-1561 -376 c0 -144 -11
-184 -62 -215 -62 -38 -141 -19 -178 43 -17 27 -20 51 -20 165 l0 132 130 0
130 0 0 -125z m410 0 c0 -144 -11 -184 -62 -215 -62 -38 -141 -19 -178 43 -17
27 -20 51 -20 165 l0 132 130 0 130 0 0 -125z m410 0 c0 -144 -11 -184 -62
-215 -62 -38 -141 -19 -178 43 -17 27 -20 51 -20 165 l0 132 130 0 130 0 0
-125z m410 0 c0 -144 -11 -184 -62 -215 -62 -38 -141 -19 -178 43 -17 27 -20
51 -20 165 l0 132 130 0 130 0 0 -125z m410 -7 c0 -114 -3 -138 -20 -165 -50
-83 -170 -83 -220 0 -17 27 -20 51 -20 165 l0 132 130 0 130 0 0 -132z m-500
-993 l0 -295 -115 0 -115 0 0 295 0 295 115 0 115 0 0 -295z"/>
<path d="M521 884 c-20 -25 -21 -39 -21 -238 0 -286 -18 -269 293 -264 l189 3
24 28 c24 28 24 31 24 236 0 196 -1 210 -21 235 l-20 26 -224 0 -224 0 -20
-26z m359 -239 l0 -115 -115 0 -115 0 0 115 0 115 115 0 115 0 0 -115z"/>
<path d="M3442 887 c-21 -22 -22 -31 -22 -240 0 -202 1 -218 19 -236 29 -29
65 -33 273 -29 253 4 233 -19 233 269 0 220 0 221 -24 240 -21 17 -41 19 -240
19 -214 0 -218 0 -239 -23z m356 -239 l-3 -113 -112 -3 -113 -3 0 116 0 115
115 0 116 0 -3 -112z"/>
</g>
</svg>
