<?xml version="1.0" standalone="no"?>
<!DOCTYPE svg PUBLIC "-//W3C//DTD SVG 20010904//EN"
 "http://www.w3.org/TR/2001/REC-SVG-20010904/DTD/svg10.dtd">
<svg version="1.0" xmlns="http://www.w3.org/2000/svg"
 width="512.000000pt" height="512.000000pt" viewBox="0 0 512.000000 512.000000"
 preserveAspectRatio="xMidYMid meet">

<g transform="translate(0.000000,512.000000) scale(0.100000,-0.100000)"
fill="#fff" stroke="none">
<path d="M2060 4681 c-14 -4 -43 -17 -65 -29 -58 -30 -1946 -1924 -1971 -1977
-28 -60 -26 -176 5 -236 32 -63 1928 -1957 1986 -1985 28 -13 62 -19 115 -19
102 0 138 21 278 159 136 134 165 183 165 284 0 126 16 107 -601 725 l-557
557 1737 0 c1722 0 1738 0 1792 20 74 28 139 98 161 174 13 45 16 91 13 224
-3 145 -6 173 -25 213 -25 56 -84 118 -138 144 -39 20 -75 20 -1793 25 l-1752
5 560 560 c617 617 604 601 603 722 -1 96 -31 148 -165 279 -62 61 -133 122
-158 134 -48 24 -147 35 -190 21z"/>
</g>
</svg>
