<?xml version="1.0" standalone="no"?>
<!DOCTYPE svg PUBLIC "-//W3C//DTD SVG 20010904//EN"
 "http://www.w3.org/TR/2001/REC-SVG-20010904/DTD/svg10.dtd">
<svg version="1.0" xmlns="http://www.w3.org/2000/svg"
 width="512.000000pt" height="512.000000pt" viewBox="0 0 512.000000 512.000000"
 preserveAspectRatio="xMidYMid meet">

<g transform="translate(0.000000,512.000000) scale(0.100000,-0.100000)"
fill="#fff" stroke="none">
<path d="M2330 5114 c-618 -54 -1159 -304 -1590 -734 -714 -712 -932 -1771
-559 -2712 296 -747 962 -1328 1740 -1517 237 -57 319 -66 609 -66 297 1 420
16 656 80 865 238 1531 904 1769 1769 64 236 79 359 80 656 0 290 -9 372 -66
609 -170 700 -657 1314 -1301 1641 -263 134 -502 211 -788 255 -100 15 -453
27 -550 19z m565 -193 c768 -132 1391 -595 1731 -1286 323 -658 323 -1415 -1
-2070 -229 -464 -606 -842 -1070 -1070 -564 -278 -1203 -318 -1805 -113 -235
80 -515 236 -717 399 -173 140 -382 376 -505 569 -132 209 -251 498 -303 735
-49 229 -68 522 -46 740 46 455 217 881 499 1240 72 91 288 307 377 376 352
274 745 439 1179 494 161 20 503 13 661 -14z"/>
<path d="M2420 4614 c-232 -18 -430 -60 -615 -129 -613 -230 -1079 -755 -1240
-1395 -92 -364 -77 -756 40 -1116 61 -188 229 -508 288 -549 31 -22 71 -18
101 10 40 37 34 70 -30 171 -303 480 -373 1049 -194 1585 180 543 610 973
1155 1157 534 181 1107 112 1589 -192 101 -64 134 -70 171 -30 28 30 32 70 10
101 -34 49 -289 191 -464 258 -117 45 -289 90 -421 109 -110 15 -313 26 -390
20z"/>
<path d="M1690 4008 c-52 -27 -78 -60 -90 -114 -12 -49 -12 -2353 -1 -2413 10
-52 36 -89 82 -116 31 -18 55 -20 269 -23 254 -4 288 1 341 45 58 50 59 54 59
488 l0 395 78 0 77 0 218 -435 c203 -407 220 -437 259 -462 l41 -28 266 -3
c184 -2 279 0 308 9 80 22 135 111 119 191 -3 16 -105 215 -227 441 -183 339
-219 411 -206 419 9 4 47 33 86 64 132 106 242 275 293 449 31 108 33 344 4
445 -47 164 -135 310 -254 422 -131 124 -313 212 -488 238 -39 5 -313 10 -629
10 l-561 0 -44 -22z m1252 -163 c281 -59 489 -259 563 -541 20 -77 20 -233 0
-321 -45 -196 -181 -368 -371 -473 -41 -22 -64 -54 -64 -87 0 -9 103 -208 229
-442 126 -234 234 -436 240 -448 l12 -23 -238 0 -238 0 -215 432 c-118 237
-226 444 -238 460 l-24 28 -178 0 c-98 0 -186 -3 -195 -6 -43 -17 -45 -41 -45
-489 l0 -425 -210 0 -210 0 0 1175 0 1175 558 0 c442 0 571 -3 624 -15z"/>
<path d="M2232 3515 c-18 -8 -37 -26 -42 -40 -6 -15 -10 -155 -10 -336 l0
-311 30 -29 30 -30 332 3 333 3 57 27 c32 15 79 47 106 72 233 218 109 600
-211 647 -34 5 -181 9 -327 8 -206 0 -272 -3 -298 -14z m632 -166 c178 -45
211 -288 52 -379 l-51 -30 -257 0 -258 0 0 210 0 210 236 0 c136 0 253 -5 278
-11z"/>
<path d="M4046 3769 c-42 -33 -36 -77 23 -168 192 -300 291 -639 291 -994 0
-901 -635 -1662 -1520 -1822 -144 -26 -427 -31 -570 -11 -272 40 -528 134
-750 276 -51 33 -93 53 -111 53 -42 0 -79 -38 -79 -81 0 -45 31 -74 153 -146
348 -205 705 -296 1102 -283 389 13 728 121 1051 335 750 497 1077 1450 792
2307 -66 199 -222 499 -281 540 -30 21 -69 19 -101 -6z"/>
</g>
</svg>
