<?xml version="1.0" standalone="no"?>
<!DOCTYPE svg PUBLIC "-//W3C//DTD SVG 20010904//EN"
 "http://www.w3.org/TR/2001/REC-SVG-20010904/DTD/svg10.dtd">
<svg version="1.0" xmlns="http://www.w3.org/2000/svg"
 width="512.000000pt" height="512.000000pt" viewBox="0 0 512.000000 512.000000"
 preserveAspectRatio="xMidYMid meet">

<g transform="translate(0.000000,512.000000) scale(0.100000,-0.100000)"
fill="#fff" stroke="none">
<path d="M2303 5075 c-595 -90 -1103 -456 -1368 -985 -324 -646 -241 -1412
213 -1970 33 -41 365 -379 736 -750 l676 -675 676 675 c371 371 703 709 736
750 350 429 482 985 368 1538 -40 192 -141 433 -253 605 -117 180 -295 365
-472 493 -194 139 -494 265 -735 309 -129 24 -452 29 -577 10z m408 -166 c576
-58 1066 -395 1325 -911 52 -103 115 -286 138 -400 88 -430 -1 -873 -252
-1253 -58 -89 -137 -172 -714 -750 l-648 -650 -648 650 c-577 578 -656 661
-714 750 -340 517 -378 1131 -102 1675 302 595 958 956 1615 889z"/>
<path d="M2780 4625 c-53 -57 -13 -145 66 -145 156 0 399 -105 565 -244 209
-175 323 -389 353 -657 11 -106 16 -125 35 -141 33 -26 87 -23 116 7 22 21 25
33 25 93 0 268 -130 557 -346 768 -196 192 -517 344 -724 344 -58 0 -69 -3
-90 -25z"/>
<path d="M2475 4194 c-159 -24 -293 -74 -409 -154 -380 -263 -493 -761 -265
-1167 60 -107 215 -262 322 -322 346 -194 759 -146 1044 122 129 123 208 255
254 428 31 118 32 298 0 424 -79 321 -338 576 -660 649 -74 17 -232 28 -286
20z m310 -208 c209 -71 380 -241 450 -447 40 -119 46 -271 16 -390 -81 -321
-357 -539 -686 -539 -329 0 -605 217 -686 539 -30 119 -24 271 16 390 65 191
225 359 415 435 136 54 334 59 475 12z"/>
<path d="M1550 1281 c-275 -98 -473 -237 -543 -382 -186 -381 265 -730 1093
-844 160 -22 569 -31 754 -16 626 51 1112 251 1253 516 153 289 -72 577 -580
741 l-87 28 -70 -69 c-59 -58 -67 -71 -53 -77 10 -3 72 -23 138 -44 247 -77
448 -205 501 -319 31 -65 30 -109 -2 -173 -95 -192 -491 -356 -1005 -418 -176
-21 -570 -24 -739 -5 -532 59 -947 227 -1044 423 -32 64 -33 109 -2 173 61
128 304 274 568 340 35 9 69 18 77 21 18 6 -116 144 -139 143 -8 0 -62 -17
-120 -38z"/>
</g>
</svg>
