<?xml version="1.0" standalone="no"?>
<!DOCTYPE svg PUBLIC "-//W3C//DTD SVG 20010904//EN"
 "http://www.w3.org/TR/2001/REC-SVG-20010904/DTD/svg10.dtd">
<svg version="1.0" xmlns="http://www.w3.org/2000/svg"
 width="512.000000pt" height="512.000000pt" viewBox="0 0 512.000000 512.000000"
 preserveAspectRatio="xMidYMid meet">

<g transform="translate(0.000000,512.000000) scale(0.100000,-0.100000)"
fill="#fff" stroke="none">
<path d="M2517 5100 c-24 -19 -26 -28 -29 -103 l-3 -82 -100 -8 c-366 -27
-750 -151 -1054 -340 -119 -73 -151 -104 -151 -143 0 -41 29 -74 67 -74 15 0
64 25 117 58 177 115 318 182 511 245 201 67 358 95 577 106 150 7 171 16 186
73 7 28 9 27 198 -156 l192 -185 -22 -19 c-11 -11 -97 -82 -191 -157 l-170
-137 -7 53 c-10 85 -26 93 -176 86 -549 -28 -1070 -330 -1376 -799 -75 -116
-158 -290 -198 -415 -18 -57 -35 -103 -38 -103 -3 1 -41 46 -84 101 -44 56
-89 106 -102 111 -40 18 -70 0 -163 -98 -50 -53 -91 -89 -91 -81 0 9 15 69 34
134 103 357 280 659 552 944 106 110 117 140 68 178 -47 37 -69 28 -161 -61
-266 -259 -479 -612 -593 -984 -34 -108 -80 -324 -80 -371 0 -37 -19 -63 -137
-184 -101 -104 -110 -125 -72 -173 19 -24 26 -26 103 -26 l82 0 12 -137 c31
-355 154 -727 337 -1023 349 -562 911 -953 1550 -1079 55 -10 122 -22 148 -26
44 -6 57 -15 162 -116 122 -117 141 -126 188 -89 24 19 26 28 29 103 l3 82
100 7 c299 22 598 103 870 238 118 58 289 162 333 203 46 43 16 127 -45 127
-17 0 -66 -26 -128 -66 -117 -77 -342 -189 -469 -233 -200 -70 -401 -109 -623
-120 -155 -7 -176 -15 -191 -73 -7 -29 -9 -27 -199 154 -105 101 -191 185
-191 188 -1 3 86 74 191 159 l192 153 7 -53 c10 -85 26 -93 176 -86 308 16
624 121 883 296 355 239 593 570 725 1009 2 8 41 -32 89 -92 85 -106 112 -125
154 -111 11 3 64 52 116 108 107 113 104 116 58 -48 -74 -268 -214 -545 -386
-765 -28 -36 -96 -111 -150 -167 -92 -96 -98 -104 -95 -139 2 -26 11 -43 30
-57 42 -31 73 -16 162 76 349 364 565 794 643 1281 l18 110 107 112 c116 121
125 140 87 188 -19 24 -26 26 -100 26 -91 0 -84 -10 -93 135 -12 181 -64 421
-132 602 -258 692 -798 1210 -1500 1436 -103 33 -302 78 -406 92 -43 6 -57 15
-162 116 -124 117 -142 126 -189 89z m805 -470 c190 -70 434 -205 598 -333 93
-73 250 -227 338 -332 262 -312 444 -734 491 -1135 5 -47 13 -135 16 -197 8
-120 15 -137 69 -151 25 -7 19 -15 -159 -200 l-187 -192 -155 193 -155 192 50
5 c30 3 59 13 72 25 22 19 22 25 17 150 -29 707 -515 1347 -1195 1574 -51 17
-100 31 -108 31 -27 0 -13 15 87 94 56 44 106 89 111 102 18 40 0 70 -97 162
-52 49 -95 92 -95 95 0 8 208 -49 302 -83z m-832 -554 c0 -90 1 -96 26 -115
15 -12 37 -21 50 -21 14 0 70 38 147 100 74 59 133 100 147 100 31 0 167 -36
252 -66 105 -38 249 -112 358 -185 124 -82 333 -290 418 -416 154 -227 255
-506 278 -765 l7 -78 -96 0 c-91 0 -96 -1 -116 -26 -12 -15 -21 -37 -21 -50 0
-14 39 -71 105 -152 l104 -130 -19 -78 c-45 -187 -132 -385 -242 -547 -85
-126 -294 -334 -418 -416 -220 -147 -437 -230 -693 -266 -161 -23 -147 -31
-147 79 0 90 -1 96 -26 115 -15 12 -37 21 -50 21 -14 0 -71 -39 -149 -102
l-126 -101 -64 12 c-92 16 -227 62 -338 114 -505 236 -860 737 -916 1291 -4
45 -6 84 -4 89 2 4 44 7 93 7 84 0 90 1 109 26 12 15 21 37 21 50 0 14 -38 70
-100 147 -55 68 -100 133 -100 143 0 11 11 61 25 113 172 642 704 1105 1365
1190 36 5 77 9 93 10 l27 1 0 -94z m-1699 -1244 l152 -187 -44 -5 c-59 -8 -87
-25 -96 -58 -10 -42 14 -285 41 -402 35 -155 69 -248 147 -405 92 -186 177
-303 334 -461 199 -199 422 -338 677 -421 65 -21 117 -40 117 -43 0 -3 -45
-41 -100 -84 -106 -83 -126 -109 -115 -149 3 -14 50 -67 103 -117 l98 -93 -41
6 c-64 10 -280 82 -389 130 -757 331 -1275 1081 -1311 1897 -5 99 -17 179 -28
180 0 0 -18 6 -38 13 l-38 13 183 190 c100 105 185 189 189 187 5 -2 76 -88
159 -191z"/>
<path d="M2440 3753 c-25 -9 -68 -54 -79 -82 -5 -14 -15 -58 -21 -97 l-11 -72
-67 -21 c-36 -12 -97 -38 -135 -57 l-68 -34 -57 43 c-75 58 -94 67 -137 67
-50 0 -69 -12 -148 -89 -119 -115 -125 -150 -42 -270 l55 -81 -33 -67 c-19
-38 -44 -98 -56 -135 l-22 -66 -52 -7 c-173 -22 -207 -59 -207 -225 0 -166 34
-203 207 -225 l52 -7 22 -66 c12 -37 37 -97 56 -135 l33 -67 -55 -81 c-83
-120 -77 -155 42 -270 79 -77 98 -89 148 -89 43 0 62 9 137 67 l57 43 68 -34
c38 -19 99 -45 135 -57 l67 -21 11 -72 c15 -92 25 -117 61 -152 29 -28 33 -29
152 -32 108 -2 126 0 154 17 43 27 62 66 75 160 l12 78 70 23 c39 12 100 37
135 56 l65 34 50 -39 c132 -99 183 -97 294 12 75 74 92 102 92 157 0 47 -8 65
-62 136 -21 28 -38 55 -38 61 0 6 18 48 39 94 22 46 45 105 51 130 l12 46 83
12 c150 23 180 59 180 221 0 162 -30 198 -180 221 l-83 12 -12 46 c-6 25 -29
84 -51 130 -21 46 -39 88 -39 94 0 6 17 33 38 61 54 71 62 89 62 136 0 55 -17
84 -92 156 -74 72 -94 84 -143 84 -42 0 -80 -18 -151 -71 l-50 -39 -65 34
c-35 19 -96 44 -135 56 l-70 23 -12 78 c-22 153 -54 179 -217 178 -60 0 -117
-3 -125 -6z m201 -240 c17 -123 28 -136 133 -163 46 -12 123 -43 184 -75 72
-38 111 -54 125 -49 11 3 56 33 100 66 l80 59 45 -44 45 -45 -62 -84 c-40 -56
-61 -94 -61 -113 0 -15 16 -53 35 -85 39 -65 80 -168 96 -241 15 -68 38 -84
154 -99 l95 -14 0 -66 0 -66 -95 -14 c-116 -15 -139 -31 -154 -99 -16 -73 -57
-176 -96 -241 -19 -32 -35 -70 -35 -85 0 -19 21 -57 61 -113 l62 -84 -45 -45
-45 -44 -80 59 c-44 33 -89 63 -100 66 -14 5 -53 -11 -125 -49 -61 -32 -138
-63 -184 -75 -105 -27 -116 -40 -133 -163 l-14 -97 -63 0 c-72 0 -65 -11 -85
120 -13 91 -28 116 -71 125 -74 15 -188 57 -251 94 -109 64 -106 64 -227 -28
l-65 -50 -42 42 c-24 22 -43 45 -43 49 0 4 27 45 60 90 33 45 60 90 60 101 0
10 -19 50 -41 88 -42 70 -99 217 -99 255 0 48 -30 66 -141 84 l-104 16 0 64 0
64 104 16 c111 18 141 36 141 84 0 38 57 185 99 255 22 38 41 78 41 88 0 11
-27 56 -60 101 -33 45 -60 86 -60 90 0 4 19 27 43 49 l42 42 72 -55 c114 -86
113 -86 222 -22 62 36 176 79 249 93 43 9 58 34 71 125 20 131 13 120 85 120
l63 0 14 -97z"/>
<path d="M2475 3079 c-89 -13 -212 -77 -282 -148 -103 -102 -153 -224 -153
-371 0 -185 62 -274 145 -208 26 20 27 24 19 72 -5 28 -8 94 -8 146 0 83 3
102 27 151 32 67 118 152 182 180 109 48 231 43 338 -13 72 -39 120 -92 161
-177 27 -58 31 -77 31 -152 0 -78 -3 -91 -38 -161 -96 -195 -302 -264 -509
-171 -56 25 -62 26 -87 12 -37 -21 -52 -55 -39 -91 9 -24 26 -37 82 -64 171
-80 373 -61 524 50 162 119 243 311 214 503 -45 289 -314 485 -607 442z"/>
</g>
</svg>
