<?xml version="1.0" standalone="no"?>
<!DOCTYPE svg PUBLIC "-//W3C//DTD SVG 20010904//EN"
 "http://www.w3.org/TR/2001/REC-SVG-20010904/DTD/svg10.dtd">
<svg version="1.0" xmlns="http://www.w3.org/2000/svg"
 width="512.000000pt" height="512.000000pt" viewBox="0 0 512.000000 512.000000"
 preserveAspectRatio="xMidYMid meet">

<g transform="translate(0.000000,512.000000) scale(0.100000,-0.100000)"
fill="#fff" stroke="none">
<path d="M3965 5071 c-48 -12 -72 -28 -201 -132 -148 -119 -168 -152 -162
-258 4 -81 35 -135 99 -178 51 -34 154 -44 209 -21 34 15 178 126 254 197 91
85 102 221 25 315 -49 58 -153 95 -224 77z m80 -155 c36 -15 50 -43 43 -87 -2
-15 -42 -55 -116 -116 -94 -77 -119 -93 -148 -93 -44 0 -74 29 -74 73 0 25 9
41 38 68 76 72 191 160 220 168 1 1 18 -5 37 -13z"/>
<path d="M2470 4984 c-129 -61 -173 -121 -175 -239 -1 -55 -7 -81 -28 -123
-56 -108 -182 -321 -253 -428 -41 -61 -74 -121 -74 -133 0 -29 43 -71 72 -71
13 0 34 7 46 16 29 20 151 205 245 373 l75 134 35 -69 c19 -38 231 -478 472
-979 241 -500 445 -918 455 -928 40 -43 124 -10 123 50 0 16 -219 480 -508
1078 -369 763 -508 1060 -509 1086 -1 46 16 66 79 95 60 28 105 30 134 7 27
-24 1431 -2938 1431 -2972 0 -40 -27 -71 -87 -97 -67 -30 -95 -30 -127 -1 -15
12 -79 135 -152 287 -69 146 -134 274 -144 284 -24 24 -74 25 -100 1 -36 -33
-25 -71 85 -300 58 -120 103 -220 101 -223 -3 -2 -69 5 -148 16 -236 35 -406
45 -633 39 -303 -9 -521 -39 -828 -114 -81 -20 -149 -34 -151 -32 -2 2 -157
321 -345 709 l-340 705 32 25 c183 145 252 204 376 325 202 197 261 267 261
310 0 37 -37 75 -73 75 -13 0 -79 -61 -185 -170 -314 -325 -542 -494 -1020
-760 -81 -45 -153 -93 -182 -122 -59 -58 -109 -158 -117 -232 l-5 -53 -92 -45
c-51 -25 -105 -57 -122 -71 -73 -61 -111 -193 -82 -284 28 -89 343 -726 380
-768 49 -56 123 -88 204 -87 51 0 77 7 164 46 l102 46 76 -37 c71 -36 82 -38
176 -40 l101 -2 80 -164 c44 -90 86 -171 94 -181 17 -20 70 -21 99 0 38 26 28
68 -54 239 -41 87 -72 161 -67 165 20 19 464 190 494 190 5 0 9 -126 9 -295
l0 -294 150 -312 c83 -171 150 -321 150 -334 0 -30 -21 -47 -122 -95 -85 -41
-89 -42 -113 -26 -18 12 -60 88 -140 254 -156 323 -157 325 -186 341 -35 19
-83 1 -99 -39 -14 -33 -25 -5 150 -370 62 -129 124 -249 137 -267 35 -45 103
-76 170 -76 48 0 72 8 172 59 104 53 119 64 146 108 25 42 30 60 30 115 0 62
-5 76 -72 215 -40 82 -73 151 -73 155 0 3 18 16 39 28 107 61 241 194 302 298
21 36 29 63 29 97 0 63 -13 76 -284 303 -118 99 -215 183 -215 186 -2 13 298
75 482 99 197 27 530 36 712 21 210 -17 532 -70 585 -95 33 -15 64 -21 115
-21 60 1 80 6 141 37 83 43 136 99 154 163 25 88 15 116 -170 500 l-173 359
24 16 c154 99 231 294 185 465 -7 28 -103 236 -212 464 -182 380 -204 420
-258 478 -83 90 -160 125 -282 131 -64 3 -107 0 -144 -11 l-52 -15 -28 61
c-109 238 -314 648 -339 678 -43 52 -104 79 -177 79 -48 0 -74 -7 -134 -36z
m965 -928 c28 -12 66 -40 85 -62 23 -25 105 -184 233 -450 219 -455 224 -470
193 -578 -13 -45 -29 -70 -67 -108 -28 -28 -54 -47 -58 -42 -9 10 -601 1238
-601 1247 0 10 32 15 100 16 49 1 77 -5 115 -23z m-2010 -1666 c179 -371 326
-681 328 -689 1 -8 -26 -23 -74 -41 l-76 -28 -322 666 c-176 367 -321 672
-321 677 0 9 131 97 137 91 1 -1 149 -305 328 -676z m-540 385 c32 -69 56
-127 54 -129 -2 -2 -105 -52 -227 -111 -169 -81 -227 -104 -235 -96 -6 6 -13
44 -15 85 -5 87 19 154 74 207 33 32 257 166 280 168 6 1 37 -55 69 -124z
m175 -361 c25 -53 47 -100 48 -105 3 -8 -436 -229 -453 -229 -11 0 -106 203
-98 211 9 9 445 219 453 219 3 -1 25 -44 50 -96z m-720 -33 c0 -5 94 -203 209
-440 l209 -432 -60 -30 c-91 -46 -172 -37 -209 23 -45 71 -339 701 -339 725 0
54 32 96 101 130 66 33 89 39 89 24z m891 -322 c28 -56 47 -105 42 -109 -11
-11 -455 -222 -457 -218 -50 97 -99 212 -91 215 6 2 107 50 225 107 118 58
218 105 222 105 4 1 31 -45 59 -100z m175 -365 c31 -64 54 -117 52 -119 -2 -1
-61 -27 -133 -56 -120 -50 -136 -54 -210 -54 -69 0 -86 4 -126 27 -44 26 -99
80 -99 97 0 8 428 219 448 220 8 1 38 -50 68 -115z m787 -411 c89 -75 171
-144 181 -154 18 -17 18 -19 -18 -68 -46 -63 -160 -169 -214 -199 l-41 -23
-41 80 -40 81 0 210 c0 115 3 210 6 210 3 0 78 -61 167 -137z"/>
<path d="M4700 4300 c-40 -8 -450 -202 -493 -234 -106 -78 -110 -263 -8 -349
17 -14 51 -33 75 -42 78 -30 119 -19 361 96 249 118 301 157 324 242 46 163
-95 320 -259 287z m100 -178 c22 -28 25 -54 9 -84 -13 -24 -428 -228 -465
-228 -31 0 -74 42 -74 72 0 47 32 70 229 165 108 53 207 99 221 102 35 10 57
3 80 -27z"/>
<path d="M4855 3254 c-11 -3 -81 -19 -155 -35 -86 -19 -148 -39 -172 -55 -134
-87 -132 -291 3 -381 62 -41 133 -42 297 -4 159 37 192 51 236 102 119 139 34
351 -149 373 -22 2 -49 2 -60 0z m68 -155 c26 -12 47 -47 47 -78 0 -44 -32
-62 -160 -92 -136 -31 -172 -34 -200 -19 -28 15 -40 61 -25 98 15 34 23 37
195 76 128 30 114 28 143 15z"/>
</g>
</svg>
