<?xml version="1.0" standalone="no"?>
<!DOCTYPE svg PUBLIC "-//W3C//DTD SVG 20010904//EN"
 "http://www.w3.org/TR/2001/REC-SVG-20010904/DTD/svg10.dtd">
<svg version="1.0" xmlns="http://www.w3.org/2000/svg"
 width="512.000000pt" height="512.000000pt" viewBox="0 0 512.000000 512.000000"
 preserveAspectRatio="xMidYMid meet">

<g transform="translate(0.000000,512.000000) scale(0.100000,-0.100000)"
fill="#fff" stroke="none">
<path d="M1810 5115 c-8 -2 -49 -9 -90 -15 -349 -57 -677 -299 -847 -626 -145
-279 -172 -620 -72 -919 129 -387 436 -673 839 -783 87 -24 112 -26 290 -26
183 -1 201 1 295 27 221 61 376 150 536 307 239 235 359 518 359 851 0 554
-387 1036 -930 1160 -78 18 -338 35 -380 24z m296 -120 c245 -42 442 -149 616
-335 187 -198 288 -453 288 -728 0 -500 -323 -919 -814 -1055 -71 -19 -104
-22 -271 -21 -177 0 -196 2 -280 28 -661 199 -983 913 -685 1517 212 430 682
674 1146 594z"/>
<path d="M1802 4739 c-30 -5 -88 -21 -130 -35 -239 -79 -439 -278 -518 -516
l-26 -79 -28 44 c-31 49 -52 62 -80 47 -48 -26 -45 -44 22 -166 68 -124 98
-164 123 -164 8 0 65 45 125 101 91 84 110 106 110 130 0 19 -8 34 -24 44 -29
19 -51 11 -105 -39 l-33 -31 7 35 c26 126 135 290 249 376 246 185 552 203
810 47 80 -49 192 -162 239 -243 85 -147 118 -345 83 -510 -61 -294 -334 -537
-626 -557 -89 -6 -120 -22 -120 -62 0 -47 20 -55 118 -48 111 8 186 28 289 78
201 96 353 271 425 489 29 88 32 105 32 240 1 123 -2 157 -22 225 -82 282
-313 508 -592 579 -79 20 -255 29 -328 15z"/>
<path d="M1910 4420 c-13 -13 -20 -33 -20 -58 0 -37 -1 -37 -52 -50 -67 -16
-121 -52 -155 -104 -23 -34 -28 -53 -28 -102 0 -102 51 -158 183 -201 l52 -17
0 -129 0 -129 -27 6 c-35 8 -99 40 -135 67 -23 17 -32 19 -52 9 -37 -17 -44
-57 -15 -88 32 -34 134 -82 192 -90 l47 -6 0 -48 c0 -46 10 -60 40 -60 21 0
40 34 40 70 0 37 2 39 38 46 154 28 242 169 187 302 -28 65 -85 108 -187 141
l-38 13 0 109 c0 128 -1 127 97 77 60 -30 62 -31 88 -14 60 40 -11 120 -130
147 -53 12 -55 13 -55 46 0 65 -36 97 -70 63z m-10 -301 l0 -101 -32 6 c-43 8
-81 37 -92 69 -14 37 13 89 56 110 65 32 68 29 68 -84z m157 -290 c34 -22 43
-37 43 -79 0 -47 -20 -78 -65 -100 -23 -11 -44 -20 -48 -20 -4 0 -7 52 -7 116
0 115 0 115 23 109 12 -4 36 -16 54 -26z"/>
<path d="M4360 3980 c-46 -46 -10 -85 87 -95 37 -4 74 -11 81 -14 9 -5 -457
-350 -1298 -963 l-1311 -955 -614 279 c-649 294 -637 290 -664 240 -25 -47
-13 -54 639 -350 344 -156 635 -284 646 -284 13 0 475 329 1165 833 1515 1104
1493 1088 1496 1085 2 -2 -6 -34 -18 -71 -24 -78 -17 -110 27 -121 41 -11 58
18 107 185 47 159 49 190 11 205 -17 7 -292 46 -320 46 -8 0 -23 -9 -34 -20z"/>
<path d="M4107 2612 c-16 -17 -17 -119 -17 -1260 l0 -1242 -575 0 -575 0 0
985 0 985 250 0 250 0 0 -770 c0 -766 0 -769 21 -780 30 -17 62 -8 76 20 10
19 13 199 13 810 0 695 -2 788 -16 808 -15 22 -15 22 -344 22 -329 0 -329 0
-344 -22 -14 -20 -16 -135 -16 -1040 l0 -1018 -575 0 -575 0 0 550 0 550 250
0 250 0 0 -459 0 -460 22 -15 c30 -21 44 -20 68 4 19 19 20 33 20 510 0 477
-1 491 -20 510 -19 19 -33 20 -337 20 -175 0 -323 -4 -329 -8 -32 -21 -34 -51
-34 -626 l0 -576 -570 0 -570 0 0 715 0 715 245 0 245 0 0 -489 c0 -532 -1
-521 55 -521 56 0 55 -14 55 554 0 435 -2 525 -14 542 -14 18 -31 19 -331 22
-274 2 -321 1 -341 -13 l-24 -15 0 -755 0 -755 -143 0 c-127 0 -146 -2 -160
-18 -22 -24 -21 -55 1 -75 17 -16 208 -17 2544 -17 2433 0 2526 1 2541 18 22
24 21 55 -1 75 -17 15 -63 17 -460 17 l-442 0 0 1205 0 1205 245 0 245 0 0
-1100 c0 -808 3 -1106 12 -1124 15 -33 43 -42 73 -22 l25 16 0 1160 c0 1136 0
1160 -19 1170 -13 6 -138 10 -339 10 -296 0 -320 -1 -335 -18z"/>
<path d="M929 371 c-17 -13 -23 -29 -23 -56 0 -82 108 -106 139 -32 32 77 -51
141 -116 88z"/>
<path d="M3442 367 c-29 -31 -28 -72 3 -102 30 -30 64 -32 99 -4 18 15 26 30
26 53 0 67 -83 101 -128 53z"/>
</g>
</svg>
