<?xml version="1.0" standalone="no"?>
<!DOCTYPE svg PUBLIC "-//W3C//DTD SVG 20010904//EN"
 "http://www.w3.org/TR/2001/REC-SVG-20010904/DTD/svg10.dtd">
<svg version="1.0" xmlns="http://www.w3.org/2000/svg"
 width="512.000000pt" height="512.000000pt" viewBox="0 0 512.000000 512.000000"
 preserveAspectRatio="xMidYMid meet">

<g transform="translate(0.000000,512.000000) scale(0.100000,-0.100000)"
fill="#fff" stroke="none">
<path d="M4225 4050 c-598 -4 -673 -7 -700 -22 -124 -68 -147 -248 -43 -345
55 -52 67 -53 505 -53 l408 0 -757 -757 -758 -758 -472 472 c-326 325 -485
477 -510 488 -52 21 -131 19 -176 -4 -56 -30 -1688 -1667 -1707 -1713 -71
-174 119 -351 289 -268 28 13 285 263 776 755 l735 735 480 -479 c503 -502
501 -501 585 -501 86 0 58 -25 957 873 l852 851 3 -410 c3 -397 4 -410 25
-449 40 -76 105 -115 188 -115 85 0 160 48 196 125 17 38 19 80 19 726 l0 685
-25 51 c-30 59 -79 97 -145 112 -25 6 -47 10 -50 8 -3 -1 -306 -4 -675 -7z"/>
</g>
</svg>
