<svg xmlns="http://www.w3.org/2000/svg">
<defs>
<font id="GoboldHighThinItalic-Italic" horiz-adv-x="543" >
  <font-face 
    font-family="Gobold High Thin Italic"
    font-weight="400"
    font-style="italic"
    font-stretch="normal"
    units-per-em="2048"
    panose-1="2 0 5 0 0 0 0 9 0 0"
    ascent="1638"
    descent="-410"
    x-height="1732"
    cap-height="1961"
    bbox="-276 -343 2160 2204"
    underline-thickness="150"
    underline-position="-442"
    slope="-11"
    unicode-range="U+0020-F002"
  />
<missing-glyph horiz-adv-x="1930" 
d="M1325 1727q-44 -11 -164 -121q-41 -37 -113 -121q-78 -91 -110 -124q-99 -99 -157 -139q-92 -64 -178 -64q-69 0 -110 35q-44 38 -42 106q1 18 5 35q12 62 52 115q55 72 131 85q19 4 35 4q24 0 42 -8q29 -14 29 -12q10 -15 -13 -15q-19 0 -38 -14q-20 -17 -24 -37
q-10 -51 42 -51h2q47 0 81 50q16 26 21 51t0 50q-9 50 -51 74q-43 25 -111 25q-15 0 -32 -1q-144 -12 -217 -85l31 162h889zM308 1066q46 -59 185 -59q19 0 41 2q115 10 297 161q49 41 136 121q79 72 109 95q73 58 136 58q35 0 66 -16q104 -52 221 -52q77 0 159 23
q163 45 286 142q-44 -159 -206 -328q-31 -31 -330 -288h-60q-44 0 -75 47l-173 -146h198q-265 -241 -348 -450q-23 -59 -33 -110q-16 -84 2 -150q29 -107 61 -118h-130l163 837l50 24l13 66h-796zM537 826q88 0 116 -35q29 -35 12 -123l-130 -670h-435l161 828h276zM798 828
h14l-161 -830h-14zM1559 -2q131 29 302 157l-31 -157h-271zM1872 216q-167 -84 -309 -101q-30 -3 -57 -3q-94 0 -138 44q-42 42 -27 118q5 30 19 65q60 145 258 348q96 97 133 139h165l-11 -58h75zM1835 925q149 184 196 424q10 54 14 110q14 181 16 181q10 29 99 55
l-150 -770h-175zM1102 1284q-111 0 -187 -56q-67 -51 -94 -125q-8 -18 -11 -36q-10 -51 12 -87q26 -49 93 -49q11 0 23 1q84 9 124 86q10 20 14 38q10 52 -33 88q-26 22 -21 46q0 4 3 9q12 30 69 43z" />
    <glyph glyph-name=".notdef" horiz-adv-x="1930" 
d="M1325 1727q-44 -11 -164 -121q-41 -37 -113 -121q-78 -91 -110 -124q-99 -99 -157 -139q-92 -64 -178 -64q-69 0 -110 35q-44 38 -42 106q1 18 5 35q12 62 52 115q55 72 131 85q19 4 35 4q24 0 42 -8q29 -14 29 -12q10 -15 -13 -15q-19 0 -38 -14q-20 -17 -24 -37
q-10 -51 42 -51h2q47 0 81 50q16 26 21 51t0 50q-9 50 -51 74q-43 25 -111 25q-15 0 -32 -1q-144 -12 -217 -85l31 162h889zM308 1066q46 -59 185 -59q19 0 41 2q115 10 297 161q49 41 136 121q79 72 109 95q73 58 136 58q35 0 66 -16q104 -52 221 -52q77 0 159 23
q163 45 286 142q-44 -159 -206 -328q-31 -31 -330 -288h-60q-44 0 -75 47l-173 -146h198q-265 -241 -348 -450q-23 -59 -33 -110q-16 -84 2 -150q29 -107 61 -118h-130l163 837l50 24l13 66h-796zM537 826q88 0 116 -35q29 -35 12 -123l-130 -670h-435l161 828h276zM798 828
h14l-161 -830h-14zM1559 -2q131 29 302 157l-31 -157h-271zM1872 216q-167 -84 -309 -101q-30 -3 -57 -3q-94 0 -138 44q-42 42 -27 118q5 30 19 65q60 145 258 348q96 97 133 139h165l-11 -58h75zM1835 925q149 184 196 424q10 54 14 110q14 181 16 181q10 29 99 55
l-150 -770h-175zM1102 1284q-111 0 -187 -56q-67 -51 -94 -125q-8 -18 -11 -36q-10 -51 12 -87q26 -49 93 -49q11 0 23 1q84 9 124 86q10 20 14 38q10 52 -33 88q-26 22 -21 46q0 4 3 9q12 30 69 43z" />
    <glyph glyph-name=".null" horiz-adv-x="0" 
 />
    <glyph glyph-name="nonmarkingreturn" horiz-adv-x="508" 
 />
    <glyph glyph-name="space" unicode=" " horiz-adv-x="299" 
 />
    <glyph glyph-name="space" unicode="&#xa0;" horiz-adv-x="299" 
 />
    <glyph glyph-name="exclam" unicode="!" horiz-adv-x="295" 
d="M602 1992l-346 -1723h-113l324 1723h135zM106 135h135l-26 -135h-135z" />
    <glyph glyph-name="quotedbl" unicode="&#x22;" horiz-adv-x="497" 
d="M678 1950h118l-73 -300h-87zM459 1950h118l-74 -300h-86z" />
    <glyph glyph-name="numbersign" unicode="#" horiz-adv-x="736" 
d="M775 1169l-105 -359h99l-9 -47h-103l-224 -762h-91l225 762h-155l-224 -762h-90l224 762h-94l9 47h99l106 359h-91l9 47h96l219 745h89l-219 -745h155l219 745h90l-220 -745h103l-9 -47h-108zM581 810l105 359h-155l-106 -359h156z" />
    <glyph glyph-name="dollar" unicode="$" 
d="M701 1991q118 -23 118 -137q0 -25 -6 -55l-90 -463h-114l90 463q16 82 -61 82h-1q-77 0 -93 -82l-120 -618q-15 -75 106 -176q111 -91 86 -217l-121 -625q-32 -165 -185 -192l-40 -204h-87l40 204q-117 23 -117 137q0 25 6 55l90 462h114l-90 -462q-16 -83 62 -83
q77 0 93 83l119 613q16 80 -105 181q-111 91 -86 221l121 621q32 164 184 192l36 182h87z" />
    <glyph glyph-name="percent" unicode="%" horiz-adv-x="862" 
d="M529 1217q-21 -107 -126 -107q-107 0 -86 107l130 669q21 108 128 108q105 0 84 -108zM1014 1961l-742 -1961h-58l743 1961h57zM605 1886q10 55 -41 55h-1q-52 0 -62 -55l-130 -669q-11 -54 42 -54q51 0 62 54zM799 86q-21 -108 -126 -108q-107 0 -86 108l130 669
q21 107 128 107q105 0 84 -107zM876 755q10 54 -42 54h-1q-52 0 -62 -54l-130 -669q-11 -55 42 -55q52 0 63 55z" />
    <glyph glyph-name="ampersand" unicode="&#x26;" horiz-adv-x="658" 
d="M553 1044l45 234h113l-45 -234h115l-22 -112h-115l-149 -769q-38 -194 -229 -194q-160 0 -160 135q0 27 6 59l133 685q17 88 124 138q-88 50 -70 139l131 677q38 194 230 194q159 0 159 -135q0 -27 -6 -59l-55 -282h-113l55 282q16 82 -62 83h-1q-77 -1 -93 -83
l-131 -676q-12 -60 12 -74q11 -8 36 -8h92zM531 932h-81q-29 0 -45 -6q-34 -14 -46 -78l-133 -685q-16 -82 61 -82h1q78 0 94 82z" />
    <glyph glyph-name="quotesingle" unicode="'" horiz-adv-x="278" 
d="M459 1950h118l-74 -300h-86z" />
    <glyph glyph-name="parenleft" unicode="(" horiz-adv-x="330" 
d="M220 -153q-139 2 -139 132q0 29 7 63l365 1878q37 191 208 194l-17 -88q-56 -2 -72 -83l-374 -1925q-16 -81 40 -82z" />
    <glyph glyph-name="parenright" unicode=")" horiz-adv-x="330" 
d="M67 -64q57 1 73 82l374 1925q16 81 -40 83l17 88q139 -2 139 -131q0 -29 -7 -63l-365 -1878q-37 -192 -208 -195z" />
    <glyph glyph-name="asterisk" unicode="*" horiz-adv-x="521" 
d="M616 1825q100 68 130 81q15 6 26 6q22 0 28 -38q1 -6 1 -12q0 -9 -2 -16q-5 -28 -43 -33q-7 -1 -16 -1q-34 0 -123 1q84 -55 101 -79q13 -16 10 -29q-3 -18 -34 -37q-24 -17 -39 -17q-19 0 -27 28q-9 30 -19 125q-42 -100 -63 -127q-18 -25 -36 -25q-15 0 -33 15
q-23 20 -20 37q3 14 24 32q26 22 124 78q-84 -4 -118 -4q-13 0 -19 1q-31 6 -31 28q0 4 1 7q3 12 11 27q19 38 43 38q11 0 26 -7q25 -15 92 -81q-21 99 -19 130q0 5 1 10q8 38 57 38h2q48 0 41 -35q-1 -6 -4 -14q-13 -34 -72 -127z" />
    <glyph glyph-name="plus" unicode="+" horiz-adv-x="540" 
d="M408 937h-146l17 89h146l28 145h87l-28 -145h147l-17 -89h-147l-28 -145h-87z" />
    <glyph glyph-name="comma" unicode="," horiz-adv-x="308" 
d="M109 150h148l-25 -129l-84 -171h-64l62 165h-63z" />
    <glyph glyph-name="hyphen" unicode="-" horiz-adv-x="404" 
d="M510 958h-244l9 47h244z" />
    <glyph glyph-name="hyphen" unicode="&#xad;" horiz-adv-x="404" 
d="M510 958h-244l9 47h244z" />
    <glyph glyph-name="period" unicode="." horiz-adv-x="295" 
d="M109 149h135l-26 -135h-135z" />
    <glyph glyph-name="slash" unicode="/" horiz-adv-x="325" 
d="M686 1961l-576 -1961h-90l577 1961h89z" />
    <glyph glyph-name="zero" unicode="0" 
d="M497 175q-38 -194 -230 -195q-159 0 -159 136q0 27 6 59l313 1611q38 194 229 194q160 0 160 -135q0 -27 -6 -59zM696 1786q16 82 -61 82h-1q-77 0 -93 -82l-313 -1611q-16 -83 61 -83q78 0 94 83z" />
    <glyph glyph-name="one" unicode="1" 
d="M489 1h-389l22 111h135l338 1739h-135l21 110h248l-359 -1849h141z" />
    <glyph glyph-name="two" unicode="2" 
d="M216 112h269l-22 -112h-383l119 612q25 131 172 221q160 101 175 181l150 773q16 83 -61 83q-78 0 -94 -83l-87 -451h-114l87 451q38 194 230 195q159 0 159 -136q0 -27 -6 -59l-152 -785q-25 -126 -171 -217q-160 -101 -175 -176z" />
    <glyph glyph-name="three" unicode="3" 
d="M418 1042h69q25 0 40 8q29 14 40 74l129 663q16 82 -61 83h-1q-77 0 -93 -83l-87 -451h-114l87 451q38 194 229 194q160 0 160 -135q0 -27 -6 -59l-129 -664q-17 -89 -125 -139q88 -50 71 -138l-130 -672q-38 -194 -230 -194q-159 0 -159 135q0 27 6 59l88 452h114
l-88 -452q-16 -82 61 -82h1q77 0 93 82l130 672q13 64 -17 78q-13 6 -41 6h-58z" />
    <glyph glyph-name="four" unicode="4" horiz-adv-x="544" 
d="M836 1962l-279 -1434h55l-21 -110h-55l-81 -417h-114l81 417h-291l21 109l528 1435h156zM261 528h182l248 1274z" />
    <glyph glyph-name="five" unicode="5" 
d="M551 1039q12 63 -16 76q-14 7 -44 7q-8 0 -16 -1q-56 -2 -72 -52l-7 -27h-113l256 919h305l-22 -112h-213l-189 -692q77 73 132 73q9 0 17 -1q66 -7 92 -55q22 -40 4 -135l-168 -865q-38 -194 -230 -194q-159 0 -159 135q0 27 6 59l88 452h114l-88 -452q-16 -82 61 -82h1
q77 0 93 82z" />
    <glyph glyph-name="six" unicode="6" 
d="M403 1074q70 54 123 54q11 0 21 -1q62 -6 89 -44q30 -39 9 -145l-148 -764q-38 -194 -230 -194q-159 0 -159 135q0 27 6 59l313 1612q38 195 229 195q160 0 160 -136q0 -27 -6 -59l-87 -450h-114l87 450q16 83 -61 83h-1q-77 0 -93 -83zM531 938q13 64 -17 77
q-13 7 -42 7h-15q-65 -3 -81 -84l-148 -764q-16 -82 61 -82q78 0 94 82z" />
    <glyph glyph-name="seven" unicode="7" 
d="M430 1851l21 110h395l-17 -85l-564 -1875h-116l552 1850h-271z" />
    <glyph glyph-name="eight" unicode="8" 
d="M657 1981q159 0 159 -135q0 -27 -6 -59l-128 -662q-18 -89 -123 -139q86 -50 69 -138l-131 -674q-38 -194 -229 -194q-160 0 -160 135q0 27 6 59l131 674q17 88 124 138q-88 50 -70 139l128 662q38 194 230 194zM290 92q78 0 94 82l131 674q12 64 -18 78q-14 6 -42 6h-5
q-29 0 -45 -6q-34 -14 -46 -78l-131 -674q-16 -82 61 -82h1zM488 1044q25 0 39 8q30 14 42 74l128 661q16 82 -62 83h-1q-77 -1 -93 -83l-128 -661q-12 -60 11 -74q12 -8 37 -8h27z" />
    <glyph glyph-name="nine" unicode="9" 
d="M521 887q-71 -54 -124 -54q-10 0 -21 1q-62 6 -88 44q-30 39 -9 145l148 764q38 194 230 194q159 0 159 -135q0 -27 -6 -59l-313 -1612q-38 -195 -229 -195q-160 0 -160 136q0 27 6 59l87 450h114l-87 -450q-16 -83 61 -83h1q77 0 93 83zM393 1023q-13 -64 16 -77
q13 -7 43 -7h14q66 3 82 84l148 764q16 82 -61 82q-78 0 -94 -82z" />
    <glyph glyph-name="colon" unicode=":" horiz-adv-x="295" 
d="M318 1226h135l-26 -135h-135zM107 141h135l-26 -135h-135z" />
    <glyph glyph-name="semicolon" unicode=";" horiz-adv-x="308" 
d="M107 142h148l-25 -129l-84 -171h-64l62 165h-63zM318 1227h135l-26 -135h-135z" />
    <glyph glyph-name="semicolon" unicode="&#x37e;" horiz-adv-x="308" 
d="M107 142h148l-25 -129l-84 -171h-64l62 165h-63zM318 1227h135l-26 -135h-135z" />
    <glyph glyph-name="less" unicode="&#x3c;" horiz-adv-x="540" 
d="M283 1044l421 212l-20 -104l-349 -171l283 -168l-20 -104l-340 206z" />
    <glyph glyph-name="equal" unicode="=" horiz-adv-x="540" 
d="M285 1055l17 87h380l-17 -87h-380zM239 820l17 87h380l-17 -87h-380z" />
    <glyph glyph-name="greater" unicode="&#x3e;" horiz-adv-x="540" 
d="M638 914l-420 -206l20 104l348 168l-282 171l20 104l339 -212z" />
    <glyph glyph-name="question" unicode="?" 
d="M165 135h135l-26 -135h-135zM629 855q-23 -120 -139 -216q-125 -105 -141 -186l-34 -175h-114l36 187q24 119 139 214q125 105 140 180l183 943q16 82 -61 82h-1q-77 0 -93 -82l-91 -468h-114l91 468q38 194 230 194q159 0 159 -135q0 -27 -6 -59z" />
    <glyph glyph-name="at" unicode="@" horiz-adv-x="751" 
d="M887 1116q-24 -123 -144 -123h-71l-101 -521q-24 -123 -145 -123q-120 0 -96 123l90 461q24 123 144 123h57l80 415q12 59 -44 59h-1q-56 0 -68 -59l-4 -20h-64l4 20q24 122 144 122q121 0 97 -122l-80 -415h71q56 0 67 60l71 361q43 225 -188 225q-230 0 -275 -232
l-195 -1004q-44 -225 186 -225q231 0 276 231l1 6h65l-1 -6q-57 -294 -353 -294q-248 0 -248 203q0 39 9 85l195 1004q57 294 352 294q249 0 249 -202q0 -37 -9 -82zM543 993q-56 0 -67 -60l-90 -461q-12 -60 44 -60q57 0 69 60l101 521h-57z" />
    <glyph glyph-name="A" unicode="A" horiz-adv-x="521" 
d="M273 502l-128 -501h-115l180 688l347 1272h169l-147 -1270l-88 -690h-115l66 501h-169zM457 614l165 1251l-321 -1251h156z" />
    <glyph glyph-name="B" unicode="B" horiz-adv-x="533" 
d="M461 1961h206q146 0 146 -131q0 -28 -7 -62l-125 -648q-18 -88 -125 -138q88 -50 71 -139l-126 -649q-38 -193 -224 -193h-197zM554 1851l-158 -813h60q33 0 48 5q51 19 63 77l125 648q17 83 -60 83h-78zM374 926l-158 -814h78q77 0 93 82l126 649q11 58 -33 77
q-13 6 -46 6h-60z" />
    <glyph glyph-name="C" unicode="C" horiz-adv-x="533" 
d="M609 1336l87 451q16 82 -61 82h-1q-77 0 -93 -82l-313 -1612q-16 -83 61 -83q78 0 94 83l87 450h114l-87 -450q-38 -194 -230 -195q-159 0 -159 136q0 27 6 59l313 1612q38 194 229 194q160 0 160 -135q0 -27 -6 -59l-87 -451h-114z" />
    <glyph glyph-name="D" unicode="D" horiz-adv-x="533" 
d="M461 1961h206q146 0 146 -131q0 -28 -7 -62l-305 -1574q-38 -193 -224 -193h-197zM554 1851l-338 -1739h78q77 0 93 82l305 1574q17 83 -60 83h-78z" />
    <glyph glyph-name="E" unicode="E" horiz-adv-x="462" 
d="M461 1961h342l-21 -110h-228l-158 -813h197l-22 -112h-197l-158 -814h228l-22 -111h-342z" />
    <glyph glyph-name="F" unicode="F" horiz-adv-x="462" 
d="M593 1038l-22 -112h-197l-180 -925h-114l381 1960h342l-21 -110h-228l-158 -813h197z" />
    <glyph glyph-name="G" unicode="G" horiz-adv-x="533" 
d="M665 1038l-168 -863q-38 -194 -230 -195q-159 0 -159 136q0 27 6 59l313 1613q38 194 229 194q160 0 160 -135q0 -27 -6 -59l-87 -452h-114l87 452q16 82 -61 82h-1q-77 0 -93 -82l-313 -1613q-16 -83 61 -83q78 0 94 83l146 751h-64l22 112h178z" />
    <glyph glyph-name="H" unicode="H" 
d="M551 1038l179 923h114l-381 -1960h-114l180 925h-155l-180 -925h-114l381 1960h114l-179 -923h155z" />
    <glyph glyph-name="I" unicode="I" horiz-adv-x="284" 
d="M466 1961h114l-381 -1960h-114z" />
    <glyph glyph-name="J" unicode="J" horiz-adv-x="523" 
d="M181 626h114l-87 -451q-16 -83 62 -83q77 0 93 83l347 1787h114l-347 -1787q-38 -195 -229 -195q-160 1 -160 136q0 27 6 59z" />
    <glyph glyph-name="K" unicode="K" horiz-adv-x="527" 
d="M493 981l4 -980h-123l8 966l-188 -966h-114l381 1960h114l-187 -960l367 960h123z" />
    <glyph glyph-name="L" unicode="L" horiz-adv-x="452" 
d="M80 1l381 1960h114l-359 -1849h228l-22 -111h-342z" />
    <glyph glyph-name="M" unicode="M" horiz-adv-x="755" 
d="M341 1l147 1538l-299 -1538h-109l381 1960h166l-187 -1662l449 1662h167l-381 -1960h-109l299 1539l-451 -1539h-73z" />
    <glyph glyph-name="N" unicode="N" 
d="M736 1961h108l-381 -1960h-73l65 1400l-272 -1400h-103l381 1960h74l-72 -1404z" />
    <glyph glyph-name="O" unicode="O" horiz-adv-x="523" 
d="M487 175q-38 -194 -230 -195q-159 0 -159 136q0 27 6 59l313 1612q38 194 229 194q160 0 160 -135q0 -27 -6 -59zM686 1787q16 82 -61 82h-1q-77 0 -93 -82l-313 -1612q-16 -83 61 -83q78 0 94 83z" />
    <glyph glyph-name="P" unicode="P" horiz-adv-x="515" 
d="M461 1961h194q145 0 145 -130q0 -29 -7 -63l-125 -647q-28 -143 -163 -184q-32 -10 -93 -10h-38l-180 -926h-114zM554 1851l-158 -812h47q34 0 48 5q52 19 64 77l125 647q17 83 -60 83h-66z" />
    <glyph glyph-name="Q" unicode="Q" 
d="M697 1789q16 82 -61 82h-1q-77 0 -93 -82l-316 -1625q-16 -83 61 -83q78 0 94 83zM298 -29q-5 -61 147 -62l-17 -89q-109 0 -149 24q-48 27 -31 125q-142 12 -142 139q0 25 6 56l316 1625q38 194 229 194q160 0 160 -135q0 -27 -6 -59l-316 -1625q-33 -169 -197 -193z
" />
    <glyph glyph-name="R" unicode="R" horiz-adv-x="516" 
d="M554 1851l-158 -812h47q34 0 48 5q52 19 64 77l125 647q17 83 -60 83h-66zM536 948l-40 -947h-127l56 926h-51l-180 -926h-114l381 1960h194q145 0 145 -130q0 -29 -7 -63l-125 -647q-24 -121 -132 -173z" />
    <glyph glyph-name="S" unicode="S" horiz-adv-x="523" 
d="M305 625l-87 -450q-16 -83 62 -83q77 0 93 83l117 601q15 80 -105 181q-112 91 -86 221l118 610q38 194 229 194q160 0 160 -135q0 -27 -6 -59l-88 -452h-114l88 452q16 82 -61 82h-1q-77 0 -93 -82l-118 -607q-14 -75 106 -176q111 -91 87 -217l-119 -613
q-38 -195 -229 -195q-160 1 -160 136q0 27 6 59l87 450h114z" />
    <glyph glyph-name="T" unicode="T" horiz-adv-x="443" 
d="M794 1961l-21 -110h-135l-360 -1850h-113l360 1850h-135l21 110h383z" />
    <glyph glyph-name="U" unicode="U" 
d="M497 175q-38 -194 -230 -195q-159 0 -159 136q0 27 6 59l347 1787h114l-347 -1787q-16 -83 61 -83q78 0 94 83l347 1787h114z" />
    <glyph glyph-name="V" unicode="V" horiz-adv-x="521" 
d="M345 1h-169l147 1272l88 688h115l-248 -1865l479 1865h115l-180 -690z" />
    <glyph glyph-name="W" unicode="W" horiz-adv-x="866" 
d="M713 1441l-368 -1440h-169l147 1272l88 688h115l-248 -1866l478 1866h116l-249 -1866l479 1866h115l-180 -690l-347 -1270h-169z" />
    <glyph glyph-name="X" unicode="X" horiz-adv-x="500" 
d="M525 1961l-42 -765l254 765h114l-353 -979l-28 -981h-114l49 793l-261 -793h-114l354 981l27 979h114z" />
    <glyph glyph-name="Y" unicode="Y" horiz-adv-x="525" 
d="M532 1961l-59 -882l282 882h121l-387 -1112l-9 -25l-160 -823h-114l160 823l1 25l44 1112h121z" />
    <glyph glyph-name="Z" unicode="Z" horiz-adv-x="415" 
d="M734 1891l-542 -1779h205l-22 -111h-335l14 70l543 1780h-190l21 110h320z" />
    <glyph glyph-name="bracketleft" unicode="[" horiz-adv-x="326" 
d="M657 2114l-17 -88h-78l-406 -2088h78l-17 -89h-166l440 2265h166z" />
    <glyph glyph-name="backslash" unicode="\" horiz-adv-x="285" 
d="M471 1961l-186 -1960h-89l185 1960h90z" />
    <glyph glyph-name="bracketright" unicode="]" horiz-adv-x="326" 
d="M657 2114l-17 -88h-78l-406 -2088h78l-17 -89h-166l440 2265h166z" />
    <glyph glyph-name="asciicircum" unicode="^" horiz-adv-x="600" 
d="M737 1967l92 -379h-96l-70 285l-178 -285h-96l239 379h109z" />
    <glyph glyph-name="underscore" unicode="_" horiz-adv-x="493" 
d="M-38 -198l15 77h493l-15 -77h-493z" />
    <glyph glyph-name="grave" unicode="`" horiz-adv-x="286" 
d="M470 2014h72l36 -99h-46z" />
    <glyph glyph-name="a" unicode="a" horiz-adv-x="521" 
d="M262 444l-117 -443h-115l164 608l319 1125h169l-118 -1123l-73 -610h-115l55 443h-169zM443 543l137 1106l-293 -1106h156z" />
    <glyph glyph-name="b" unicode="b" horiz-adv-x="533" 
d="M417 1734h206q149 0 149 -121q0 -23 -5 -50l-112 -573q-15 -78 -121 -122q89 -44 74 -123l-112 -573q-33 -171 -219 -171h-197zM512 1636l-140 -718h60q33 0 48 4q51 17 61 68l112 573q14 73 -63 73h-78zM353 819l-140 -720h78q77 0 91 73l112 573q10 52 -35 68
q-13 6 -46 6h-60z" />
    <glyph glyph-name="c" unicode="c" horiz-adv-x="533" 
d="M578 1179l77 398q15 73 -62 73h-1q-77 0 -92 -73l-277 -1425q-14 -73 63 -73q78 0 92 73l78 398h114l-78 -398q-33 -171 -225 -172q-163 0 -163 125q0 22 5 47l277 1425q34 172 225 172q163 0 163 -124q0 -22 -5 -48l-77 -398h-114z" />
    <glyph glyph-name="d" unicode="d" horiz-adv-x="533" 
d="M417 1734h206q149 0 149 -121q0 -23 -5 -50l-271 -1391q-33 -171 -219 -171h-197zM512 1636l-299 -1537h78q77 0 91 73l271 1391q14 73 -63 73h-78z" />
    <glyph glyph-name="e" unicode="e" horiz-adv-x="462" 
d="M417 1734h342l-19 -98h-228l-140 -718h197l-19 -99h-197l-140 -720h228l-19 -98h-342z" />
    <glyph glyph-name="f" unicode="f" horiz-adv-x="462" 
d="M569 918l-19 -99h-197l-159 -818h-114l337 1733h342l-19 -98h-228l-140 -718h197z" />
    <glyph glyph-name="g" unicode="g" horiz-adv-x="533" 
d="M641 915l-149 -763q-33 -171 -225 -172q-163 0 -163 125q0 22 5 47l278 1426q33 172 224 172q164 0 164 -125q0 -22 -5 -47l-78 -399h-114l78 399q14 73 -63 73h-1q-77 0 -91 -73l-278 -1426q-14 -73 63 -73q78 0 92 73l130 664h-64l19 99h178z" />
    <glyph glyph-name="h" unicode="h" 
d="M527 918l159 816h114l-337 -1733h-114l159 818h-155l-159 -818h-114l337 1733h114l-159 -816h155z" />
    <glyph glyph-name="i" unicode="i" horiz-adv-x="284" 
d="M422 1734h114l-337 -1733h-114z" />
    <glyph glyph-name="j" unicode="j" horiz-adv-x="523" 
d="M167 551h114l-78 -399q-14 -73 64 -73q77 0 91 73l307 1580h114l-307 -1580q-33 -172 -224 -172q-164 1 -164 126q0 21 5 46z" />
    <glyph glyph-name="k" unicode="k" horiz-adv-x="527" 
d="M471 867l26 -866h-123l-14 854l-166 -854h-114l337 1733h114l-165 -849l345 849h123z" />
    <glyph glyph-name="l" unicode="l" horiz-adv-x="452" 
d="M80 1l337 1733h114l-318 -1635h228l-19 -98h-342z" />
    <glyph glyph-name="m" unicode="m" horiz-adv-x="755" 
d="M341 1l112 1360l-264 -1360h-109l337 1733h166l-150 -1470l412 1470h167l-337 -1733h-109l264 1360l-416 -1360h-73z" />
    <glyph glyph-name="n" unicode="n" 
d="M692 1734h108l-337 -1733h-73l34 1238l-241 -1238h-103l337 1733h74l-40 -1241z" />
    <glyph glyph-name="o" unicode="o" horiz-adv-x="523" 
d="M482 152q-33 -171 -225 -172q-163 0 -163 125q0 22 5 47l277 1425q34 172 225 172q163 0 163 -124q0 -22 -5 -48zM645 1577q15 73 -62 73h-1q-77 0 -92 -73l-277 -1425q-14 -73 63 -73q78 0 92 73z" />
    <glyph glyph-name="p" unicode="p" horiz-adv-x="515" 
d="M417 1734h194q148 0 148 -121q0 -23 -5 -50l-112 -572q-24 -126 -158 -163q-32 -8 -93 -8h-38l-159 -819h-114zM512 1636l-140 -717h47q34 0 48 4q53 17 62 68l112 572q14 73 -63 73h-66z" />
    <glyph glyph-name="q" unicode="q" 
d="M652 1561q14 72 -63 72h-1q-77 0 -91 -72l-279 -1437q-14 -73 63 -73q78 0 92 73zM295 -47q-5 -53 148 -54l-15 -79q-109 0 -150 21q-48 24 -34 111q-145 11 -145 127q0 21 5 45l279 1437q33 171 224 171q164 0 164 -125q0 -21 -5 -46l-279 -1437q-29 -149 -192 -171z
" />
    <glyph glyph-name="r" unicode="r" horiz-adv-x="516" 
d="M512 1636l-140 -717h47q34 0 48 4q53 17 62 68l112 572q14 73 -63 73h-66zM515 838l-19 -837h-127l35 819h-51l-159 -819h-114l337 1733h194q148 0 148 -121q0 -23 -5 -50l-112 -572q-20 -107 -127 -153z" />
    <glyph glyph-name="s" unicode="s" horiz-adv-x="523" 
d="M291 550l-78 -398q-14 -73 64 -73q77 0 91 73l104 532q13 70 -109 160q-114 80 -91 195l104 539q34 172 225 172q163 0 163 -124q0 -22 -5 -48l-77 -399h-114l77 399q15 73 -62 73h-1q-77 0 -92 -73l-104 -536q-13 -67 110 -156q113 -80 92 -192l-106 -542
q-33 -172 -224 -172q-164 1 -164 126q0 21 5 46l78 398h114z" />
    <glyph glyph-name="t" unicode="t" horiz-adv-x="443" 
d="M750 1734l-19 -98h-135l-318 -1635h-113l318 1635h-135l19 98h383z" />
    <glyph glyph-name="u" unicode="u" 
d="M492 152q-33 -171 -225 -172q-163 0 -163 125q0 22 5 47l308 1580h114l-308 -1580q-14 -73 63 -73q78 0 92 73l308 1580h114z" />
    <glyph glyph-name="v" unicode="v" horiz-adv-x="521" 
d="M345 1h-169l118 1124l73 609h115l-206 -1649l437 1649h115l-165 -610z" />
    <glyph glyph-name="w" unicode="w" horiz-adv-x="866" 
d="M680 1274l-335 -1273h-169l118 1124l73 609h115l-206 -1650l436 1650h116l-207 -1650l437 1650h115l-165 -610l-318 -1123h-169z" />
    <glyph glyph-name="x" unicode="x" horiz-adv-x="500" 
d="M481 1734l-25 -677l237 677h114l-331 -866l-6 -867h-114l31 701l-243 -701h-114l332 867l5 866h114z" />
    <glyph glyph-name="y" unicode="y" horiz-adv-x="525" 
d="M488 1734l-40 -780l263 780h121l-362 -983l-8 -22l-142 -728h-114l142 728v22l19 983h121z" />
    <glyph glyph-name="z" unicode="z" horiz-adv-x="415" 
d="M692 1672l-503 -1573h205l-19 -98h-335l12 62l503 1573h-190l19 98h320z" />
    <glyph glyph-name="braceleft" unicode="{" horiz-adv-x="518" 
d="M333 -150q-139 2 -139 131q0 29 7 63l158 811q16 81 -41 82l17 89q57 1 73 82l157 806q37 191 206 193l-17 -87q-56 -2 -72 -83l-156 -805q-19 -96 -73 -150q33 -55 14 -151l-157 -811q-16 -81 40 -82z" />
    <glyph glyph-name="bar" unicode="|" horiz-adv-x="483" 
d="M596 2049h87l-465 -2392h-87z" />
    <glyph glyph-name="braceright" unicode="}" horiz-adv-x="518" 
d="M124 -62q57 1 73 82l158 811q18 96 73 151q-33 54 -15 150l157 805q15 81 -41 83l17 87q139 -2 139 -130q0 -29 -7 -63l-156 -806q-16 -81 40 -82l-18 -89q-56 -1 -72 -82l-157 -811q-38 -192 -208 -194z" />
    <glyph glyph-name="asciitilde" unicode="~" horiz-adv-x="574" 
d="M321 931l-52 39l25 29q59 71 118 71h5q39 -2 96 -51q32 -28 60 -28q23 0 41 18l27 28l46 -44l-27 -28q-51 -52 -101 -52h-6q-40 2 -94 50q-36 32 -50 35h-6q-25 0 -57 -37z" />
    <glyph glyph-name="exclamdown" unicode="&#xa1;" horiz-adv-x="295" 
d="M29 -263l346 1723h113l-324 -1723h-135zM525 1594h-135l26 135h135z" />
    <glyph glyph-name="cent" unicode="&#xa2;" horiz-adv-x="518" 
d="M576 1857l34 176h87l-34 -176q107 -22 107 -127q0 -24 -6 -52l-82 -422h-105l82 422q15 78 -58 78h-1q-74 0 -89 -78l-294 -1514q-16 -80 58 -80t90 80l82 421h105l-82 -421q-30 -152 -171 -180l-27 -139h-87l27 138q-106 23 -106 128q0 24 6 53l294 1514q30 152 170 179
z" />
    <glyph glyph-name="sterling" unicode="&#xa3;" horiz-adv-x="610" 
d="M468 1011l-145 -746q-17 -85 -74 -153h274l-22 -112h-441l22 112h20q78 0 94 83l159 816h-98l9 50h98l145 744q38 194 229 194q159 0 159 -135q0 -27 -6 -59l-23 -119h-113l23 119q16 82 -62 82h-1q-77 0 -93 -82l-145 -744h169l-9 -50h-169z" />
    <glyph glyph-name="currency" unicode="&#xa4;" horiz-adv-x="694" 
d="M716 909q-5 -27 -15 -59l63 -80l-77 -65l-44 55q-64 -45 -156 -45t-139 45l-65 -55l-53 65l97 80q2 31 7 59l26 136q5 24 13 50l-64 80l78 65l41 -50q64 49 161 49q96 0 142 -49l60 50l52 -65l-94 -80q-2 -26 -7 -50zM629 1045q16 82 -62 82h-1q-77 0 -93 -82l-26 -136
q-16 -82 62 -82t94 82z" />
    <glyph glyph-name="yen" unicode="&#xa5;" horiz-adv-x="525" 
d="M476 802h132l-10 -49h-132l-146 -752h-114l146 752h-133l10 49h133l4 22l1 25l2 65h-119l10 50h111l40 997h121l-59 -882l282 882h121l-347 -997h110l-10 -50h-118l-22 -65l-9 -25z" />
    <glyph glyph-name="brokenbar" unicode="&#xa6;" horiz-adv-x="483" 
d="M556 1843h87l-152 -784h-87zM350 783h87l-152 -782h-87z" />
    <glyph glyph-name="section" unicode="&#xa7;" horiz-adv-x="523" 
d="M510 881q16 82 -61 82h-1q-77 0 -93 -82l-46 -238q-17 -83 61 -83q77 0 94 83zM513 1109q-47 55 -82 85q-112 90 -86 221l74 385q38 194 229 194q160 0 160 -135q0 -27 -6 -59l-37 -190h-114l37 190q17 83 -60 83h-1q-77 0 -94 -83l-74 -382q-14 -75 106 -176
q111 -91 87 -217l-68 -347q-33 -170 -215 -196q32 -31 41 -38q111 -91 87 -217l-71 -365q-38 -195 -229 -195q-160 1 -160 136q0 27 6 59l45 234h114l-45 -234q-17 -84 61 -84q77 0 94 84l68 353q16 80 -104 181q-112 91 -87 221l60 307q47 184 264 185z" />
    <glyph glyph-name="dieresis" unicode="&#xa8;" horiz-adv-x="454" 
d="M470 2007h92l-18 -93h-92zM671 2007h93l-18 -93h-93z" />
    <glyph glyph-name="copyright" unicode="&#xa9;" horiz-adv-x="855" 
d="M849 327q-69 -354 -427 -354q-301 0 -301 246q0 46 11 101l256 1316q69 355 426 355q302 0 302 -246q0 -46 -11 -101zM1021 1644q52 266 -222 266t-328 -274l-256 -1316q-51 -266 223 -266t327 273zM641 325q-29 -152 -179 -152q-149 0 -120 152l256 1314q29 152 178 152
q150 0 121 -152l-59 -305h-85l59 305q13 68 -52 70q-65 0 -78 -70l-256 -1314q-13 -70 52 -70t78 70l72 366h85z" />
    <glyph glyph-name="ordfeminine" unicode="&#xaa;" horiz-adv-x="334" 
d="M331 1146l-74 -283h-60l103 382l200 711h94l-76 -710l-47 -383h-60l36 283h-116zM454 1196l82 704l-192 -704h110zM155 650l12 61h277l-12 -61h-277z" />
    <glyph glyph-name="guillemotleft" unicode="&#xab;" horiz-adv-x="726" 
d="M557 1096l-142 -103l102 -101l-23 -120l-200 228l287 222zM802 1096l-142 -103l102 -101l-23 -120l-200 228l287 222z" />
    <glyph glyph-name="logicalnot" unicode="&#xac;" horiz-adv-x="540" 
d="M249 867l17 88h380l-45 -234h-88l28 146h-292z" />
    <glyph glyph-name="registered" unicode="&#xae;" horiz-adv-x="751" 
d="M722 263q-57 -293 -353 -293q-248 0 -248 203q0 38 9 84l281 1445q57 293 352 293q249 0 249 -202q0 -38 -9 -84zM938 1709q44 224 -187 224q-230 0 -275 -231l-281 -1445q-44 -224 186 -224q231 0 276 230zM605 1818l125 -1h6q113 0 89 -123l-116 -598q-11 -56 -89 -93
q64 -35 53 -92l-148 -763h-65l148 763q8 41 -24 57q-9 4 -33 4h-46l-160 -824h-64zM657 1754l-140 -718h46q24 0 34 4q39 14 47 56l116 598q12 60 -45 60h-58z" />
    <glyph glyph-name="macron" unicode="&#xaf;" horiz-adv-x="743" 
d="M434 1819l15 77h583l-15 -77h-583z" />
    <glyph glyph-name="degree" unicode="&#xb0;" horiz-adv-x="443" 
d="M587 1882q119 0 119 -99q0 -19 -4 -42q-28 -142 -170 -142q-118 0 -118 99q0 19 5 43q27 141 168 141zM575 1819q-78 0 -93 -78q-16 -79 62 -79q79 0 95 79q15 78 -64 78z" />
    <glyph glyph-name="plusminus" unicode="&#xb1;" horiz-adv-x="570" 
d="M408 368h-146l17 89h146l28 145h87l-28 -145h147l-17 -89h-147l-28 -145h-87zM658 103l-17 -89h-379l17 89h379z" />
    <glyph glyph-name="uni00B2" unicode="&#xb2;" horiz-adv-x="370" 
d="M325 1262q14 70 96 121q95 60 106 108l75 389q11 55 -40 55q-52 0 -63 -55l-39 -202h-54l39 202q21 106 127 106q87 0 87 -73q0 -15 -4 -33l-76 -391q-14 -72 -96 -125q-96 -60 -105 -109l-42 -216h156l-10 -51h-210z" />
    <glyph glyph-name="uni00B3" unicode="&#xb3;" horiz-adv-x="373" 
d="M514 1413q8 41 -12 51q-10 5 -28 5h-14l11 52h21q15 0 26 7q20 10 27 48l61 313q8 42 -12 52q-9 5 -28 5q-6 0 -11 -1q-43 -2 -54 -56l-42 -215h-54l42 216q15 76 60 97q35 15 67 15q30 0 60 -14t30 -59q0 -17 -4 -39l-61 -314q-9 -48 -81 -82q59 -33 50 -81l-62 -316
q-13 -69 -51 -92q-25 -16 -73 -16h-6q-43 0 -62 13q-25 16 -25 58q0 16 4 37l44 226h54l-44 -227q-11 -56 42 -56q52 0 63 56z" />
    <glyph glyph-name="acute" unicode="&#xb4;" horiz-adv-x="277" 
d="M499 1913h-47l74 99h72z" />
    <glyph glyph-name="mu" unicode="&#xb5;" 
d="M224 151q-16 -82 61 -82q78 0 94 83l306 1576h114l-306 -1576q-34 -176 -186 -192q-9 -1 -18 -1q-43 0 -95 39l-37 -190h-114l373 1920h114z" />
    <glyph glyph-name="paragraph" unicode="&#xb6;" horiz-adv-x="1147" 
d="M928 1962l-381 -1961h-71l367 1889h-145l-367 -1889h-71l229 1178q-108 0 -128 16q-25 22 -7 115l101 515q18 95 53 118q27 19 118 19h302z" />
    <glyph glyph-name="periodcentered" unicode="&#xb7;" horiz-adv-x="510" 
d="M143.647 969.646h114.747l-22.0996 -114.747h-114.747z" />
    <glyph glyph-name="periodcentered" unicode="&#x2219;" horiz-adv-x="510" 
d="M143.647 969.646h114.747l-22.0996 -114.747h-114.747z" />
    <glyph glyph-name="cedilla" unicode="&#xb8;" horiz-adv-x="270" 
d="M95 -63q38 27 62 19q19 -8 19 -25q0 -4 -1 -8l-10 -51q-5 -28 -44 -31q-8 -1 -16 -1h-10q-41 1 -41 25q0 3 1 7h29q-4 -22 22 -22q25 0 29 22l10 51q3 15 -19 14t-35 -21h-24l44 85h27z" />
    <glyph glyph-name="uni00B9" unicode="&#xb9;" horiz-adv-x="368" 
d="M590 1954l-178 -914h78l-10 -52h-208l10 52h78l168 863h-78l10 51h130z" />
    <glyph glyph-name="ordmasculine" unicode="&#xba;" horiz-adv-x="371" 
d="M482 945q-20 -103 -133 -104q-113 0 -92 104l176 909q20 103 133 103q95 0 95 -74q0 -13 -3 -29zM600 1854q11 53 -43 53t-65 -53l-176 -909q-11 -54 43 -54t65 54zM192 628l10 49h231l-10 -49h-231z" />
    <glyph glyph-name="guillemotright" unicode="&#xbb;" horiz-adv-x="726" 
d="M337 1222l201 -222l-288 -228l23 120l142 101l-102 103zM582 1222l201 -222l-288 -228l23 120l142 101l-102 103z" />
    <glyph glyph-name="onequarter" unicode="&#xbc;" horiz-adv-x="827" 
d="M903 967l-134 -686h32l-9 -51h-32l-45 -229h-51l45 229h-168l10 55l274 682h78zM598 281h120l118 607zM1043 1961l-742 -1960h-59l743 1960h58zM591 1961l-178 -914h78l-10 -52h-208l10 52h78l168 864h-78l10 50h130z" />
    <glyph glyph-name="onehalf" unicode="&#xbd;" horiz-adv-x="947" 
d="M1043 1961l-742 -1960h-59l743 1960h58zM591 1961l-178 -914h78l-10 -52h-208l10 52h78l168 864h-78l10 50h130zM710 275q14 70 95 122q97 60 107 107l75 389q11 55 -41 55t-63 -55l-39 -201h-53l39 201q21 107 126 107q88 0 88 -74q0 -15 -4 -33l-76 -391
q-14 -72 -96 -124q-96 -60 -106 -111l-42 -214h157l-10 -52h-210z" />
    <glyph glyph-name="threequarters" unicode="&#xbe;" horiz-adv-x="827" 
d="M903 966l-134 -686h32l-9 -50h-32l-45 -230h-51l45 230h-168l10 55l274 681h78zM598 280h120l118 607zM1043 1961l-742 -1961h-59l743 1961h58zM515 1420q8 41 -12 52q-9 4 -27 4h-14l10 53h21q15 0 26 6q20 10 28 49l61 312q8 42 -12 53q-9 4 -28 4q-6 0 -12 -1
q-43 -2 -53 -56l-42 -215h-54l42 216q15 76 60 97q35 16 67 16q30 0 60 -14q41 -20 26 -99l-61 -313q-10 -49 -81 -83q59 -32 49 -81l-61 -316q-14 -69 -51 -92q-25 -15 -73 -16h-6q-43 0 -63 13q-35 22 -20 95l44 227h54l-45 -228q-10 -55 43 -55q52 0 62 55z" />
    <glyph glyph-name="questiondown" unicode="&#xbf;" horiz-adv-x="573" 
d="M378 1729h-135l26 135h135zM-86 1009q23 120 139 216q125 105 141 186l34 175h114l-36 -187q-24 -119 -139 -214q-125 -105 -140 -180l-183 -943q-16 -82 61 -82h1q77 0 93 82l91 468h114l-91 -468q-38 -194 -230 -194q-159 0 -159 135q0 27 6 59z" />
    <glyph glyph-name="Agrave" unicode="&#xc0;" horiz-adv-x="553" 
d="M273 502l-128 -501h-115l180 688l347 1272h169l-147 -1270l-88 -690h-115l66 501h-169zM457 614l165 1251l-321 -1251h156zM561 2132h72l36 -99h-46z" />
    <glyph glyph-name="Aacute" unicode="&#xc1;" horiz-adv-x="553" 
d="M273 502l-128 -501h-115l180 688l347 1272h169l-147 -1270l-88 -690h-115l66 501h-169zM457 614l165 1251l-321 -1251h156zM643 2031h-47l74 99h72z" />
    <glyph glyph-name="Acircumflex" unicode="&#xc2;" horiz-adv-x="553" 
d="M273 502l-128 -501h-115l180 688l347 1272h169l-147 -1270l-88 -690h-115l66 501h-169zM457 614l165 1251l-321 -1251h156zM489 2033l102 98h120l65 -98h-71l-63 51l-83 -51h-70z" />
    <glyph glyph-name="Atilde" unicode="&#xc3;" horiz-adv-x="553" 
d="M273 502l-128 -501h-115l180 688l347 1272h169l-147 -1270l-88 -690h-115l66 501h-169zM457 614l165 1251l-321 -1251h156zM521 2028l-39 23l16 22q41 61 88 64h2q30 0 74 -31q25 -19 47 -19q23 0 37 18l19 22l35 -27l-18 -22q-37 -45 -77 -48h-3q-30 0 -73 31
q-32 23 -41 25h-4q-23 0 -49 -36z" />
    <glyph glyph-name="Adieresis" unicode="&#xc4;" horiz-adv-x="553" 
d="M273 502l-128 -501h-115l180 688l347 1272h169l-147 -1270l-88 -690h-115l66 501h-169zM457 614l165 1251l-321 -1251h156zM503 2125h92l-18 -93h-92zM704 2125h93l-18 -93h-93z" />
    <glyph glyph-name="Aring" unicode="&#xc5;" horiz-adv-x="553" 
d="M273 502l-128 -501h-115l180 688l347 1272h169l-147 -1270l-88 -690h-115l66 501h-169zM457 614l165 1251l-321 -1251h156zM665 2204q73 0 73 -61q0 -11 -2 -24q-17 -86 -104 -86q-71 0 -71 60q0 12 3 26q16 85 101 85zM660 2175q-56 0 -67 -56q-11 -57 45 -57
q57 0 68 57q11 56 -46 56z" />
    <glyph glyph-name="AE" unicode="&#xc6;" horiz-adv-x="663" 
d="M1004 1961l-21 -110h-229l-158 -813h197l-22 -112h-197l-158 -814h229l-22 -111h-342l97 501h-105l-128 -501h-115l180 688l347 1272h447zM580 1540l42 325l-321 -1251h99z" />
    <glyph glyph-name="Ccedilla" unicode="&#xc7;" horiz-adv-x="533" 
d="M237 -19q-129 12 -129 135q0 27 6 59l313 1612q38 194 229 194q160 0 160 -135q0 -27 -6 -59l-88 -451h-114l88 451q16 82 -61 82h-1q-77 0 -93 -82l-313 -1612q-16 -83 61 -83q78 0 94 83l87 450h114l-87 -450q-38 -194 -230 -195h-6l-29 -43q38 27 61 18.5t19 -32.5
l-10 -51q-6 -28 -44 -31q-8 -1 -16 -1h-10q-46 1 -40 32h29q-4 -22 22 -22q25 0 29 22l10 51q3 15 -19 14t-36 -21h-24z" />
    <glyph glyph-name="Egrave" unicode="&#xc8;" horiz-adv-x="492" 
d="M461 1961h342l-21 -110h-228l-158 -813h197l-22 -112h-197l-158 -814h228l-22 -111h-342zM551 2132h72l36 -99h-46z" />
    <glyph glyph-name="Eacute" unicode="&#xc9;" horiz-adv-x="492" 
d="M461 1961h342l-21 -110h-228l-158 -813h197l-22 -112h-197l-158 -814h228l-22 -111h-342zM634 2031h-47l74 99h72z" />
    <glyph glyph-name="Ecircumflex" unicode="&#xca;" horiz-adv-x="492" 
d="M461 1961h342l-21 -110h-228l-158 -813h197l-22 -112h-197l-158 -814h228l-22 -111h-342zM480 2033l102 98h120l65 -98h-71l-63 51l-83 -51h-70z" />
    <glyph glyph-name="Edieresis" unicode="&#xcb;" horiz-adv-x="492" 
d="M461 1961h342l-21 -110h-228l-158 -813h197l-22 -112h-197l-158 -814h228l-22 -111h-342zM494 2125h92l-18 -93h-92zM695 2125h93l-18 -93h-93z" />
    <glyph glyph-name="Igrave" unicode="&#xcc;" horiz-adv-x="314" 
d="M449 1961h114l-381 -1960h-114zM426 2132h72l36 -99h-46z" />
    <glyph glyph-name="Iacute" unicode="&#xcd;" horiz-adv-x="313" 
d="M466 1961h114l-381 -1960h-114zM524 2031h-47l74 99h72z" />
    <glyph glyph-name="Icircumflex" unicode="&#xce;" horiz-adv-x="316" 
d="M450 1961h114l-381 -1960h-114zM354 2033l102 98h120l65 -98h-71l-63 51l-83 -51h-70z" />
    <glyph glyph-name="Idieresis" unicode="&#xcf;" horiz-adv-x="316" 
d="M467 1961h114l-381 -1960h-114zM386 2125h92l-18 -93h-92zM587 2125h93l-18 -93h-93z" />
    <glyph glyph-name="Eth" unicode="&#xd0;" horiz-adv-x="534" 
d="M378 943l-161 -831h78q77 0 93 82l305 1574q17 83 -60 83h-78l-162 -831h58l-15 -77h-58zM279 1020l183 941h206q146 0 146 -131q0 -28 -7 -62l-305 -1574q-38 -193 -224 -193h-197l183 942h-79l15 77h79z" />
    <glyph glyph-name="Ntilde" unicode="&#xd1;" horiz-adv-x="573" 
d="M736 1961h108l-381 -1960h-73l65 1400l-272 -1400h-103l381 1960h74l-72 -1404zM533 2028l-39 23l16 22q41 61 88 64h2q30 0 74 -31q25 -19 47 -19q23 0 37 18l19 22l35 -27l-18 -22q-37 -45 -77 -48h-3q-30 0 -73 31q-32 23 -41 25h-4q-23 0 -49 -36z" />
    <glyph glyph-name="Ograve" unicode="&#xd2;" horiz-adv-x="553" 
d="M487 175q-38 -194 -230 -195q-159 0 -159 136q0 27 6 59l313 1612q38 194 229 194q160 0 160 -135q0 -27 -6 -59zM686 1787q16 82 -61 82h-1q-77 0 -93 -82l-313 -1612q-16 -83 61 -83q78 0 94 83zM562 2132h72l36 -99h-46z" />
    <glyph glyph-name="Oacute" unicode="&#xd3;" horiz-adv-x="553" 
d="M487 175q-38 -194 -230 -195q-159 0 -159 136q0 27 6 59l313 1612q38 194 229 194q160 0 160 -135q0 -27 -6 -59zM686 1787q16 82 -61 82h-1q-77 0 -93 -82l-313 -1612q-16 -83 61 -83q78 0 94 83zM644 2031h-47l74 99h72z" />
    <glyph glyph-name="Ocircumflex" unicode="&#xd4;" horiz-adv-x="553" 
d="M487 175q-38 -194 -230 -195q-159 0 -159 136q0 27 6 59l313 1612q38 194 229 194q160 0 160 -135q0 -27 -6 -59zM686 1787q16 82 -61 82h-1q-77 0 -93 -82l-313 -1612q-16 -83 61 -83q78 0 94 83zM490 2033l102 98h120l65 -98h-71l-63 51l-83 -51h-70z" />
    <glyph glyph-name="Otilde" unicode="&#xd5;" horiz-adv-x="553" 
d="M487 175q-38 -194 -230 -195q-159 0 -159 136q0 27 6 59l313 1612q38 194 229 194q160 0 160 -135q0 -27 -6 -59zM686 1787q16 82 -61 82h-1q-77 0 -93 -82l-313 -1612q-16 -83 61 -83q78 0 94 83zM523 2028l-39 23l16 22q41 61 88 64h2q30 0 74 -31q25 -19 47 -19
q23 0 37 18l19 22l35 -27l-18 -22q-37 -45 -77 -48h-3q-30 0 -73 31q-32 23 -41 25h-4q-23 0 -49 -36z" />
    <glyph glyph-name="Odieresis" unicode="&#xd6;" horiz-adv-x="553" 
d="M487 175q-38 -194 -230 -195q-159 0 -159 136q0 27 6 59l313 1612q38 194 229 194q160 0 160 -135q0 -27 -6 -59zM686 1787q16 82 -61 82h-1q-77 0 -93 -82l-313 -1612q-16 -83 61 -83q78 0 94 83zM505 2125h92l-18 -93h-92zM706 2125h93l-18 -93h-93z" />
    <glyph glyph-name="multiply" unicode="&#xd7;" horiz-adv-x="491" 
d="M408 831l-123 -103l-51 62l124 104l-83 103l74 61l82 -102l124 103l50 -62l-123 -104l82 -103l-73 -61z" />
    <glyph glyph-name="Oslash" unicode="&#xd8;" horiz-adv-x="523" 
d="M232 104q24 -12 47 -12q78 0 94 83l212 1093zM674 1854q-24 15 -49 15h-1q-77 0 -93 -82l-217 -1119zM487 175q-38 -194 -230 -195q-159 0 -159 136q0 27 6 59l313 1612q38 194 229 194q160 0 160 -135q0 -27 -6 -59z" />
    <glyph glyph-name="Ugrave" unicode="&#xd9;" horiz-adv-x="573" 
d="M497 175q-38 -194 -230 -195q-159 0 -159 136q0 27 6 59l347 1787h114l-347 -1787q-16 -83 61 -83q78 0 94 83l347 1787h114zM572 2132h72l36 -99h-46z" />
    <glyph glyph-name="Uacute" unicode="&#xda;" horiz-adv-x="573" 
d="M497 175q-38 -194 -230 -195q-159 0 -159 136q0 27 6 59l347 1787h114l-347 -1787q-16 -83 61 -83q78 0 94 83l347 1787h114zM654 2031h-47l74 99h72z" />
    <glyph glyph-name="Ucircumflex" unicode="&#xdb;" horiz-adv-x="573" 
d="M497 175q-38 -194 -230 -195q-159 0 -159 136q0 27 6 59l347 1787h114l-347 -1787q-16 -83 61 -83q78 0 94 83l347 1787h114zM500 2033l102 98h120l65 -98h-71l-63 51l-83 -51h-70z" />
    <glyph glyph-name="Udieresis" unicode="&#xdc;" horiz-adv-x="573" 
d="M497 175q-38 -194 -230 -195q-159 0 -159 136q0 27 6 59l347 1787h114l-347 -1787q-16 -83 61 -83q78 0 94 83l347 1787h114zM515 2125h92l-18 -93h-92zM716 2125h93l-18 -93h-93z" />
    <glyph glyph-name="Yacute" unicode="&#xdd;" horiz-adv-x="560" 
d="M532 1961l-59 -882l282 882h121l-387 -1112l-9 -25l-160 -823h-114l160 823l1 25l44 1112h121zM646 2031h-47l74 99h72z" />
    <glyph glyph-name="Thorn" unicode="&#xde;" horiz-adv-x="515" 
d="M536 1760h80q145 0 145 -131q0 -29 -7 -63l-125 -646q-28 -144 -163 -185q-32 -9 -93 -9h-38l-180 -927h-114l421 2164h114zM357 837h47q34 0 48 5q53 20 64 78l125 646q17 83 -60 83h-66z" />
    <glyph glyph-name="germandbls" unicode="&#xdf;" 
d="M670 1067q-17 -89 -125 -139q89 -49 72 -138l-137 -704q-38 -194 -214 -194l22 111q62 0 78 83l137 704q11 58 -33 77q-14 6 -46 6h-60l-170 -873h-114l350 1801q38 194 229 194q160 0 160 -135q0 -27 -6 -59zM385 984h60q32 0 48 6q52 19 63 77l143 734q16 82 -61 82h-1
q-77 0 -93 -82z" />
    <glyph glyph-name="agrave" unicode="&#xe0;" horiz-adv-x="523" 
d="M262 444l-117 -443h-115l164 608l319 1125h169l-118 -1123l-73 -610h-115l55 443h-169zM443 543l137 1106l-293 -1106h156zM546 2014h72l36 -99h-46z" />
    <glyph glyph-name="aacute" unicode="&#xe1;" horiz-adv-x="523" 
d="M262 444l-117 -443h-115l164 608l319 1125h169l-118 -1123l-73 -610h-115l55 443h-169zM443 543l137 1106l-293 -1106h156zM629 1913h-47l74 99h72z" />
    <glyph glyph-name="acircumflex" unicode="&#xe2;" horiz-adv-x="523" 
d="M262 444l-117 -443h-115l164 608l319 1125h169l-118 -1123l-73 -610h-115l55 443h-169zM443 543l137 1106l-293 -1106h156zM473 1915l102 98h120l65 -98h-71l-63 51l-83 -51h-70z" />
    <glyph glyph-name="atilde" unicode="&#xe3;" horiz-adv-x="523" 
d="M262 444l-117 -443h-115l164 608l319 1125h169l-118 -1123l-73 -610h-115l55 443h-169zM443 543l137 1106l-293 -1106h156zM506 1910l-39 23l16 22q41 61 88 64h2q30 0 74 -31q25 -19 47 -19q23 0 37 18l19 22l35 -27l-18 -22q-37 -45 -77 -48h-3q-30 0 -73 31
q-32 23 -41 25h-4q-23 0 -49 -36z" />
    <glyph glyph-name="adieresis" unicode="&#xe4;" horiz-adv-x="523" 
d="M262 444l-117 -443h-115l164 608l319 1125h169l-118 -1123l-73 -610h-115l55 443h-169zM443 543l137 1106l-293 -1106h156zM488 2007h92l-18 -93h-92zM689 2007h93l-18 -93h-93z" />
    <glyph glyph-name="aring" unicode="&#xe5;" horiz-adv-x="523" 
d="M262 444l-117 -443h-115l164 608l319 1125h169l-118 -1123l-73 -610h-115l55 443h-169zM443 543l137 1106l-293 -1106h156zM650 2086q73 0 73 -61q0 -11 -2 -24q-17 -86 -104 -86q-71 0 -71 60q0 12 3 26q16 85 101 85zM645 2057q-56 0 -67 -56q-11 -57 45 -57
q57 0 68 57q11 56 -46 56z" />
    <glyph glyph-name="ae" unicode="&#xe6;" horiz-adv-x="618" 
d="M350 472h-92l-123 -471h-105l169 646l326 1196h411l-20 -102h-214l-149 -766h185l-20 -104h-185l-149 -766h214l-20 -104h-320zM370 576l147 914l-234 -914h87z" />
    <glyph glyph-name="ccedilla" unicode="&#xe7;" horiz-adv-x="508" 
d="M225 -18q-120 12 -120 127q0 25 6 55l295 1514q35 182 214 182q150 0 150 -127q0 -25 -6 -55l-82 -422h-105l82 422q15 78 -58 78h-1q-74 0 -89 -78l-295 -1514q-15 -79 59 -79t89 79l82 421h105l-82 -421q-35 -182 -214 -183h-7l-30 -44q39 27 62 18.5t19 -32.5l-10 -51
q-6 -28 -44 -31q-9 -1 -17 -1h-10q-45 1 -39 32h29q-5 -22 21 -22q25 0 30 22l10 51q3 15 -19 14t-36 -21h-24z" />
    <glyph glyph-name="egrave" unicode="&#xe8;" horiz-adv-x="470" 
d="M417 1734h342l-19 -98h-228l-140 -718h197l-19 -99h-197l-140 -720h228l-19 -98h-342zM540 2014h72l36 -99h-46z" />
    <glyph glyph-name="eacute" unicode="&#xe9;" horiz-adv-x="470" 
d="M417 1734h342l-19 -98h-228l-140 -718h197l-19 -99h-197l-140 -720h228l-19 -98h-342zM623 1913h-47l74 99h72z" />
    <glyph glyph-name="ecircumflex" unicode="&#xea;" horiz-adv-x="470" 
d="M415 1734h342l-19 -98h-228l-140 -718h197l-19 -99h-197l-140 -720h228l-19 -98h-342zM466 1915l102 98h120l65 -98h-71l-63 51l-83 -51h-70z" />
    <glyph glyph-name="edieresis" unicode="&#xeb;" horiz-adv-x="470" 
d="M417 1734h342l-19 -98h-228l-140 -718h197l-19 -99h-197l-140 -720h228l-19 -98h-342zM482 2007h92l-18 -93h-92zM683 2007h93l-18 -93h-93z" />
    <glyph glyph-name="igrave" unicode="&#xec;" horiz-adv-x="307" 
d="M405 1734h114l-337 -1733h-114zM421 2014h72l36 -99h-46z" />
    <glyph glyph-name="iacute" unicode="&#xed;" horiz-adv-x="306" 
d="M422 1734h114l-337 -1733h-114zM520 1913h-47l74 99h72z" />
    <glyph glyph-name="icircumflex" unicode="&#xee;" horiz-adv-x="309" 
d="M406 1734h114l-337 -1733h-114zM350 1915l102 98h120l65 -98h-71l-63 51l-83 -51h-70z" />
    <glyph glyph-name="idieresis" unicode="&#xef;" horiz-adv-x="309" 
d="M423 1734h114l-337 -1733h-114zM382 2007h92l-18 -93h-92zM583 2007h93l-18 -93h-93z" />
    <glyph glyph-name="eth" unicode="&#xf0;" horiz-adv-x="1029" 
d="M753 1706l-39 60l124 89q-45 31 -88 49l44 84q81 -25 133 -68l97 69l37 -60l-86 -63q70 -125 -1 -488l-236 -1216q-38 -194 -229 -194q-160 0 -160 135q0 27 6 59l139 719q36 183 199 183q48 0 97 -47l85 438q48 249 7 345zM469 162q-16 -82 62 -82q77 0 93 82l139 719
q16 79 -48 82q-7 1 -14 1q-31 0 -47 -7q-33 -14 -46 -76z" />
    <glyph glyph-name="ntilde" unicode="&#xf1;" horiz-adv-x="548" 
d="M692 1734h108l-337 -1733h-73l34 1238l-241 -1238h-103l337 1733h74l-40 -1241zM519 1910l-39 23l16 22q41 61 88 64h2q30 0 74 -31q25 -19 47 -19q23 0 37 18l19 22l35 -27l-18 -22q-37 -45 -77 -48h-3q-30 0 -73 31q-32 23 -41 25h-4q-23 0 -49 -36z" />
    <glyph glyph-name="ograve" unicode="&#xf2;" horiz-adv-x="528" 
d="M482 152q-33 -171 -225 -172q-163 0 -163 125q0 22 5 47l277 1425q34 172 225 172q163 0 163 -124q0 -22 -5 -48zM645 1577q15 73 -62 73h-1q-77 0 -92 -73l-277 -1425q-14 -73 63 -73q78 0 92 73zM549 2014h72l36 -99h-46z" />
    <glyph glyph-name="oacute" unicode="&#xf3;" horiz-adv-x="528" 
d="M482 152q-33 -171 -225 -172q-163 0 -163 125q0 22 5 47l277 1425q34 172 225 172q163 0 163 -124q0 -22 -5 -48zM645 1577q15 73 -62 73h-1q-77 0 -92 -73l-277 -1425q-14 -73 63 -73q78 0 92 73zM632 1913h-47l74 99h72z" />
    <glyph glyph-name="ocircumflex" unicode="&#xf4;" horiz-adv-x="528" 
d="M482 152q-33 -171 -225 -172q-163 0 -163 125q0 22 5 47l277 1425q34 172 225 172q163 0 163 -124q0 -22 -5 -48zM645 1577q15 73 -62 73h-1q-77 0 -92 -73l-277 -1425q-14 -73 63 -73q78 0 92 73zM477 1915l102 98h120l65 -98h-71l-63 51l-83 -51h-70z" />
    <glyph glyph-name="otilde" unicode="&#xf5;" horiz-adv-x="528" 
d="M482 152q-33 -171 -225 -172q-163 0 -163 125q0 22 5 47l277 1425q34 172 225 172q163 0 163 -124q0 -22 -5 -48zM645 1577q15 73 -62 73h-1q-77 0 -92 -73l-277 -1425q-14 -73 63 -73q78 0 92 73zM509 1910l-39 23l16 22q41 61 88 64h2q30 0 74 -31q25 -19 47 -19
q23 0 37 18l19 22l35 -27l-18 -22q-37 -45 -77 -48h-3q-30 0 -73 31q-32 23 -41 25h-4q-23 0 -49 -36z" />
    <glyph glyph-name="odieresis" unicode="&#xf6;" horiz-adv-x="528" 
d="M482 152q-33 -171 -225 -172q-163 0 -163 125q0 22 5 47l277 1425q34 172 225 172q163 0 163 -124q0 -22 -5 -48zM645 1577q15 73 -62 73h-1q-77 0 -92 -73l-277 -1425q-14 -73 63 -73q78 0 92 73zM491 2007h92l-18 -93h-92zM692 2007h93l-18 -93h-93z" />
    <glyph glyph-name="divide" unicode="&#xf7;" horiz-adv-x="569" 
d="M658 1028l-17 -89h-379l17 89h379zM440 1594h135l-26 -135h-135zM229 509h135l-26 -135h-135z" />
    <glyph glyph-name="oslash" unicode="&#xf8;" horiz-adv-x="498" 
d="M217 100q22 -15 48 -15q74 0 90 79l196 1011zM637 1741q-22 15 -46 15h-1q-74 0 -89 -78l-195 -1005zM460 164q-36 -182 -215 -183q-149 0 -149 127q0 25 6 56l294 1514q35 182 214 182q150 0 150 -127q0 -25 -6 -55z" />
    <glyph glyph-name="ugrave" unicode="&#xf9;" horiz-adv-x="548" 
d="M492 152q-33 -171 -225 -172q-163 0 -163 125q0 22 5 47l308 1580h114l-308 -1580q-14 -73 63 -73q78 0 92 73l308 1580h114zM559 2014h72l36 -99h-46z" />
    <glyph glyph-name="uacute" unicode="&#xfa;" horiz-adv-x="548" 
d="M492 152q-33 -171 -225 -172q-163 0 -163 125q0 22 5 47l308 1580h114l-308 -1580q-14 -73 63 -73q78 0 92 73l308 1580h114zM642 1913h-47l74 99h72z" />
    <glyph glyph-name="ucircumflex" unicode="&#xfb;" horiz-adv-x="548" 
d="M492 152q-33 -171 -225 -172q-163 0 -163 125q0 22 5 47l308 1580h114l-308 -1580q-14 -73 63 -73q78 0 92 73l308 1580h114zM487 1915l102 98h120l65 -98h-71l-63 51l-83 -51h-70z" />
    <glyph glyph-name="udieresis" unicode="&#xfc;" horiz-adv-x="548" 
d="M492 152q-33 -171 -225 -172q-163 0 -163 125q0 22 5 47l308 1580h114l-308 -1580q-14 -73 63 -73q78 0 92 73l308 1580h114zM501 2007h92l-18 -93h-92zM702 2007h93l-18 -93h-93z" />
    <glyph glyph-name="yacute" unicode="&#xfd;" horiz-adv-x="529" 
d="M488 1734l-40 -780l263 780h121l-362 -983l-8 -22l-142 -728h-114l142 728v22l19 983h121zM630 1913h-47l74 99h72z" />
    <glyph glyph-name="thorn" unicode="&#xfe;" horiz-adv-x="491" 
d="M620 1843q135 0 135 -123q0 -26 -6 -58l-118 -608q-26 -134 -153 -172q-31 -10 -87 -10h-37l-149 -767h215l-20 -104h-320l358 1842h182zM375 976h46q32 0 44 5q51 18 62 73l118 608q15 79 -60 79h-62z" />
    <glyph glyph-name="ydieresis" unicode="&#xff;" horiz-adv-x="529" 
d="M488 1734l-40 -780l263 780h121l-362 -983l-8 -22l-142 -728h-114l142 728v22l19 983h121zM491 2007h92l-18 -93h-92zM692 2007h93l-18 -93h-93z" />
    <glyph glyph-name="dotlessi" unicode="&#x131;" horiz-adv-x="277" 
d="M422 1734h114l-337 -1733h-114z" />
    <glyph glyph-name="OE" unicode="&#x152;" horiz-adv-x="731" 
d="M365 1q-48 -21 -108 -21q-159 0 -159 136q0 27 6 59l313 1612q38 194 229 194q60 0 99 -20h317l-21 -110h-228l-158 -813h197l-22 -112h-197l-158 -814h228l-22 -111h-316zM686 1787q16 82 -61 82h-1q-77 0 -93 -82l-313 -1612q-16 -83 61 -83q78 0 94 83z" />
    <glyph glyph-name="oe" unicode="&#x153;" horiz-adv-x="693" 
d="M649 1678q15 78 -58 78h-1q-74 0 -89 -78l-294 -1514q-16 -79 58 -79t90 79zM349 1q-46 -20 -104 -20q-149 0 -149 127q0 25 6 56l294 1514q35 182 214 182q54 0 92 -17h299l-20 -102h-215l-149 -766h186l-20 -104h-186l-149 -766h215l-20 -104h-294z" />
    <glyph glyph-name="circumflex" unicode="&#x2c6;" horiz-adv-x="447" 
d="M452 1915l102 98h120l65 -98h-71l-63 51l-83 -51h-70z" />
    <glyph glyph-name="caron" unicode="&#x2c7;" horiz-adv-x="447" 
d="M541 2013l63 -50l83 50h71l-103 -98h-120l-64 98h70z" />
    <glyph glyph-name="uni02C9" unicode="&#x2c9;" horiz-adv-x="454" 
d="M464 1979h294l-12 -63h-294z" />
    <glyph glyph-name="breve" unicode="&#x2d8;" horiz-adv-x="503" 
d="M816 2022q-71 -106 -197 -106h-2q-126 1 -144 106h76q5 -55 85 -55h1q82 0 108 55h73z" />
    <glyph glyph-name="dotaccent" unicode="&#x2d9;" horiz-adv-x="243" 
d="M470 2007h93l-18 -93h-93z" />
    <glyph glyph-name="ring" unicode="&#x2da;" horiz-adv-x="322" 
d="M570 2086q73 0 73 -61q0 -11 -2 -24q-17 -86 -104 -86q-71 0 -71 60q0 12 3 26q16 85 101 85zM565 2057q-56 0 -67 -56q-11 -57 45 -57q57 0 68 57q11 56 -46 56z" />
    <glyph glyph-name="ogonek" unicode="&#x2db;" horiz-adv-x="1024" 
 />
    <glyph glyph-name="tilde" unicode="&#x2dc;" horiz-adv-x="911" 
d="M717 1910l-39 23l16 22q41 61 88 64h2q30 0 74 -31q25 -19 47 -19q23 0 37 18l19 22l35 -27l-18 -22q-37 -45 -77 -48h-3q-30 0 -73 31q-32 23 -41 25h-4q-23 0 -49 -36z" />
    <glyph glyph-name="hungarumlaut" unicode="&#x2dd;" horiz-adv-x="397" 
d="M439 1913h-47l74 99h72zM621 1913h-47l74 99h72z" />
    <glyph glyph-name="endash" unicode="&#x2013;" horiz-adv-x="508" 
d="M177 913l17 89h508l-17 -89h-508z" />
    <glyph glyph-name="emdash" unicode="&#x2014;" horiz-adv-x="961" 
d="M177 913l17 89h961l-17 -89h-961z" />
    <glyph glyph-name="quoteleft" unicode="&#x2018;" horiz-adv-x="307" 
d="M548 1650h-147l25 129l84 171h64l-62 -165h62z" />
    <glyph glyph-name="quoteright" unicode="&#x2019;" horiz-adv-x="307" 
d="M459 1950h147l-25 -129l-83 -171h-64l62 166h-63z" />
    <glyph glyph-name="quotesinglbase" unicode="&#x201a;" horiz-adv-x="308" 
d="M109 149h148l-25 -128l-84 -172h-64l62 166h-63z" />
    <glyph glyph-name="quotedblleft" unicode="&#x201c;" horiz-adv-x="582" 
d="M548 1650h-147l25 129l84 171h64l-62 -165h62zM793 1650h-147l25 129l84 171h64l-62 -165h62z" />
    <glyph glyph-name="quotedblright" unicode="&#x201d;" horiz-adv-x="582" 
d="M459 1950h147l-25 -129l-83 -171h-64l62 166h-63zM704 1950h147l-25 -129l-83 -171h-64l62 166h-63z" />
    <glyph glyph-name="quotedblbase" unicode="&#x201e;" horiz-adv-x="582" 
d="M459 150h147l-25 -129l-83 -171h-64l62 166h-63zM704 150h147l-25 -129l-83 -171h-64l62 166h-63z" />
    <glyph glyph-name="dagger" unicode="&#x2020;" horiz-adv-x="430" 
d="M479 1627l42 215h104l-42 -215h123l-20 -101h-123l-296 -1525h-104l296 1525h-123l20 101h123z" />
    <glyph glyph-name="daggerdbl" unicode="&#x2021;" horiz-adv-x="430" 
d="M479 1627l42 215h104l-42 -215h123l-20 -101h-123l-235 -1213h123l-20 -101h-123l-41 -211h-104l41 211h-123l20 101h123l235 1213h-123l20 101h123z" />
    <glyph glyph-name="bullet" unicode="&#x2022;" horiz-adv-x="499" 
d="M584 1103q29 -37 29 -86q0 -16 -3 -34q-14 -70 -73 -119q-60 -49 -129 -49q-70 0 -112 49q-29 36 -29 84q0 17 4 35q13 71 72 120q60 49 130 49q69 0 111 -49z" />
    <glyph glyph-name="ellipsis" unicode="&#x2026;" horiz-adv-x="2050" 
d="M149 149h135l-26 -135h-135zM832 149h135l-26 -135h-135zM1515 149h135l-26 -135h-135z" />
    <glyph glyph-name="guilsinglleft" unicode="&#x2039;" horiz-adv-x="444" 
d="M557 1096l-142 -103l102 -101l-23 -120l-200 228l287 222z" />
    <glyph glyph-name="guilsinglright" unicode="&#x203a;" horiz-adv-x="444" 
d="M337 1222l201 -222l-288 -228l23 120l142 101l-102 103z" />
    <glyph glyph-name="fraction" unicode="&#x2044;" horiz-adv-x="312" 
d="M742 1961l-742 -1960h-58l743 1960h57z" />
    <glyph glyph-name="fraction" unicode="&#x2215;" horiz-adv-x="312" 
d="M742 1961l-742 -1960h-58l743 1960h57z" />
    <glyph glyph-name="franc" unicode="&#x20a3;" horiz-adv-x="463" 
d="M182 521l280 1440h342l-21 -110h-229l-158 -813h197l-22 -112h-197l-79 -405h181l-15 -76h-181l-86 -444h-113l86 444h-51l15 76h51z" />
    <glyph glyph-name="lira" unicode="&#x20a4;" horiz-adv-x="610" 
d="M660 1133l-9 -50h-169l-35 -176h169l-9 -50h-169l-115 -592q-17 -85 -74 -153h274l-22 -112h-441l22 112h20q78 0 94 83l129 662h-99l9 50h99l35 176h-98l9 50h98l131 672q38 194 229 194q159 0 159 -135q0 -27 -6 -59l-23 -119h-113l23 119q16 82 -62 82h-1
q-77 0 -93 -82l-131 -672h169z" />
    <glyph glyph-name="peseta" unicode="&#x20a7;" horiz-adv-x="1108" 
d="M539 1851l-158 -812h45q30 0 45 5q47 20 58 77l125 647q17 83 -54 83h-61zM749 1740l-120 -619q-28 -143 -151 -184q-29 -10 -82 -10h-37l-180 -926h-99l381 1961h173q119 0 128 -120h357q45 18 101 18q150 0 150 -127q0 -25 -6 -55l-82 -423h-105l82 423q15 79 -58 79
h-1q-75 0 -90 -79l-111 -570q-14 -71 102 -166q103 -85 80 -203l-112 -576q-35 -183 -213 -183q-180 1 -145 183l82 421h104l-82 -421q-15 -79 61 -79q73 0 88 79l110 564q15 76 -100 171q-103 85 -79 207l111 573q5 25 17 62h-89l-338 -1739h-105l338 1739h-80z" />
    <glyph glyph-name="Euro" unicode="&#x20ac;" horiz-adv-x="513" 
d="M402 890l-139 -715q-16 -83 52 -83t84 83l87 450h92l-87 -450q-38 -194 -198 -195q-130 0 -130 128q0 30 7 67l139 715h-86l15 76h86l26 137h-86l15 76h86l118 608q38 194 199 194q129 0 129 -127q0 -30 -7 -67l-87 -451h-92l87 451q16 82 -52 82t-84 -82l-118 -608h174
l-15 -76h-174l-26 -137h174l-15 -76h-174z" />
    <glyph glyph-name="afii61352" unicode="&#x2116;" horiz-adv-x="1856" 
d="M786 1961h108l-381 -1960h-73l65 1400l-272 -1400h-103l381 1960h74l-72 -1404z" />
    <glyph glyph-name="trademark" unicode="&#x2122;" horiz-adv-x="1092" 
d="M735 1720l-16 -84h-121l-133 -683h-99l133 683h-121l16 84h341zM971 1133l276 588h103l-149 -767h-93l108 556l-246 -556h-65l-32 553l-108 -553h-95l149 767h102z" />
    <glyph glyph-name="partialdiff" unicode="&#x2202;" horiz-adv-x="1029" 
d="M750 1904l44 84q79 -25 165 -136q47 -62 47 -199q0 -112 -32 -275l-236 -1216q-38 -194 -229 -194q-160 0 -160 135q0 27 6 59l139 719q36 183 199 183q48 0 97 -47l85 438q49 251 -15.5 340.5t-109.5 108.5zM469 162q-16 -82 62 -82q77 0 93 82l139 719q16 79 -48 82
q-7 1 -14 1q-31 0 -47 -7q-33 -14 -46 -76z" />
    <glyph glyph-name="Delta" unicode="&#x2206;" horiz-adv-x="1081" 
 />
    <glyph glyph-name="product" unicode="&#x220f;" horiz-adv-x="1515" 
 />
    <glyph glyph-name="summation" unicode="&#x2211;" horiz-adv-x="1206" 
 />
    <glyph glyph-name="minus" unicode="&#x2212;" horiz-adv-x="539" 
d="M659 1028l-17 -89h-379l17 89h379z" />
    <glyph glyph-name="radical" unicode="&#x221a;" horiz-adv-x="1014" 
 />
    <glyph glyph-name="infinity" unicode="&#x221e;" horiz-adv-x="1014" 
 />
    <glyph glyph-name="integral" unicode="&#x222b;" horiz-adv-x="665" 
 />
    <glyph glyph-name="approxequal" unicode="&#x2248;" horiz-adv-x="544" 
d="M321 964l-52 39l25 29q59 71 118 71h5q39 -2 96 -51q32 -28 60 -28q23 0 41 18l27 28l46 -44l-27 -28q-51 -52 -101 -52h-6q-40 2 -94 50q-36 32 -50 35h-6q-25 0 -57 -37zM321 779l-52 39l25 29q59 71 118 71h5q39 -2 96 -51q32 -28 60 -28q23 0 41 18l27 28l46 -44
l-27 -28q-51 -52 -101 -52h-6q-40 2 -94 50q-36 32 -50 35h-6q-25 0 -57 -37z" />
    <glyph glyph-name="lessequal" unicode="&#x2264;" horiz-adv-x="570" 
d="M283 532l421 212l-20 -104l-349 -171l283 -168l-20 -104l-340 206zM659 103l-17 -89h-379l17 89h379z" />
    <glyph glyph-name="greaterequal" unicode="&#x2265;" horiz-adv-x="570" 
d="M638 403l-420 -206l20 104l348 168l-282 171l20 104l339 -212zM659 103l-17 -89h-379l17 89h379z" />
    <glyph glyph-name="uniF001" unicode="&#xf001;" horiz-adv-x="746" 
d="M569 918l-19 -99h-197l-159 -818h-114l337 1733h342l-19 -98h-228l-140 -718h197zM838 1734h114l-337 -1733h-114z" />
    <glyph glyph-name="uniF001" unicode="&#xfb01;" horiz-adv-x="746" 
d="M569 918l-19 -99h-197l-159 -818h-114l337 1733h342l-19 -98h-228l-140 -718h197zM838 1734h114l-337 -1733h-114z" />
    <glyph glyph-name="uniF002" unicode="&#xf002;" horiz-adv-x="900" 
d="M569 918l-19 -99h-197l-159 -818h-114l337 1733h342l-19 -98h-228l-140 -718h197zM501 1l337 1733h114l-318 -1635h228l-19 -98h-342z" />
    <glyph glyph-name="uniF002" unicode="&#xfb02;" horiz-adv-x="900" 
d="M569 918l-19 -99h-197l-159 -818h-114l337 1733h342l-19 -98h-228l-140 -718h197zM501 1l337 1733h114l-318 -1635h228l-19 -98h-342z" />
    </font>
</defs>
</svg>
