<?xml version="1.0" standalone="no"?>
<!DOCTYPE svg PUBLIC "-//W3C//DTD SVG 1.1//EN" "http://www.w3.org/Graphics/SVG/1.1/DTD/svg11.dtd" >
<svg xmlns="http://www.w3.org/2000/svg" xmlns:xlink="http://www.w3.org/1999/xlink" version="1.1">
<metadata>
Created by FontForge 20170731 at Wed Feb 19 19:53:14 2014
 By Aleksey,,,
Gobold (c) Situjuh Nazara. 2013. All Rights Reserved
</metadata>
<defs>
<font id="GoboldHighBold" horiz-adv-x="617" >
  <font-face 
    font-family="Gobold High Bold"
    font-weight="400"
    font-stretch="normal"
    units-per-em="2048"
    panose-1="2 0 5 0 0 0 0 0 0 0"
    ascent="1638"
    descent="-410"
    x-height="1747"
    cap-height="1982"
    bbox="-58 -360 1859 2238"
    underline-thickness="150"
    underline-position="-442"
    unicode-range="U+0020-2265"
  />
<missing-glyph horiz-adv-x="1984" 
d="M1134 1729q-151 -39 -246 -144q-32 -36 -86 -117q-60 -91 -86 -124q-80 -99 -130 -139q-82 -66 -172 -66q-73 0 -124 37q-57 41 -68 115q-2 18 -2 36q0 65 31 121q44 77 123 91q20 4 37 4q27 0 48 -9q41 -18 42 -68q-11 13 -27 13q-13 0 -24 -10q-12 -12 -12 -26
q0 -35 36 -35h2q37 0 57 41q10 22 10 44q0 21 -9 43q-17 44 -57 65q-44 23 -107 23q-15 0 -31 -1q-133 -11 -214 -110v216h1009zM125 1100q78 -80 209 -80q18 0 38 2q107 9 253 154q40 40 111 119q64 71 89 94q66 61 134 61q37 0 74 -17q109 -50 221 -50q74 0 149 22
q148 44 276 163q-16 -199 -146 -369q-25 -32 -275 -290h-66q-50 0 -83 39l-106 -106h192q-234 -260 -275 -462q-11 -56 -11 -105q0 -80 29 -142q46 -99 165 -137h-239v848l45 24v41h-784v191zM412 842q93 0 132 -39q40 -39 40 -132v-675h-459v846h287zM654 844h44v-848h-44
v848zM1444 -4q250 57 415 203v-203h-415zM1859 217q-159 -89 -299 -106q-29 -3 -56 -3q-99 0 -155 47q-55 46 -55 128q0 31 8 67q32 146 190 349q75 95 108 143h186v-58h73v-567zM1645 909q123 201 123 433q0 52 -6 106q-19 160 -22 159q8 62 119 96v-794h-214zM866 1263
q-89 0 -149 -52q-52 -46 -64 -114q-3 -17 -3 -33q0 -45 25 -77q31 -42 90 -42q10 0 20 1q72 8 93 74q6 18 6 33q0 44 -43 75q-36 26 -36 57q0 6 2 13q8 38 59 50v15z" />
    <glyph glyph-name=".notdef" horiz-adv-x="1984" 
d="M1134 1729q-151 -39 -246 -144q-32 -36 -86 -117q-60 -91 -86 -124q-80 -99 -130 -139q-82 -66 -172 -66q-73 0 -124 37q-57 41 -68 115q-2 18 -2 36q0 65 31 121q44 77 123 91q20 4 37 4q27 0 48 -9q41 -18 42 -68q-11 13 -27 13q-13 0 -24 -10q-12 -12 -12 -26
q0 -35 36 -35h2q37 0 57 41q10 22 10 44q0 21 -9 43q-17 44 -57 65q-44 23 -107 23q-15 0 -31 -1q-133 -11 -214 -110v216h1009zM125 1100q78 -80 209 -80q18 0 38 2q107 9 253 154q40 40 111 119q64 71 89 94q66 61 134 61q37 0 74 -17q109 -50 221 -50q74 0 149 22
q148 44 276 163q-16 -199 -146 -369q-25 -32 -275 -290h-66q-50 0 -83 39l-106 -106h192q-234 -260 -275 -462q-11 -56 -11 -105q0 -80 29 -142q46 -99 165 -137h-239v848l45 24v41h-784v191zM412 842q93 0 132 -39q40 -39 40 -132v-675h-459v846h287zM654 844h44v-848h-44
v848zM1444 -4q250 57 415 203v-203h-415zM1859 217q-159 -89 -299 -106q-29 -3 -56 -3q-99 0 -155 47q-55 46 -55 128q0 31 8 67q32 146 190 349q75 95 108 143h186v-58h73v-567zM1645 909q123 201 123 433q0 52 -6 106q-19 160 -22 159q8 62 119 96v-794h-214zM866 1263
q-89 0 -149 -52q-52 -46 -64 -114q-3 -17 -3 -33q0 -45 25 -77q31 -42 90 -42q10 0 20 1q72 8 93 74q6 18 6 33q0 44 -43 75q-36 26 -36 57q0 6 2 13q8 38 59 50v15z" />
    <glyph glyph-name=".null" horiz-adv-x="0" 
 />
    <glyph glyph-name="nonmarkingreturn" horiz-adv-x="508" 
 />
    <glyph glyph-name="space" unicode=" " horiz-adv-x="299" 
 />
    <glyph glyph-name="space" unicode="&#xa0;" horiz-adv-x="299" 
 />
    <glyph glyph-name="exclam" unicode="!" horiz-adv-x="373" 
d="M293 2012l-11 -1767h-191l-11 1767h213zM80 183h213v-203h-213v203z" />
    <glyph glyph-name="quotedbl" unicode="&#x22;" horiz-adv-x="641" 
d="M361 1983h200l-19 -366h-162zM80 1983h200l-19 -366h-162z" />
    <glyph glyph-name="numbersign" unicode="#" horiz-adv-x="807" 
d="M618 1131l-28 -283h94v-117h-105l-75 -751h-169l75 751h-72l-75 -751h-169l75 751h-89v117h101l28 283h-86v117h98l73 734h168l-73 -734h73l73 734h168l-73 -734h97v-117h-109zM422 848l28 283h-73l-28 -283h73z" />
    <glyph glyph-name="dollar" unicode="$" 
d="M391 2004q146 -27 146 -217v-491h-192v491q0 46 -36 46h-1q-36 0 -36 -46v-609q0 -57 123 -146q142 -100 142 -241v-616q0 -191 -145 -218v-207h-166v207q-146 28 -146 218v490h192v-490q0 -47 37 -47q36 0 36 47v604q0 62 -123 151q-142 100 -142 245v612q0 190 145 217
v186h166v-186z" />
    <glyph glyph-name="percent" unicode="%" horiz-adv-x="932" 
d="M369 1214q0 -141 -144 -141q-145 0 -145 141v659q0 141 145 141q144 0 144 -141v-659zM712 1982l-368 -2002h-139l369 2002h138zM236 1873q0 19 -11 19h-1q-11 0 -11 -19v-659q0 -19 12 -19q11 0 11 19v659zM852 99q0 -141 -144 -141q-145 0 -145 141v659q0 141 145 141
q144 0 144 -141v-659zM719 758q0 19 -11 19h-1q-11 0 -11 -19v-659q0 -19 12 -19q11 0 11 19v659z" />
    <glyph glyph-name="ampersand" unicode="&#x26;" horiz-adv-x="731" 
d="M346 1078v231h191v-231h114v-180h-114v-723q0 -226 -228 -226q-229 0 -229 226v675q0 107 57 136q-57 29 -57 137v667q0 226 229 226q228 0 228 -226v-313h-191v313q0 46 -37 47h-1q-36 -1 -36 -47v-666q0 -40 7 -44q4 -2 16 -2h51zM346 898h-40q-19 0 -25 -3
q-9 -4 -9 -45v-675q0 -46 36 -46h1q37 0 37 46v723z" />
    <glyph glyph-name="quotesingle" unicode="'" horiz-adv-x="360" 
d="M80 1983h200l-19 -366h-162z" />
    <glyph glyph-name="parenleft" unicode="(" horiz-adv-x="407" 
d="M327 -171q-247 3 -247 227v1850q0 223 247 226v-155q-55 -2 -55 -48v-1897q0 -45 55 -46v-157z" />
    <glyph glyph-name="parenright" unicode=")" horiz-adv-x="407" 
d="M80 -14q56 1 56 46v1897q0 46 -56 48v155q247 -3 247 -226v-1850q0 -224 -247 -227v157z" />
    <glyph glyph-name="asterisk" unicode="*" horiz-adv-x="600" 
d="M316 1812q72 77 106 93q19 9 35 9q38 0 56 -55q7 -20 7 -36q0 -47 -57 -55q-9 -1 -21 -1q-39 0 -115 15q95 -45 121 -73q22 -23 22 -45q0 -29 -37 -56q-28 -21 -51 -21q-32 0 -51 41q-18 35 -30 133q-12 -104 -32 -137q-19 -36 -50 -36q-22 0 -50 19q-38 28 -38 56
q0 23 25 48q28 27 118 68q-74 -14 -114 -14q-16 0 -26 2q-54 10 -54 56q0 16 7 35q17 55 56 55q17 0 38 -11q35 -18 102 -91q-50 91 -55 129q-1 7 -1 14q0 59 72 59h2q72 0 72 -56q0 -9 -2 -19q-7 -40 -55 -126z" />
    <glyph glyph-name="plus" unicode="+" horiz-adv-x="614" 
d="M224 903h-144v157h144v143h166v-143h144v-157h-144v-143h-166v143z" />
    <glyph glyph-name="comma" unicode="," horiz-adv-x="386" 
d="M80 183h226v-166l-59 -200h-141l29 163h-55v203z" />
    <glyph glyph-name="hyphen" unicode="-" horiz-adv-x="480" 
d="M400 923h-320v117h320v-117z" />
    <glyph glyph-name="hyphen" unicode="&#xad;" horiz-adv-x="480" 
d="M400 923h-320v117h320v-117z" />
    <glyph glyph-name="period" unicode="." horiz-adv-x="373" 
d="M80 183h213v-203h-213v203z" />
    <glyph glyph-name="slash" unicode="/" horiz-adv-x="408" 
d="M388 1982l-199 -2003h-169l200 2003h168z" />
    <glyph glyph-name="zero" unicode="0" 
d="M537 187q0 -226 -229 -227q-228 0 -228 227v1587q0 226 228 226q229 0 229 -226v-1587zM345 1774q0 46 -36 46h-1q-36 0 -36 -46v-1587q0 -47 36 -47q37 0 37 47v1587z" />
    <glyph glyph-name="one" unicode="1" 
d="M563 -20h-463v180h133v1643h-133v179h324v-1822h139v-180z" />
    <glyph glyph-name="two" unicode="2" 
d="M272 160h265v-180h-457v638q0 145 142 245q123 89 123 151v761q0 47 -36 47q-37 0 -37 -47v-479h-192v479q0 226 229 227q228 0 228 -227v-773q0 -141 -142 -241q-123 -89 -123 -146v-455z" />
    <glyph glyph-name="three" unicode="3" 
d="M214 1076h108q12 0 16 2q7 4 7 44v653q0 46 -36 47h-1q-36 0 -36 -47v-479h-192v479q0 226 228 226q229 0 229 -226v-654q0 -108 -57 -137q57 -29 57 -136v-662q0 -226 -229 -226q-228 0 -228 226v480h192v-480q0 -46 36 -46h1q36 0 36 46v662q0 41 -9 45q-6 3 -25 3h-97
v180z" />
    <glyph glyph-name="four" unicode="4" 
d="M529 1983v-1413h54v-179h-54v-411h-192v411h-287v145l251 1447h228zM243 570h94v658z" />
    <glyph glyph-name="five" unicode="5" horiz-adv-x="619" 
d="M347 1038q0 40 -9 44q-7 3 -26 3q-5 0 -11 -1q-23 -1 -26 -19l-1 -59h-194l82 975h377v-180h-213l-41 -531q-8 -9 67 -9q11 0 21 -1q86 -8 131 -70q35 -48 35 -152v-852q0 -226 -229 -226q-228 0 -228 226v480h192v-480q0 -46 36 -46h1q36 0 36 46v852z" />
    <glyph glyph-name="six" unicode="6" 
d="M272 1158q3 3 72 3q12 0 25 -1q79 -8 123 -56q45 -49 45 -165v-753q0 -226 -229 -226q-228 0 -228 226v1588q0 227 228 227q229 0 229 -227v-478h-192v478q0 47 -36 47h-1q-36 0 -36 -47v-616zM345 939q0 41 -8 44q-7 3 -27 3h-13q-25 -1 -25 -47v-753q0 -46 36 -46
q37 0 37 46v753z" />
    <glyph glyph-name="seven" unicode="7" 
d="M70 1803v179h469v-121l-200 -1881h-195l189 1823h-263z" />
    <glyph glyph-name="eight" unicode="8" 
d="M309 2001q228 0 228 -226v-652q0 -108 -56 -137q56 -29 56 -136v-664q0 -226 -228 -226q-229 0 -229 226v664q0 107 57 136q-57 29 -57 137v652q0 226 229 226zM309 140q37 0 37 46v664q0 41 -9 45q-7 3 -26 3h-5q-19 0 -25 -3q-9 -4 -9 -45v-664q0 -46 36 -46h1z
M322 1078q12 0 16 2q8 5 8 44v651q0 46 -37 47h-1q-36 -1 -36 -47v-651q0 -40 7 -44q4 -2 16 -2h27z" />
    <glyph glyph-name="nine" unicode="9" 
d="M345 803q-3 -3 -72 -3q-12 0 -25 1q-79 8 -123 56q-45 49 -45 165v753q0 226 229 226q228 0 228 -226v-1588q0 -227 -228 -227q-229 0 -229 227v478h192v-478q0 -47 36 -47h1q36 0 36 47v616zM272 1022q0 -41 8 -44q7 -3 27 -3h13q25 1 25 47v753q0 46 -36 46
q-37 0 -37 -46v-753z" />
    <glyph glyph-name="colon" unicode=":" horiz-adv-x="373" 
d="M80 1252h213v-203h-213v203zM80 183h213v-203h-213v203z" />
    <glyph glyph-name="semicolon" unicode=";" horiz-adv-x="386" 
d="M80 183h226v-166l-59 -200h-141l29 163h-55v203zM80 1252h213v-203h-213v203z" />
    <glyph glyph-name="semicolon" unicode="&#x37e;" horiz-adv-x="386" 
d="M80 183h226v-166l-59 -200h-141l29 163h-55v203zM80 1252h213v-203h-213v203z" />
    <glyph glyph-name="less" unicode="&#x3c;" horiz-adv-x="614" 
d="M80 1062l454 254v-185l-274 -150l274 -145v-186l-454 247v165z" />
    <glyph glyph-name="equal" unicode="=" horiz-adv-x="614" 
d="M80 1019v156h454v-156h-454zM80 787v156h454v-156h-454z" />
    <glyph glyph-name="greater" unicode="&#x3e;" horiz-adv-x="614" 
d="M534 896l-454 -247v186l274 145l-274 150v185l454 -254v-165z" />
    <glyph glyph-name="question" unicode="?" 
d="M138 183h213v-203h-213v203zM537 857q0 -131 -106 -235q-93 -94 -93 -161v-207h-192v219q0 130 106 233q93 94 93 155v929q0 46 -36 46h-1q-36 0 -36 -46v-496h-192v496q0 226 229 226q228 0 228 -226v-933z" />
    <glyph glyph-name="at" unicode="@" horiz-adv-x="854" 
d="M773 1114q0 -156 -158 -156h-30v-479q0 -156 -159 -156q-158 0 -158 156v455q0 156 158 156h16v374q0 23 -15 23h-1q-15 0 -15 -23v-55h-143v55q0 155 158 155q159 0 159 -155v-374h30q15 0 15 24v356q0 186 -187 186q-219 0 -219 -193v-990q0 -186 219 -186
q187 0 187 192v41h144v-41q0 -324 -331 -324q-363 0 -363 318v990q0 324 363 324q331 0 330 -317v-356zM418 958q-15 0 -15 -24v-455q0 -24 15 -24q16 0 16 24v479h-16z" />
    <glyph glyph-name="A" unicode="A" horiz-adv-x="599" 
d="M254 474l-31 -494h-193l47 715l102 1287h240l102 -1285l47 -717h-193l-31 494h-90zM334 654l-35 956l-35 -956h70z" />
    <glyph glyph-name="B" unicode="B" horiz-adv-x="607" 
d="M80 1982h243q214 0 214 -226v-638q0 -107 -57 -136q57 -29 57 -137v-639q0 -225 -223 -226h-234v2002zM272 1803v-731h19q25 0 31 2q23 9 23 44v638q0 47 -36 47h-37zM272 892v-732h37q36 0 36 46v639q0 35 -24 44q-6 3 -30 3h-19z" />
    <glyph glyph-name="C" unicode="C" horiz-adv-x="607" 
d="M345 1296v479q0 46 -36 46h-1q-36 0 -36 -46v-1588q0 -47 36 -47q37 0 37 47v478h192v-478q0 -226 -229 -227q-228 0 -228 227v1588q0 226 228 226q229 0 229 -226v-479h-192z" />
    <glyph glyph-name="D" unicode="D" horiz-adv-x="607" 
d="M80 1982h243q214 0 214 -226v-1550q0 -225 -223 -226h-234v2002zM272 1803v-1643h37q36 0 36 46v1550q0 47 -36 47h-37z" />
    <glyph glyph-name="E" unicode="E" horiz-adv-x="537" 
d="M80 1982h417v-179h-225v-731h194v-180h-194v-732h225v-180h-417v2002z" />
    <glyph glyph-name="F" unicode="F" horiz-adv-x="537" 
d="M466 1072v-180h-194v-912h-192v2002h417v-179h-225v-731h194z" />
    <glyph glyph-name="G" unicode="G" horiz-adv-x="607" 
d="M313 1072h224v-885q0 -226 -229 -227q-228 0 -228 227v1589q0 226 228 226q229 0 229 -226v-480h-192v480q0 46 -36 46h-1q-36 0 -36 -46v-1589q0 -47 36 -47q37 0 37 47v705h-32v180z" />
    <glyph glyph-name="H" unicode="H" 
d="M345 1072v910h192v-2002h-192v912h-73v-912h-192v2002h192v-910h73z" />
    <glyph glyph-name="I" unicode="I" horiz-adv-x="362" 
d="M85 1982h192v-2002h-192v2002z" />
    <glyph glyph-name="J" unicode="J" horiz-adv-x="597" 
d="M60 666h192v-479q0 -47 37 -47q36 0 36 47v1795h192v-1795q0 -227 -228 -227q-229 1 -229 227v479z" />
    <glyph glyph-name="K" unicode="K" horiz-adv-x="608" 
d="M387 981l191 -1001h-203l-103 768v-768h-192v2002h192v-780l103 780h203z" />
    <glyph glyph-name="L" unicode="L" horiz-adv-x="527" 
d="M80 -20v2002h192v-1822h225v-180h-417z" />
    <glyph glyph-name="M" unicode="M" horiz-adv-x="826" 
d="M340 -20l-73 1467v-1467h-187v2002h242l91 -1479l91 1479h242v-2002h-187v1465l-73 -1465h-146z" />
    <glyph glyph-name="N" unicode="N" 
d="M351 1982h186v-2002h-147l-129 979v-979h-181v2002h148l123 -969v969z" />
    <glyph glyph-name="O" unicode="O" horiz-adv-x="597" 
d="M527 187q0 -226 -229 -227q-228 0 -228 227v1588q0 226 228 226q229 0 229 -226v-1588zM335 1775q0 46 -36 46h-1q-36 0 -36 -46v-1588q0 -47 36 -47q37 0 37 47v1588z" />
    <glyph glyph-name="P" unicode="P" horiz-adv-x="590" 
d="M80 1982h231q214 0 214 -226v-637q0 -165 -152 -215q-36 -11 -101 -11v-913h-192v2002zM272 1803v-730h7q25 0 31 2q23 9 23 44v637q0 47 -36 47h-25z" />
    <glyph glyph-name="Q" unicode="Q" 
d="M345 1776q0 46 -36 46h-1q-36 0 -36 -46v-1601q0 -47 36 -47q37 0 37 47v1601zM384 -40q-1 -8 153 -1v-158q-158 0 -211 28q-72 37 -74 122q-172 15 -172 224v1601q0 226 228 226q229 0 229 -226v-1601q0 -197 -153 -215z" />
    <glyph glyph-name="R" unicode="R" horiz-adv-x="595" 
d="M272 1803v-730h7q25 0 31 2q23 9 23 44v637q0 47 -36 47h-25zM431 930l144 -950h-205l-87 913h-11v-913h-192v2002h231q214 0 214 -226v-637q0 -139 -94 -189z" />
    <glyph glyph-name="S" unicode="S" horiz-adv-x="597" 
d="M262 665v-478q0 -47 37 -47q36 0 36 47v592q0 62 -123 151q-142 100 -142 245v601q0 226 228 226q229 0 229 -226v-480h-192v480q0 46 -36 46h-1q-36 0 -36 -46v-598q0 -57 123 -146q142 -100 142 -241v-604q0 -227 -228 -227q-229 1 -229 227v478h192z" />
    <glyph glyph-name="T" unicode="T" horiz-adv-x="517" 
d="M487 1982v-179h-133v-1823h-191v1823h-133v179h457z" />
    <glyph glyph-name="U" unicode="U" 
d="M537 187q0 -226 -229 -227q-228 0 -228 227v1795h192v-1795q0 -47 36 -47q37 0 37 47v1795h192v-1795z" />
    <glyph glyph-name="V" unicode="V" horiz-adv-x="599" 
d="M419 -20h-240l-102 1287l-47 715h193l76 -1516l76 1516h193l-47 -717z" />
    <glyph glyph-name="W" unicode="W" horiz-adv-x="939" 
d="M469 1211l-49 -1231h-241l-102 1287l-47 715h193l76 -1519l75 1519h190l75 -1519l76 1519h193l-47 -717l-102 -1285h-241z" />
    <glyph glyph-name="X" unicode="X" horiz-adv-x="586" 
d="M224 1982l70 -687l69 687h194l-167 -1000l167 -1002h-194l-69 690l-70 -690h-194l167 1002l-167 1000h194z" />
    <glyph glyph-name="Y" unicode="Y" horiz-adv-x="610" 
d="M231 1982l74 -805l73 805h201l-174 -1135l-4 -23v-844h-192v844l-4 23l-175 1135h201z" />
    <glyph glyph-name="Z" unicode="Z" horiz-adv-x="490" 
d="M442 1876l-190 -1716h198v-180h-410v106l190 1717h-183v179h395v-106z" />
    <glyph glyph-name="bracketleft" unicode="[" horiz-adv-x="404" 
d="M324 2132v-156h-77v-1988h77v-157h-244v2301h244z" />
    <glyph glyph-name="backslash" unicode="\" horiz-adv-x="802" 
d="M386 1982l199 -2002h-168l-200 2002h169z" />
    <glyph glyph-name="bracketright" unicode="]" horiz-adv-x="404" 
d="M324 2132v-156h-77v-1988h77v-157h-244v2301h244z" />
    <glyph glyph-name="asciicircum" unicode="^" horiz-adv-x="709" 
d="M436 1999l193 -443h-180l-95 217l-94 -217h-180l193 443h163z" />
    <glyph glyph-name="underscore" unicode="_" horiz-adv-x="566" 
d="M0 -232v145h566v-145h-566z" />
    <glyph glyph-name="grave" unicode="`" horiz-adv-x="426" 
d="M79 2048h173l93 -167h-129z" />
    <glyph glyph-name="a" unicode="a" horiz-adv-x="599" 
d="M254 417l-31 -437h-193l47 632l102 1138h240l102 -1136l47 -634h-193l-31 437h-90zM334 576l-35 845l-35 -845h70z" />
    <glyph glyph-name="b" unicode="b" horiz-adv-x="607" 
d="M80 1750h243q214 0 214 -200v-564q0 -95 -57 -120q57 -26 57 -121v-565q0 -199 -223 -200h-234v1770zM272 1592v-647h19q25 0 31 2q23 8 23 39v564q0 42 -36 42h-37zM272 786v-647h37q36 0 36 41v565q0 31 -24 39q-6 2 -30 2h-19z" />
    <glyph glyph-name="c" unicode="c" horiz-adv-x="607" 
d="M345 1141v423q0 41 -36 41h-1q-36 0 -36 -41v-1403q0 -42 36 -42q37 0 37 42v422h192v-422q0 -200 -229 -201q-228 0 -228 201v1403q0 200 228 200q229 0 229 -200v-423h-192z" />
    <glyph glyph-name="d" unicode="d" horiz-adv-x="607" 
d="M80 1750h243q214 0 214 -200v-1370q0 -199 -223 -200h-234v1770zM272 1592v-1453h37q36 0 36 41v1370q0 42 -36 42h-37z" />
    <glyph glyph-name="e" unicode="e" horiz-adv-x="537" 
d="M80 1750h417v-158h-225v-647h194v-159h-194v-647h225v-159h-417v1770z" />
    <glyph glyph-name="f" unicode="f" horiz-adv-x="537" 
d="M466 945v-159h-194v-806h-192v1770h417v-158h-225v-647h194z" />
    <glyph glyph-name="g" unicode="g" horiz-adv-x="607" 
d="M313 943h224v-782q0 -200 -229 -201q-228 0 -228 201v1404q0 200 228 200q229 0 229 -200v-424h-192v424q0 41 -36 41h-1q-36 0 -36 -41v-1404q0 -42 36 -42q37 0 37 42v623h-32v159z" />
    <glyph glyph-name="h" unicode="h" 
d="M345 945v805h192v-1770h-192v806h-73v-806h-192v1770h192v-805h73z" />
    <glyph glyph-name="i" unicode="i" horiz-adv-x="362" 
d="M85 1750h192v-1770h-192v1770z" />
    <glyph glyph-name="j" unicode="j" horiz-adv-x="597" 
d="M60 584h192v-423q0 -42 37 -42q36 0 36 42v1586h192v-1586q0 -201 -228 -201q-229 1 -229 201v423z" />
    <glyph glyph-name="k" unicode="k" horiz-adv-x="608" 
d="M387 865l191 -885h-203l-103 679v-679h-192v1770h192v-690l103 690h203z" />
    <glyph glyph-name="l" unicode="l" horiz-adv-x="527" 
d="M80 -20v1770h192v-1611h225v-159h-417z" />
    <glyph glyph-name="m" unicode="m" horiz-adv-x="826" 
d="M340 -20l-73 1297v-1297h-187v1770h242l91 -1308l91 1308h242v-1770h-187v1295l-73 -1295h-146z" />
    <glyph glyph-name="n" unicode="n" 
d="M351 1750h186v-1770h-147l-129 865v-865h-181v1770h148l123 -857v857z" />
    <glyph glyph-name="o" unicode="o" horiz-adv-x="597" 
d="M527 161q0 -200 -229 -201q-228 0 -228 201v1403q0 200 228 200q229 0 229 -200v-1403zM335 1564q0 41 -36 41h-1q-36 0 -36 -41v-1403q0 -42 36 -42q37 0 37 42v1403z" />
    <glyph glyph-name="p" unicode="p" horiz-adv-x="590" 
d="M80 1750h231q214 0 214 -200v-563q0 -146 -152 -190q-36 -10 -101 -10v-807h-192v1770zM272 1592v-646h7q25 0 31 2q23 8 23 39v563q0 42 -36 42h-25z" />
    <glyph glyph-name="q" unicode="q" 
d="M345 1547q0 41 -36 41h-1q-36 0 -36 -41v-1415q0 -42 36 -42q37 0 37 42v1415zM384 -58q-1 -8 153 -1v-140q-158 0 -211 25q-72 32 -74 108q-172 13 -172 198v1415q0 200 228 200q229 0 229 -200v-1415q0 -175 -153 -190z" />
    <glyph glyph-name="r" unicode="r" horiz-adv-x="595" 
d="M272 1592v-646h7q25 0 31 2q23 8 23 39v563q0 42 -36 42h-25zM431 820l144 -840h-205l-87 807h-11v-807h-192v1770h231q214 0 214 -200v-563q0 -123 -94 -167z" />
    <glyph glyph-name="s" unicode="s" horiz-adv-x="597" 
d="M262 583v-422q0 -42 37 -42q36 0 36 42v523q0 55 -123 133q-142 89 -142 217v531q0 200 228 200q229 0 229 -200v-424h-192v424q0 41 -36 41h-1q-36 0 -36 -41v-528q0 -51 123 -129q142 -89 142 -213v-534q0 -201 -228 -201q-229 1 -229 201v422h192z" />
    <glyph glyph-name="t" unicode="t" horiz-adv-x="517" 
d="M487 1750v-158h-133v-1612h-191v1612h-133v158h457z" />
    <glyph glyph-name="u" unicode="u" 
d="M537 161q0 -200 -229 -201q-228 0 -228 201v1586h192v-1586q0 -42 36 -42q37 0 37 42v1586h192v-1586z" />
    <glyph glyph-name="v" unicode="v" horiz-adv-x="599" 
d="M419 -20h-240l-102 1138l-47 632h193l76 -1340l76 1340h193l-47 -634z" />
    <glyph glyph-name="w" unicode="w" horiz-adv-x="939" 
d="M469 1068l-49 -1088h-241l-102 1138l-47 632h193l76 -1343l75 1343h190l75 -1343l76 1343h193l-47 -634l-102 -1136h-241z" />
    <glyph glyph-name="x" unicode="x" horiz-adv-x="586" 
d="M224 1750l70 -608l69 608h194l-167 -884l167 -886h-194l-69 610l-70 -610h-194l167 886l-167 884h194z" />
    <glyph glyph-name="y" unicode="y" horiz-adv-x="610" 
d="M231 1750l74 -712l73 712h201l-174 -1004l-4 -20v-746h-192v746l-4 20l-175 1004h201z" />
    <glyph glyph-name="z" unicode="z" horiz-adv-x="490" 
d="M442 1656l-190 -1517h198v-159h-410v94l190 1518h-183v158h395v-94z" />
    <glyph glyph-name="braceleft" unicode="{" horiz-adv-x="595" 
d="M439 -169q-247 3 -247 227v799q0 45 -56 46v157q56 1 56 46v794q0 223 247 226v-155q-56 -2 -56 -48v-793q0 -106 -34 -148q34 -43 34 -149v-799q0 -45 56 -46v-157z" />
    <glyph glyph-name="bar" unicode="|" horiz-adv-x="562" 
d="M198 2066h166v-2426h-166v2426z" />
    <glyph glyph-name="braceright" unicode="}" horiz-adv-x="595" 
d="M136 -12q56 1 56 46v799q0 106 34 149q-34 42 -34 148v793q0 46 -56 48v155q247 -3 247 -226v-794q0 -45 56 -46v-157q-56 -1 -56 -46v-799q0 -224 -247 -227v157z" />
    <glyph glyph-name="asciitilde" unicode="~" horiz-adv-x="601" 
d="M203 880l-123 81l36 55q57 88 138 88h6q53 -2 128 -58q27 -20 39 -20q2 0 4 2l48 61l114 -91l-42 -53q-52 -66 -123 -66h-7q-53 2 -127 58q-37 26 -50 7z" />
    <glyph glyph-name="exclamdown" unicode="&#xa1;" horiz-adv-x="565" 
d="M120 -283l11 1767h191l11 -1767h-213zM333 1546h-213v203h213v-203z" />
    <glyph glyph-name="cent" unicode="&#xa2;" 
d="M133 1872v180h166v-180q134 -27 134 -205v-451h-184v451q0 42 -32 42h-1q-33 0 -33 -42v-1492q0 -43 33 -43t33 43v450h184v-450q0 -178 -134 -205v-144h-166v143q-133 27 -133 206v1492q0 178 133 205z" />
    <glyph glyph-name="sterling" unicode="&#xa3;" horiz-adv-x="683" 
d="M348 976v-700q0 -93 -15 -116h241v-180h-514v180h60q37 0 37 47v769h-97v119h97v698q0 226 228 226t228 -226v-152h-191v152q0 46 -37 46h-1q-36 0 -36 -46v-698h166v-119h-166z" />
    <glyph glyph-name="currency" unicode="&#xa4;" horiz-adv-x="793" 
d="M625 910q0 -29 -2 -47l90 -90l-117 -117l-57 57q-36 -29 -142 -29t-142 29l-57 -57l-118 117l91 90q-2 17 -2 47v134q0 25 1 38l-90 90l118 117l51 -51q36 32 148 32t148 -32l51 51l117 -117l-89 -90q1 -13 1 -38v-134zM434 1044q0 46 -37 46h-1q-36 0 -36 -46v-134
q0 -46 37 -46t37 46v134z" />
    <glyph glyph-name="yen" unicode="&#xa5;" horiz-adv-x="610" 
d="M401 840h130v-119h-130v-741h-192v741h-131v119h131l-9 40h-122v119h104l-152 983h201l74 -771l73 771h201l-151 -983h103v-119h-121z" />
    <glyph glyph-name="brokenbar" unicode="&#xa6;" horiz-adv-x="562" 
d="M198 1844h166v-844h-166v844zM198 799h166v-799h-166v799z" />
    <glyph glyph-name="section" unicode="&#xa7;" horiz-adv-x="597" 
d="M335 880q0 46 -36 46h-1q-36 0 -36 -46v-234q0 -47 37 -47q36 0 36 47v234zM243 1140l-31 21q-142 100 -142 245v380q0 226 228 226q229 0 229 -226v-223h-192v223q0 46 -36 46h-1q-36 0 -36 -46v-377q0 -57 123 -146q142 -100 142 -241v-342q0 -197 -127 -216
q127 -87 127 -228v-360q0 -227 -228 -227q-229 1 -229 227v266h192v-266q0 -47 37 -47q36 0 36 47v348q0 62 -123 151q-142 100 -142 245v318q13 201 173 202z" />
    <glyph glyph-name="dieresis" unicode="&#xa8;" horiz-adv-x="530" 
d="M80 2041h171v-161h-171v161zM278 2041h172v-161h-172v161z" />
    <glyph glyph-name="copyright" unicode="&#xa9;" horiz-adv-x="924" 
d="M563 306q0 -150 -152 -150t-152 150v1353q0 150 152 150t152 -150v-375h-133v375q0 27 -19 27t-19 -27v-1353q0 -27 19 -27t19 27v528h133v-528zM742 274q0 -324 -331 -324t-331 318v1423q0 324 331 324t331 -317v-1424zM620 1720q0 192 -209 192t-209 -199v-1468
q0 -192 209 -192t209 198v1469z" />
    <glyph glyph-name="ordfeminine" unicode="&#xaa;" horiz-adv-x="415" 
d="M189 1114l-19 -279h-140l31 413l64 734h166l64 -733l31 -414h-140l-19 279h-38zM220 1233l-12 168l-12 -168h24zM54 625v130h308v-130h-308z" />
    <glyph glyph-name="guillemotleft" unicode="&#xab;" horiz-adv-x="832" 
d="M436 1080l-103 -87l103 -84v-222l-336 313l336 306v-226zM732 1080l-103 -87l103 -84v-222l-336 313l336 306v-226z" />
    <glyph glyph-name="logicalnot" unicode="&#xac;" horiz-adv-x="614" 
d="M80 832v156h454v-300h-166v144h-288z" />
    <glyph glyph-name="registered" unicode="&#xae;" horiz-adv-x="822" 
d="M742 274q0 -324 -331 -324t-331 318v1423q0 324 331 324t331 -317v-1424zM620 1720q0 192 -209 192t-209 -199v-1468q0 -192 209 -192t209 198v1469zM384 1656v-553h5q17 0 20 1q16 7 16 30v490q0 32 -24 32h-17zM489 1009l95 -821h-135l-57 797h-8v-797h-126v1585h152
q141 0 141 -149v-490q0 -92 -62 -125z" />
    <glyph glyph-name="macron" unicode="&#xaf;" horiz-adv-x="814" 
d="M80 1785v145h654v-145h-654z" />
    <glyph glyph-name="degree" unicode="&#xb0;" horiz-adv-x="519" 
d="M439 1741q0 -175 -180 -175q-179 0 -179 175q0 174 179 174q180 0 180 -174zM259 1783q-37 0 -37 -42q0 -43 37 -43q38 0 38 43q0 42 -38 42z" />
    <glyph glyph-name="plusminus" unicode="&#xb1;" horiz-adv-x="614" 
d="M224 418h-144v157h144v143h166v-143h144v-157h-144v-143h-166v143zM533 157v-157h-453v157h453z" />
    <glyph glyph-name="uni00B2" unicode="&#xb2;" horiz-adv-x="447" 
d="M80 1265q0 86 87 148q67 48 68 78v383q0 19 -11 19t-11 -19v-234h-133v234q0 140 144 140q143 0 143 -140v-385q0 -88 -85 -150q-69 -49 -69 -81v-177h154v-121h-287v305z" />
    <glyph glyph-name="uni00B3" unicode="&#xb3;" horiz-adv-x="450" 
d="M237 1433q-1 1 -10 1h-53v122h62q1 0 1 19v328q-1 1 -11 1l-4 -1q-9 0 -9 -20v-247h-133v248q0 95 61 126q40 20 82 20q39 0 79 -17q68 -29 68 -129v-309q0 -68 -25 -81q25 -12 25 -80v-311q0 -85 -48 -118q-31 -23 -93 -24h-7q-54 0 -85 19q-57 32 -57 123v258h133v-259
q0 -20 12 -20t12 20v331z" />
    <glyph glyph-name="acute" unicode="&#xb4;" horiz-adv-x="416" 
d="M210 1879h-130l93 167h173z" />
    <glyph glyph-name="mu" unicode="&#xb5;" 
d="M272 160q0 -46 36 -46q37 0 37 47v1588h192v-1588q0 -205 -182 -224q-10 -1 -21 -1q-56 0 -62 4v-153h-192v1962h192v-1589z" />
    <glyph glyph-name="paragraph" unicode="&#xb6;" horiz-adv-x="1220" 
d="M620 1983v-2003h-150v1862h-62v-1862h-150v1161q-81 0 -115 24q-43 32 -43 140v508q0 108 44 142q34 28 139 28h337z" />
    <glyph glyph-name="periodcentered" unicode="&#xb7;" horiz-adv-x="508" 
d="M119.998 998.546h181.045v-172.546h-181.045v172.546z" />
    <glyph glyph-name="periodcentered" unicode="&#x2219;" horiz-adv-x="508" 
d="M119.998 998.546h181.045v-172.546h-181.045v172.546z" />
    <glyph glyph-name="cedilla" unicode="&#xb8;" horiz-adv-x="351" 
d="M153 -145q-6 -26 21 -28q28 -2 25 39q-4 39 -40 7l-55 8l26 106h73l-21 -50q42 12 65.5 -1t23.5 -47v-50q0 -60 -73 -66q-9 -1 -20 -1h-10q-85 3 -85 67l4 16h66z" />
    <glyph glyph-name="uni00B9" unicode="&#xb9;" horiz-adv-x="445" 
d="M288 1982v-901h77v-121h-285v121h77v781h-77v120h208z" />
    <glyph glyph-name="ordmasculine" unicode="&#xba;" horiz-adv-x="448" 
d="M375 950q0 -136 -151 -137q-151 0 -151 137v896q0 136 151 136t151 -136v-896zM237 1846q0 17 -13 17t-13 -17v-896q0 -18 13 -18t13 18v896zM70 603v118h308v-118h-308z" />
    <glyph glyph-name="guillemotright" unicode="&#xbb;" horiz-adv-x="832" 
d="M100 1306l336 -306l-336 -313v222l103 84l-103 87v226zM396 1306l336 -306l-336 -313v222l103 84l-103 87v226z" />
    <glyph glyph-name="onequarter" unicode="&#xbc;" horiz-adv-x="897" 
d="M786 1002v-676h31v-120h-31v-226h-131v226h-165v93l146 703h150zM624 326h31v156zM740 1982l-368 -2002h-139l369 2002h138zM288 1982v-901h77v-121h-285v121h77v781h-77v120h208z" />
    <glyph glyph-name="onehalf" unicode="&#xbd;" horiz-adv-x="1015" 
d="M740 1982l-368 -2002h-139l369 2002h138zM288 1982v-901h77v-121h-285v121h77v781h-77v120h208zM648 285q0 86 85 148q69 49 70 78v383q0 19 -11 19t-11 -19v-233h-133v233q0 141 144 141q143 0 143 -141v-385q0 -88 -87 -150q-67 -48 -67 -81v-176h154v-122h-287v305z
" />
    <glyph glyph-name="threequarters" unicode="&#xbe;" horiz-adv-x="897" 
d="M786 1002v-676h31v-120h-31v-226h-131v226h-165v93l146 703h150zM624 326h31v156zM740 1982l-368 -2002h-139l369 2002h138zM237 1433q-1 1 -10 1h-53v122h62q1 0 1 19v328q-1 1 -11 1l-4 -1q-9 0 -9 -20v-247h-133v248q0 95 61 126q40 20 82 20q39 0 79 -17
q68 -29 68 -129v-309q0 -68 -25 -81q25 -12 25 -80v-311q0 -85 -48 -118q-31 -23 -93 -24h-7q-54 0 -85 19q-57 32 -57 123v258h133v-259q0 -20 12 -20t12 20v331z" />
    <glyph glyph-name="questiondown" unicode="&#xbf;" horiz-adv-x="567" 
d="M479 1681h-213v203h213v-203zM80 1007q0 131 106 235q93 94 93 161v207h192v-219q0 -130 -106 -233q-93 -94 -93 -155v-929q0 -46 36 -46h1q36 0 36 46v496h192v-496q0 -226 -229 -226q-228 0 -228 226v933z" />
    <glyph glyph-name="Agrave" unicode="&#xc0;" horiz-adv-x="546" 
d="M254 474l-31 -494h-193l47 715l102 1287h240l102 -1285l47 -717h-193l-31 494h-90zM334 654l-35 956l-35 -956h70zM132 2166h173l93 -167h-129z" />
    <glyph glyph-name="Aacute" unicode="&#xc1;" horiz-adv-x="546" 
d="M254 474l-31 -494h-193l47 715l102 1287h240l102 -1285l47 -717h-193l-31 494h-90zM334 654l-35 956l-35 -956h70zM330 1997h-130l93 167h173z" />
    <glyph glyph-name="Acircumflex" unicode="&#xc2;" horiz-adv-x="546" 
d="M254 474l-31 -494h-193l47 715l102 1287h240l102 -1285l47 -717h-193l-31 494h-90zM334 654l-35 956l-35 -956h70zM78 1999l141 166h158l144 -166h-164l-59 41l-58 -41h-162z" />
    <glyph glyph-name="Atilde" unicode="&#xc3;" horiz-adv-x="546" 
d="M254 474l-31 -494h-193l47 715l102 1287h240l102 -1285l47 -717h-193l-31 494h-90zM334 654l-35 956l-35 -956h70zM208 1995l-112 61l26 49q39 80 109 84h4q42 0 102 -37q30 -21 61 44l104 -69l-30 -48q-38 -61 -100 -65h-4q-42 0 -101 37q-41 26 -59 -56z" />
    <glyph glyph-name="Adieresis" unicode="&#xc4;" horiz-adv-x="546" 
d="M254 474l-31 -494h-193l47 715l102 1287h240l102 -1285l47 -717h-193l-31 494h-90zM334 654l-35 956l-35 -956h70zM114 2159h171v-161h-171v161zM312 2159h172v-161h-172v161z" />
    <glyph glyph-name="Aring" unicode="&#xc5;" horiz-adv-x="546" 
d="M254 474l-31 -494h-193l47 715l102 1287h240l102 -1285l47 -717h-193l-31 494h-90zM334 654l-35 956l-35 -956h70zM424 2119q0 -120 -125 -120q-124 0 -124 120q0 119 124 119q125 0 125 -119zM299 2139q-15 0 -15 -20q0 -21 15 -21q16 0 16 21q0 20 -16 20z" />
    <glyph glyph-name="AE" unicode="&#xc6;" horiz-adv-x="777" 
d="M300 474h-46l-31 -494h-193l47 715l102 1287h538v-179h-225v-731h194v-180h-194v-732h225v-180h-417v494zM300 654v929l-1 27l-35 -956h36z" />
    <glyph glyph-name="Ccedilla" unicode="&#xc7;" horiz-adv-x="607" 
d="M256 -37q-176 24 -176 224v1588q0 226 228 226q229 0 229 -226v-479h-192v479q0 46 -36 46h-1q-36 0 -36 -46v-1588q0 -47 36 -47q37 0 37 47v478h192v-478q0 -218 -213 -227l-10 -23q42 12 65.5 -1t23.5 -47v-50q0 -60 -73 -66q-9 -1 -20 -1h-10q-85 3 -85 67l4 16h66
q-6 -26 21 -28q28 -2 25 39q-4 39 -40 7l-55 8z" />
    <glyph glyph-name="Egrave" unicode="&#xc8;" horiz-adv-x="487" 
d="M80 1982h417v-179h-225v-731h194v-180h-194v-732h225v-180h-417v2002zM121 2166h173l93 -167h-129z" />
    <glyph glyph-name="Eacute" unicode="&#xc9;" horiz-adv-x="487" 
d="M80 1982h417v-179h-225v-731h194v-180h-194v-732h225v-180h-417v2002zM320 1997h-130l93 167h173z" />
    <glyph glyph-name="Ecircumflex" unicode="&#xca;" horiz-adv-x="487" 
d="M92 1982h417v-179h-225v-731h194v-180h-194v-732h225v-180h-417v2002zM80 1999l141 166h158l144 -166h-164l-59 41l-58 -41h-162z" />
    <glyph glyph-name="Edieresis" unicode="&#xcb;" horiz-adv-x="487" 
d="M80 1982h417v-179h-225v-731h194v-180h-194v-732h225v-180h-417v2002zM104 2159h171v-161h-171v161zM302 2159h172v-161h-172v161z" />
    <glyph glyph-name="Igrave" unicode="&#xcc;" horiz-adv-x="312" 
d="M106 1982h192v-2002h-192v2002zM35 2166h173l93 -167h-129z" />
    <glyph glyph-name="Iacute" unicode="&#xcd;" horiz-adv-x="312" 
d="M88 1982h192v-2002h-192v2002zM215 1997h-130l93 167h173z" />
    <glyph glyph-name="Icircumflex" unicode="&#xce;" horiz-adv-x="312" 
d="M107 1982h192v-2002h-192v2002zM-18 1999l141 166h158l144 -166h-164l-59 41l-58 -41h-162z" />
    <glyph glyph-name="Idieresis" unicode="&#xcf;" horiz-adv-x="312" 
d="M85 1982h192v-2002h-192v2002zM-4 2159h171v-161h-171v161zM194 2159h172v-161h-172v161z" />
    <glyph glyph-name="Eth" unicode="&#xd0;" horiz-adv-x="607" 
d="M272 909v-749h37q36 0 36 46v1550q0 47 -36 47h-37v-749h57v-145h-57zM80 1054v928h243q214 0 214 -226v-1550q0 -225 -223 -226h-234v929h-78v145h78z" />
    <glyph glyph-name="Ntilde" unicode="&#xd1;" horiz-adv-x="567" 
d="M351 1982h186v-2002h-147l-129 979v-979h-181v2002h148l123 -969v969zM218 2004l-112 61l26 49q39 80 109 84h4q42 0 102 -37q30 -21 61 44l104 -69l-30 -48q-38 -61 -100 -65h-4q-42 0 -101 37q-41 26 -59 -56z" />
    <glyph glyph-name="Ograve" unicode="&#xd2;" horiz-adv-x="547" 
d="M527 187q0 -226 -229 -227q-228 0 -228 227v1588q0 226 228 226q229 0 229 -226v-1588zM335 1775q0 46 -36 46h-1q-36 0 -36 -46v-1588q0 -47 36 -47q37 0 37 47v1588zM131 2201h173l93 -167h-129z" />
    <glyph glyph-name="Oacute" unicode="&#xd3;" horiz-adv-x="547" 
d="M527 187q0 -226 -229 -227q-228 0 -228 227v1588q0 226 228 226q229 0 229 -226v-1588zM335 1775q0 46 -36 46h-1q-36 0 -36 -46v-1588q0 -47 36 -47q37 0 37 47v1588zM330 2028h-130l93 167h173z" />
    <glyph glyph-name="Ocircumflex" unicode="&#xd4;" horiz-adv-x="547" 
d="M527 187q0 -226 -229 -227q-228 0 -228 227v1588q0 226 228 226q229 0 229 -226v-1588zM335 1775q0 46 -36 46h-1q-36 0 -36 -46v-1588q0 -47 36 -47q37 0 37 47v1588zM78 2019l141 166h158l144 -166h-164l-59 41l-58 -41h-162z" />
    <glyph glyph-name="Otilde" unicode="&#xd5;" horiz-adv-x="547" 
d="M527 187q0 -226 -229 -227q-228 0 -228 227v1588q0 226 228 226q229 0 229 -226v-1588zM335 1775q0 46 -36 46h-1q-36 0 -36 -46v-1588q0 -47 36 -47q37 0 37 47v1588zM208 2008l-112 61l26 49q39 80 109 84h4q42 0 102 -37q30 -21 61 44l104 -69l-30 -48
q-38 -61 -100 -65h-4q-42 0 -101 37q-41 26 -59 -56z" />
    <glyph glyph-name="Odieresis" unicode="&#xd6;" horiz-adv-x="547" 
d="M527 187q0 -226 -229 -227q-228 0 -228 227v1588q0 226 228 226q229 0 229 -226v-1588zM335 1775q0 46 -36 46h-1q-36 0 -36 -46v-1588q0 -47 36 -47q37 0 37 47v1588zM114 2198h171v-161h-171v161zM312 2198h172v-161h-172v161z" />
    <glyph glyph-name="multiply" unicode="&#xd7;" horiz-adv-x="592" 
d="M297 779l-102 -102l-115 115l102 102l-101 101l114 114l101 -101l102 102l114 -115l-101 -102l101 -101l-114 -114z" />
    <glyph glyph-name="Oslash" unicode="&#xd8;" horiz-adv-x="597" 
d="M303 140q32 3 32 47v644zM302 1821h-4q-36 0 -36 -46v-805zM527 187q0 -226 -229 -227q-228 0 -228 227v1588q0 226 228 226q229 0 229 -226v-1588z" />
    <glyph glyph-name="Ugrave" unicode="&#xd9;" horiz-adv-x="567" 
d="M537 187q0 -226 -229 -227q-228 0 -228 227v1795h192v-1795q0 -47 36 -47q37 0 37 47v1795h192v-1795zM141 2166h173l93 -167h-129z" />
    <glyph glyph-name="Uacute" unicode="&#xda;" horiz-adv-x="567" 
d="M537 187q0 -226 -229 -227q-228 0 -228 227v1795h192v-1795q0 -47 36 -47q37 0 37 47v1795h192v-1795zM340 1997h-130l93 167h173z" />
    <glyph glyph-name="Ucircumflex" unicode="&#xdb;" horiz-adv-x="567" 
d="M537 187q0 -226 -229 -227q-228 0 -228 227v1795h192v-1795q0 -47 36 -47q37 0 37 47v1795h192v-1795zM88 1999l141 166h158l144 -166h-164l-59 41l-58 -41h-162z" />
    <glyph glyph-name="Udieresis" unicode="&#xdc;" horiz-adv-x="567" 
d="M537 187q0 -226 -229 -227q-228 0 -228 227v1795h192v-1795q0 -47 36 -47q37 0 37 47v1795h192v-1795zM124 2159h171v-161h-171v161zM322 2159h172v-161h-172v161z" />
    <glyph glyph-name="Yacute" unicode="&#xdd;" horiz-adv-x="553" 
d="M231 1982l74 -805l73 805h201l-174 -1135l-4 -23v-844h-192v844l-4 23l-175 1135h201zM336 1997h-130l93 167h173z" />
    <glyph glyph-name="Thorn" unicode="&#xde;" horiz-adv-x="590" 
d="M272 1782h39q214 0 214 -226v-637q0 -165 -152 -215q-36 -11 -101 -11v-913h-192v2202h192v-200zM272 873h7q25 0 31 2q23 9 23 44v637q0 47 -36 47h-25v-730z" />
    <glyph glyph-name="germandbls" unicode="&#xdf;" 
d="M537 1065q0 -108 -56 -137q56 -28 56 -136v-693q0 -226 -214 -226h-39v179q61 0 61 47v693q0 35 -24 44q-7 3 -30 3h-19v-860h-192v1809q0 226 228 226q229 0 229 -226v-723zM272 1018h19q23 0 30 3q24 9 24 44v723q0 46 -36 46h-1q-36 0 -36 -46v-770z" />
    <glyph glyph-name="agrave" unicode="&#xe0;" horiz-adv-x="517" 
d="M254 417l-31 -437h-193l47 632l102 1138h240l102 -1136l47 -634h-193l-31 437h-90zM334 576l-35 845l-35 -845h70zM115 2048h173l93 -167h-129z" />
    <glyph glyph-name="aacute" unicode="&#xe1;" horiz-adv-x="517" 
d="M254 417l-31 -437h-193l47 632l102 1138h240l102 -1136l47 -634h-193l-31 437h-90zM334 576l-35 845l-35 -845h70zM314 1879h-130l93 167h173z" />
    <glyph glyph-name="acircumflex" unicode="&#xe2;" horiz-adv-x="517" 
d="M254 417l-31 -437h-193l47 632l102 1138h240l102 -1136l47 -634h-193l-31 437h-90zM334 576l-35 845l-35 -845h70zM61 1881l141 166h158l144 -166h-164l-59 41l-58 -41h-162z" />
    <glyph glyph-name="atilde" unicode="&#xe3;" horiz-adv-x="517" 
d="M254 417l-31 -437h-193l47 632l102 1138h240l102 -1136l47 -634h-193l-31 437h-90zM334 576l-35 845l-35 -845h70zM191 1879l-112 61l26 49q39 80 109 84h4q42 0 102 -37q30 -21 61 44l104 -69l-30 -48q-38 -61 -100 -65h-4q-42 0 -101 37q-41 26 -59 -56z" />
    <glyph glyph-name="adieresis" unicode="&#xe4;" horiz-adv-x="517" 
d="M254 417l-31 -437h-193l47 632l102 1138h240l102 -1136l47 -634h-193l-31 437h-90zM334 576l-35 845l-35 -845h70zM97 2041h171v-161h-171v161zM295 2041h172v-161h-172v161z" />
    <glyph glyph-name="aring" unicode="&#xe5;" horiz-adv-x="517" 
d="M254 417l-31 -437h-193l47 632l102 1138h240l102 -1136l47 -634h-193l-31 437h-90zM334 576l-35 845l-35 -845h70zM407 2001q0 -120 -125 -120q-124 0 -124 120q0 119 124 119q125 0 125 -119zM282 2021q-15 0 -15 -20q0 -21 15 -21q16 0 16 21q0 20 -16 20z" />
    <glyph glyph-name="ae" unicode="&#xe6;" horiz-adv-x="719" 
d="M277 444h-38l-30 -464h-181l44 672l96 1210h501v-168h-212v-688h182v-169h-182v-688h212v-169h-392v464zM277 614v789l-29 -789h29z" />
    <glyph glyph-name="ccedilla" unicode="&#xe7;" horiz-adv-x="570" 
d="M237 -36q-162 24 -162 209v1493q0 213 214 213q216 0 216 -213v-450h-181v450q0 43 -34 43h-1q-34 0 -34 -43v-1493q0 -44 34 -44q35 0 35 44v450h181v-450q0 -204 -200 -213l-10 -23q42 12 65.5 -1t23.5 -47v-50q0 -60 -73 -66q-9 -1 -20 -1h-10q-85 3 -85 67l4 16h66
q-6 -26 21 -28q28 -2 25 39q-4 39 -40 7l-55 8z" />
    <glyph glyph-name="egrave" unicode="&#xe8;" horiz-adv-x="465" 
d="M80 1750h417v-158h-225v-647h194v-159h-194v-647h225v-159h-417v1770zM105 2048h173l93 -167h-129z" />
    <glyph glyph-name="eacute" unicode="&#xe9;" horiz-adv-x="465" 
d="M80 1750h417v-158h-225v-647h194v-159h-194v-647h225v-159h-417v1770zM304 1879h-130l93 167h173z" />
    <glyph glyph-name="ecircumflex" unicode="&#xea;" horiz-adv-x="465" 
d="M107 1750h417v-158h-225v-647h194v-159h-194v-647h225v-159h-417v1770zM78 1881l141 166h158l144 -166h-164l-59 41l-58 -41h-162z" />
    <glyph glyph-name="edieresis" unicode="&#xeb;" horiz-adv-x="465" 
d="M80 1750h417v-158h-225v-647h194v-159h-194v-647h225v-159h-417v1770zM87 2041h171v-161h-171v161zM285 2041h172v-161h-172v161z" />
    <glyph glyph-name="igrave" unicode="&#xec;" horiz-adv-x="305" 
d="M106 1864h183v-1884h-183v1884zM30 2048h173l93 -167h-129z" />
    <glyph glyph-name="iacute" unicode="&#xed;" horiz-adv-x="305" 
d="M92 1864h183v-1884h-183v1884zM215 1879h-130l93 167h173z" />
    <glyph glyph-name="icircumflex" unicode="&#xee;" horiz-adv-x="305" 
d="M107 1864h183v-1884h-183v1884zM-22 1881l141 166h158l144 -166h-164l-59 41l-58 -41h-162z" />
    <glyph glyph-name="idieresis" unicode="&#xef;" horiz-adv-x="305" 
d="M85 1864h183v-1884h-183v1884zM-8 2041h171v-161h-171v161zM190 2041h172v-161h-172v161z" />
    <glyph glyph-name="eth" unicode="&#xf0;" horiz-adv-x="1103" 
d="M455 1642l-98 116l95 80q-7 4 -80 32l47 148q131 -38 169 -66l90 75l96 -116l-75 -63q81 -108 81 -476v-1198q0 -226 -228 -226q-229 0 -229 226v708q0 216 201 216q62 0 64 -1v351q0 236 -29 283zM515 174q0 -46 37 -46q36 0 36 46v708q0 45 -26 46q-8 1 -12 1
q-21 0 -28 -3q-7 -4 -7 -44v-708z" />
    <glyph glyph-name="ntilde" unicode="&#xf1;" horiz-adv-x="543" 
d="M351 1750h186v-1770h-147l-129 865v-865h-181v1770h148l123 -857v857zM200 1879l-112 61l26 49q39 80 109 84h4q42 0 102 -37q30 -21 61 44l104 -69l-30 -48q-38 -61 -100 -65h-4q-42 0 -101 37q-41 26 -59 -56z" />
    <glyph glyph-name="ograve" unicode="&#xf2;" horiz-adv-x="523" 
d="M527 161q0 -200 -229 -201q-228 0 -228 201v1403q0 200 228 200q229 0 229 -200v-1403zM335 1564q0 41 -36 41h-1q-36 0 -36 -41v-1403q0 -42 36 -42q37 0 37 42v1403zM115 2068h173l93 -167h-129z" />
    <glyph glyph-name="oacute" unicode="&#xf3;" horiz-adv-x="523" 
d="M527 161q0 -200 -229 -201q-228 0 -228 201v1403q0 200 228 200q229 0 229 -200v-1403zM335 1564q0 41 -36 41h-1q-36 0 -36 -41v-1403q0 -42 36 -42q37 0 37 42v1403zM314 1899h-130l93 167h173z" />
    <glyph glyph-name="ocircumflex" unicode="&#xf4;" horiz-adv-x="523" 
d="M536 161q0 -200 -229 -201q-228 0 -228 201v1403q0 200 228 200q229 0 229 -200v-1403zM344 1564q0 41 -36 41h-1q-36 0 -36 -41v-1403q0 -42 36 -42q37 0 37 42v1403zM70 1901l141 166h158l144 -166h-164l-59 41l-58 -41h-162z" />
    <glyph glyph-name="otilde" unicode="&#xf5;" horiz-adv-x="523" 
d="M527 161q0 -200 -229 -201q-228 0 -228 201v1403q0 200 228 200q229 0 229 -200v-1403zM335 1564q0 41 -36 41h-1q-36 0 -36 -41v-1403q0 -42 36 -42q37 0 37 42v1403zM191 1879l-112 61l26 49q39 80 109 84h4q42 0 102 -37q30 -21 61 44l104 -69l-30 -48
q-38 -61 -100 -65h-4q-42 0 -101 37q-41 26 -59 -56z" />
    <glyph glyph-name="odieresis" unicode="&#xf6;" horiz-adv-x="523" 
d="M527 161q0 -200 -229 -201q-228 0 -228 201v1403q0 200 228 200q229 0 229 -200v-1403zM335 1564q0 41 -36 41h-1q-36 0 -36 -41v-1403q0 -42 36 -42q37 0 37 42v1403zM97 2061h171v-161h-171v161zM295 2061h172v-161h-172v161z" />
    <glyph glyph-name="divide" unicode="&#xf7;" horiz-adv-x="563" 
d="M533 1062v-157h-453v157h453zM200 1620h213v-203h-213v203zM200 551h213v-203h-213v203z" />
    <glyph glyph-name="oslash" unicode="&#xf8;" horiz-adv-x="561" 
d="M292 131q23 7 23 42v456zM297 1706q-7 3 -16 3h-1q-34 0 -34 -43v-1081zM496 173q0 -212 -216 -213q-214 0 -214 213v1493q0 213 214 213q216 0 216 -213v-1493z" />
    <glyph glyph-name="ugrave" unicode="&#xf9;" horiz-adv-x="543" 
d="M537 161q0 -200 -229 -201q-228 0 -228 201v1586h192v-1586q0 -42 36 -42q37 0 37 42v1586h192v-1586zM124 2048h173l93 -167h-129z" />
    <glyph glyph-name="uacute" unicode="&#xfa;" horiz-adv-x="543" 
d="M537 161q0 -200 -229 -201q-228 0 -228 201v1586h192v-1586q0 -42 36 -42q37 0 37 42v1586h192v-1586zM323 1879h-130l93 167h173z" />
    <glyph glyph-name="ucircumflex" unicode="&#xfb;" horiz-adv-x="543" 
d="M547 161q0 -200 -229 -201q-228 0 -228 201v1586h192v-1586q0 -42 36 -42q37 0 37 42v1586h192v-1586zM80 1881l141 166h158l144 -166h-164l-59 41l-58 -41h-162z" />
    <glyph glyph-name="udieresis" unicode="&#xfc;" horiz-adv-x="543" 
d="M537 161q0 -200 -229 -201q-228 0 -228 201v1586h192v-1586q0 -42 36 -42q37 0 37 42v1586h192v-1586zM106 2041h171v-161h-171v161zM304 2041h172v-161h-172v161z" />
    <glyph glyph-name="yacute" unicode="&#xfd;" horiz-adv-x="523" 
d="M231 1750l74 -712l73 712h201l-174 -1004l-4 -20v-746h-192v746l-4 20l-175 1004h201zM319 1879h-130l93 167h173z" />
    <glyph glyph-name="thorn" unicode="&#xfe;" horiz-adv-x="554" 
d="M292 1862q201 0 201 -213v-598q0 -155 -143 -202q-33 -11 -95 -11v-689h212v-169h-392v1882h217zM255 1007h7q24 0 29 2q22 9 22 42v598q0 45 -34 45h-24v-687z" />
    <glyph glyph-name="ydieresis" unicode="&#xff;" horiz-adv-x="523" 
d="M231 1750l74 -712l73 712h201l-174 -1004l-4 -20v-746h-192v746l-4 20l-175 1004h201zM103 2041h171v-161h-171v161zM301 2041h172v-161h-172v161z" />
    <glyph glyph-name="dotlessi" unicode="&#x131;" horiz-adv-x="355" 
d="M85 1864h183v-1884h-183v1884z" />
    <glyph glyph-name="OE" unicode="&#x152;" horiz-adv-x="802" 
d="M411 -20q-43 -20 -113 -20q-228 0 -228 227v1588q0 226 228 226q68 0 111 -19h343v-179h-225v-731h194v-180h-194v-732h225v-180h-341zM335 1775q0 46 -36 46h-1q-36 0 -36 -46v-1588q0 -47 36 -47q37 0 37 47v1588z" />
    <glyph glyph-name="oe" unicode="&#x153;" horiz-adv-x="765" 
d="M319 1667q0 42 -32 42h-1q-33 0 -33 -42v-1492q0 -43 33 -43t33 43v1492zM395 -20q-41 -20 -109 -20q-216 0 -216 215v1492q0 214 216 214q63 0 103 -17h326v-170h-212v-685h183v-172h-183v-685h212v-172h-320z" />
    <glyph glyph-name="circumflex" unicode="&#x2c6;" horiz-adv-x="603" 
d="M80 1881l141 166h158l144 -166h-164l-59 41l-58 -41h-162z" />
    <glyph glyph-name="caron" unicode="&#x2c7;" horiz-adv-x="603" 
d="M242 2047l58 -40l59 40h164l-144 -166h-158l-141 166h162z" />
    <glyph glyph-name="uni02C9" unicode="&#x2c9;" horiz-adv-x="530" 
d="M80 2014h370v-133h-370v133z" />
    <glyph glyph-name="breve" unicode="&#x2d8;" horiz-adv-x="612" 
d="M532 2056q-82 -174 -233 -174h-2q-155 1 -217 174h160q16 -54 64 -54h1q49 0 64 54h163z" />
    <glyph glyph-name="dotaccent" unicode="&#x2d9;" horiz-adv-x="322" 
d="M80 2041h172v-161h-172v161z" />
    <glyph glyph-name="ring" unicode="&#x2da;" horiz-adv-x="399" 
d="M329 2001q0 -120 -125 -120q-124 0 -124 120q0 119 124 119q125 0 125 -119zM204 2021q-15 0 -15 -20q0 -21 15 -21q16 0 16 21q0 20 -16 20z" />
    <glyph glyph-name="ogonek" unicode="&#x2db;" horiz-adv-x="1024" 
 />
    <glyph glyph-name="tilde" unicode="&#x2dc;" horiz-adv-x="1009" 
d="M414 1859l-112 61l26 49q39 80 109 84h4q42 0 102 -37q30 -21 61 44l104 -69l-30 -48q-38 -61 -100 -65h-4q-42 0 -101 37q-41 26 -59 -56z" />
    <glyph glyph-name="hungarumlaut" unicode="&#x2dd;" horiz-adv-x="595" 
d="M150 1879h-130l93 167h173zM416 1879h-130l93 167h173z" />
    <glyph glyph-name="endash" unicode="&#x2013;" horiz-adv-x="580" 
d="M0 879v157h580v-157h-580z" />
    <glyph glyph-name="emdash" unicode="&#x2014;" horiz-adv-x="1027" 
d="M0 879v157h1027v-157h-1027z" />
    <glyph glyph-name="quoteleft" unicode="&#x2018;" horiz-adv-x="385" 
d="M305 1617h-225v166l59 200h141l-29 -163h54v-203z" />
    <glyph glyph-name="quoteright" unicode="&#x2019;" horiz-adv-x="385" 
d="M80 1983h225v-166l-58 -200h-141l29 164h-55v202z" />
    <glyph glyph-name="quotesinglbase" unicode="&#x201a;" horiz-adv-x="386" 
d="M80 182h226v-165l-59 -201h-141l29 164h-55v202z" />
    <glyph glyph-name="quotedblleft" unicode="&#x201c;" horiz-adv-x="700" 
d="M305 1617h-225v166l59 200h141l-29 -163h54v-203zM620 1617h-225v166l59 200h141l-29 -163h54v-203z" />
    <glyph glyph-name="quotedblright" unicode="&#x201d;" horiz-adv-x="700" 
d="M80 1983h225v-166l-58 -200h-141l29 164h-55v202zM395 1983h225v-166l-58 -200h-141l29 164h-55v202z" />
    <glyph glyph-name="quotedblbase" unicode="&#x201e;" horiz-adv-x="700" 
d="M80 183h225v-166l-58 -200h-141l29 164h-55v202zM395 183h225v-166l-58 -200h-141l29 164h-55v202z" />
    <glyph glyph-name="dagger" unicode="&#x2020;" horiz-adv-x="505" 
d="M161 1652v211h183v-211h121v-170h-121v-1502h-183v1502h-121v170h121z" />
    <glyph glyph-name="daggerdbl" unicode="&#x2021;" horiz-adv-x="505" 
d="M161 1652v211h183v-211h121v-170h-121v-1125h121v-170h-121v-207h-183v207h-121v170h121v1125h-121v170h121z" />
    <glyph glyph-name="bullet" unicode="&#x2022;" horiz-adv-x="574" 
d="M435 1124q59 -58 59 -141q0 -82 -59 -140q-61 -61 -148 -61t-148 61q-59 58 -59 140q0 83 59 141q61 61 148 61t148 -61z" />
    <glyph glyph-name="ellipsis" unicode="&#x2026;" horiz-adv-x="2048" 
d="M120 183h213v-203h-213v203zM803 183h213v-203h-213v203zM1486 183h213v-203h-213v203z" />
    <glyph glyph-name="guilsinglleft" unicode="&#x2039;" horiz-adv-x="536" 
d="M436 1080l-103 -87l103 -84v-222l-336 313l336 306v-226z" />
    <glyph glyph-name="guilsinglright" unicode="&#x203a;" horiz-adv-x="536" 
d="M100 1306l336 -306l-336 -313v222l103 84l-103 87v226z" />
    <glyph glyph-name="fraction" unicode="&#x2044;" horiz-adv-x="400" 
d="M449 1982l-368 -2002h-139l369 2002h138z" />
    <glyph glyph-name="fraction" unicode="&#x2215;" horiz-adv-x="400" 
d="M449 1982l-368 -2002h-139l369 2002h138z" />
    <glyph glyph-name="franc" unicode="&#x20a3;" horiz-adv-x="537" 
d="M80 563v1419h417v-179h-225v-731h194v-180h-194v-329h178v-145h-178v-438h-192v438h-50v145h50z" />
    <glyph glyph-name="lira" unicode="&#x20a4;" horiz-adv-x="683" 
d="M514 1166v-119h-166v-104h166v-119h-166v-548q0 -93 -15 -116h241v-180h-514v180h60q37 0 37 47v617h-98v119h98v104h-97v119h97v627q0 226 228 226t228 -226v-152h-191v152q0 46 -37 46h-1q-36 0 -36 -46v-627h166z" />
    <glyph glyph-name="peseta" unicode="&#x20a7;" horiz-adv-x="1190" 
d="M253 1803v-730h6q23 0 28 2q21 9 21 44v637q0 47 -33 47h-22zM481 1694v-575q0 -165 -137 -215q-33 -11 -91 -11v-913h-173v2002h208q141 0 179 -120h336v-1q44 18 107 18q215 0 215 -212v-451h-181v451q0 43 -33 43h-1q-34 0 -34 -43v-562q0 -54 115 -137
q134 -94 134 -227v-568q0 -213 -214 -213q-216 1 -216 213v450h181v-450q0 -44 35 -44q33 0 33 44v557q0 58 -115 142q-134 94 -134 230v565q0 14 1 27h-18v-1714h-180v1714h-17z" />
    <glyph glyph-name="Euro" unicode="&#x20ac;" horiz-adv-x="587" 
d="M306 856v-669q0 -47 27 -47t27 47v478h171v-478q0 -226 -198 -227q-198 0 -198 227v669h-85v145h85v65h-85v145h85v564q0 226 198 226t198 -226v-479h-171v479q0 46 -27 46t-27 -46v-564h172v-145h-172v-65h172v-145h-172z" />
    <glyph glyph-name="afii61352" unicode="&#x2116;" horiz-adv-x="1065" 
d="M351 1982h186v-2002h-147l-129 979v-979h-181v2002h148l123 -969v969zM992 950q0 -136 -151 -137q-151 0 -151 137v896q0 136 151 136t151 -136v-896zM854 1846q0 17 -13 17t-13 -17v-896q0 -18 13 -18t13 18v896zM687 603v118h308v-118h-308z" />
    <glyph glyph-name="trademark" unicode="&#x2122;" horiz-adv-x="1158" 
d="M476 1749v-152h-119v-673h-178v673h-119v152h416zM781 1284l128 466h173v-825h-172v256l-63 -256h-128l-67 262v-262h-173v825h172z" />
    <glyph glyph-name="partialdiff" unicode="&#x2202;" horiz-adv-x="1103" 
d="M372 1870l47 148q133 -39 247 -157.5t114 -488.5v-1198q0 -226 -228 -226q-229 0 -229 226v708q0 216 201 216q62 0 64 -1v351q0 235 -73 315t-143 107zM515 174q0 -46 37 -46q36 0 36 46v708q0 45 -26 46q-8 1 -12 1q-21 0 -28 -3q-7 -4 -7 -44v-708z" />
    <glyph glyph-name="Delta" unicode="&#x2206;" horiz-adv-x="1081" 
 />
    <glyph glyph-name="product" unicode="&#x220f;" horiz-adv-x="1515" 
 />
    <glyph glyph-name="summation" unicode="&#x2211;" horiz-adv-x="1206" 
 />
    <glyph glyph-name="minus" unicode="&#x2212;" horiz-adv-x="613" 
d="M533 1062v-157h-453v157h453z" />
    <glyph glyph-name="radical" unicode="&#x221a;" horiz-adv-x="1014" 
 />
    <glyph glyph-name="infinity" unicode="&#x221e;" horiz-adv-x="1014" 
 />
    <glyph glyph-name="integral" unicode="&#x222b;" horiz-adv-x="665" 
 />
    <glyph glyph-name="approxequal" unicode="&#x2248;" horiz-adv-x="538" 
d="M203 973l-123 81l36 55q57 88 138 88h6q53 -2 128 -58q27 -20 39 -20q2 0 4 2l48 61l114 -91l-42 -53q-52 -66 -123 -66h-7q-53 2 -127 58q-37 26 -50 7zM203 728l-123 81l36 55q57 88 138 88h6q53 -2 128 -58q27 -20 39 -20q2 0 4 2l48 61l114 -91l-42 -53
q-52 -66 -123 -66h-7q-53 2 -127 58q-37 26 -50 7z" />
    <glyph glyph-name="lessequal" unicode="&#x2264;" horiz-adv-x="564" 
d="M80 550l454 254v-185l-274 -150l274 -145v-186l-454 247v165zM533 137v-157h-453v157h453z" />
    <glyph glyph-name="greaterequal" unicode="&#x2265;" horiz-adv-x="564" 
d="M534 385l-454 -247v186l274 145l-274 150v185l454 -254v-165zM533 137v-157h-453v157h453z" />
    </font>
</defs>
</svg>
