<svg xmlns="http://www.w3.org/2000/svg">
<defs>
<font id="GoboldThinItalic-Italic" horiz-adv-x="1080" >
  <font-face 
    font-family="Gobold Thin Italic"
    font-weight="400"
    font-style="italic"
    font-stretch="normal"
    units-per-em="2048"
    panose-1="2 0 5 0 0 0 0 9 0 0"
    ascent="1638"
    descent="-410"
    x-height="1726"
    cap-height="1966"
    bbox="-284 -364 2515 2306"
    underline-thickness="150"
    underline-position="-442"
    slope="-11"
    unicode-range="U+0020-F002"
  />
<missing-glyph horiz-adv-x="1936" 
d="M1487 1760q-164 -40 -284 -149q-40 -37 -113 -121q-80 -94 -114 -129q-102 -102 -162 -144q-98 -68 -192 -68q-75 0 -120 38q-51 43 -48 119q1 19 5 38q13 67 57 125q61 80 146 94q21 4 38 4q28 0 49 -9q39 -18 30 -70q-9 13 -25 13q-14 0 -27 -10q-16 -13 -19 -27
q-7 -36 31 -36h2q38 0 68 42q14 23 18 46q5 21 0 44q-9 46 -46 68q-41 23 -106 23q-16 0 -32 -1q-141 -11 -245 -114l44 224h1045zM315 1109q65 -83 201 -83q18 0 40 2q112 9 293 159q49 42 139 124q80 73 110 97q82 63 152 63q38 0 73 -17q103 -52 219 -52q76 0 159 23
q162 45 318 168q-57 -206 -225 -382q-32 -33 -343 -300h-69q-51 0 -78 40l-131 -110h199q-295 -269 -378 -478q-23 -58 -33 -109q-16 -83 2 -147q28 -103 143 -142h-247l171 878l51 25l8 43h-812zM560 841q97 0 130 -40q34 -41 15 -137l-136 -699h-476l170 876h297zM812 843
h46l-171 -878h-46zM1459 -35q270 59 471 210l-41 -210h-430zM1934 194q-182 -92 -331 -110q-30 -3 -58 -3q-103 0 -152 49q-48 47 -31 132q6 32 21 70q64 151 268 361q97 99 140 148h193l-11 -60h75zM1852 911q167 208 214 448q10 54 15 110q13 166 9 165q21 64 143 99
l-160 -822h-221zM1116 1277q-93 0 -165 -53q-64 -48 -89 -119q-7 -17 -10 -34q-9 -46 10 -80q24 -43 85 -43q10 0 21 1q76 8 111 77q10 18 13 34q9 45 -29 78q-33 26 -27 59q2 6 6 13q16 39 71 52z" />
    <glyph glyph-name=".notdef" horiz-adv-x="1936" 
d="M1487 1760q-164 -40 -284 -149q-40 -37 -113 -121q-80 -94 -114 -129q-102 -102 -162 -144q-98 -68 -192 -68q-75 0 -120 38q-51 43 -48 119q1 19 5 38q13 67 57 125q61 80 146 94q21 4 38 4q28 0 49 -9q39 -18 30 -70q-9 13 -25 13q-14 0 -27 -10q-16 -13 -19 -27
q-7 -36 31 -36h2q38 0 68 42q14 23 18 46q5 21 0 44q-9 46 -46 68q-41 23 -106 23q-16 0 -32 -1q-141 -11 -245 -114l44 224h1045zM315 1109q65 -83 201 -83q18 0 40 2q112 9 293 159q49 42 139 124q80 73 110 97q82 63 152 63q38 0 73 -17q103 -52 219 -52q76 0 159 23
q162 45 318 168q-57 -206 -225 -382q-32 -33 -343 -300h-69q-51 0 -78 40l-131 -110h199q-295 -269 -378 -478q-23 -58 -33 -109q-16 -83 2 -147q28 -103 143 -142h-247l171 878l51 25l8 43h-812zM560 841q97 0 130 -40q34 -41 15 -137l-136 -699h-476l170 876h297zM812 843
h46l-171 -878h-46zM1459 -35q270 59 471 210l-41 -210h-430zM1934 194q-182 -92 -331 -110q-30 -3 -58 -3q-103 0 -152 49q-48 47 -31 132q6 32 21 70q64 151 268 361q97 99 140 148h193l-11 -60h75zM1852 911q167 208 214 448q10 54 15 110q13 166 9 165q21 64 143 99
l-160 -822h-221zM1116 1277q-93 0 -165 -53q-64 -48 -89 -119q-7 -17 -10 -34q-9 -46 10 -80q24 -43 85 -43q10 0 21 1q76 8 111 77q10 18 13 34q9 45 -29 78q-33 26 -27 59q2 6 6 13q16 39 71 52z" />
    <glyph glyph-name=".null" horiz-adv-x="0" 
 />
    <glyph glyph-name="nonmarkingreturn" horiz-adv-x="508" 
 />
    <glyph glyph-name="space" unicode=" " horiz-adv-x="508" 
 />
    <glyph glyph-name="space" unicode="&#xa0;" horiz-adv-x="508" 
 />
    <glyph glyph-name="exclam" unicode="!" horiz-adv-x="515" 
d="M777 1966l-307 -1466h-231l263 1466h275zM172 270h275l-53 -274h-275z" />
    <glyph glyph-name="quotedbl" unicode="&#x22;" horiz-adv-x="855" 
d="M872 1944h241l-151 -614h-177zM498 1944h241l-151 -614h-177z" />
    <glyph glyph-name="numbersign" unicode="#" horiz-adv-x="1330" 
d="M451 848l129 329h-227l18 96h247l273 694h181l-273 -694h318l273 694h182l-273 -694h198l-18 -96h-218l-129 -329h239l-19 -96h-259l-297 -756h-181l297 756h-318l-297 -756h-182l297 756h-186l19 96h206zM762 1177l-130 -329h319l129 329h-318z" />
    <glyph glyph-name="dollar" unicode="$" horiz-adv-x="1020" 
d="M438 1636q67 344 376 391l35 179h179l-35 -179q238 -38 238 -273q0 -54 -13 -118l-47 -243h-232l47 243q33 168 -124 169h-2q-158 0 -191 -169l-35 -185q-30 -152 218 -357q225 -187 175 -445l-50 -256q-67 -345 -377 -392l-48 -244h-179l48 244q-237 39 -237 274
q0 54 13 118l47 241h231l-47 -241q-33 -169 126 -169q158 0 191 169l45 231q31 163 -216 368q-224 188 -173 453z" />
    <glyph glyph-name="percent" unicode="%" horiz-adv-x="1599" 
d="M768 1081q-43 -219 -258 -219q-181 0 -181 152q0 31 7 67l141 730q43 219 260 219q215 0 172 -219zM1516 215q-42 -219 -259 -219h-2q-213 0 -171 219l142 730q43 219 258 219q181 0 181 -152q0 -31 -7 -67zM1548 945q22 112 -84 112h-2q-104 0 -126 -112l-142 -730
q-22 -112 83 -112q107 0 129 112zM1596 1966l-1109 -1971h-116l1110 1971h115zM799 1811q22 112 -83 112h-3q-104 0 -126 -112l-141 -730q-22 -111 85 -111q105 0 127 111z" />
    <glyph glyph-name="ampersand" unicode="&#x26;" horiz-adv-x="1157" 
d="M461 236q27 -14 89 -14q14 0 30 1q134 5 165 169l99 508h-160q-33 -1 -61 -12q-107 -38 -130 -157l-66 -339q-25 -130 34 -156zM888 1126l27 139h231l-27 -139h187l-44 -226h-187l-99 -508q-73 -380 -403 -395q-35 -1 -68 -1q-61 0 -105 5q-218 27 -218 260q0 59 14 131
l66 339q35 181 252 283q-177 101 -142 282l60 306q71 368 375 394q45 3 91 3q38 0 77 -2q309 -21 237 -395l-11 -56h-231l11 56q29 151 -66 167q-27 4 -57 4q-26 0 -55 -3q-110 -13 -140 -168l-60 -306q-23 -118 68 -158q24 -10 57 -12h160z" />
    <glyph glyph-name="quotesingle" unicode="'" horiz-adv-x="481" 
d="M498 1944h241l-151 -614h-177z" />
    <glyph glyph-name="parenleft" unicode="(" horiz-adv-x="496" 
d="M415 -260q-283 4 -283 268q0 58 14 129l329 1690q76 391 423 396l-35 -179q-116 -3 -148 -169l-347 -1787q-32 -165 82 -168z" />
    <glyph glyph-name="parenright" unicode=")" horiz-adv-x="496" 
d="M14 -80q116 3 148 168l347 1787q32 166 -82 169l35 179q283 -4 283 -267q0 -58 -14 -129l-329 -1690q-76 -392 -423 -397z" />
    <glyph glyph-name="asterisk" unicode="*" horiz-adv-x="978" 
d="M830 1646q180 128 244 155q30 13 52 13q46 0 58 -78q3 -16 3 -30t-3 -27q-11 -57 -90 -68q-16 -2 -35 -2q-70 0 -219 8q143 -119 176 -164q24 -34 19 -62q-7 -37 -68 -76q-50 -32 -81 -32q-37 0 -54 56q-19 60 -33 253q-92 -203 -134 -258q-38 -50 -75 -50q-30 0 -67 30
q-48 39 -41 75q5 29 48 66q56 46 243 161q-159 -10 -228 -10q-25 0 -40 3q-60 12 -60 56q0 7 1 15q5 23 21 54q39 79 87 79q24 0 53 -17q52 -30 182 -145q-37 184 -33 246q1 10 3 21q15 76 115 77h4q98 0 85 -71q-3 -15 -9 -30q-24 -66 -124 -248z" />
    <glyph glyph-name="plus" unicode="+" horiz-adv-x="1014" 
d="M591 892h-298l35 179h298l58 297h179l-58 -297h297l-35 -179h-297l-58 -297h-179z" />
    <glyph glyph-name="comma" unicode="," horiz-adv-x="541" 
d="M179 306h301l-50 -262l-172 -352h-130l126 339h-128z" />
    <glyph glyph-name="hyphen" unicode="-" horiz-adv-x="749" 
d="M219 868l35 179h649l-35 -179h-649z" />
    <glyph glyph-name="hyphen" unicode="&#xad;" horiz-adv-x="749" 
d="M219 868l35 179h649l-35 -179h-649z" />
    <glyph glyph-name="period" unicode="." horiz-adv-x="515" 
d="M173 276h275l-53 -275h-275z" />
    <glyph glyph-name="slash" unicode="/" horiz-adv-x="695" 
d="M1017 1967l-776 -1971h-182l776 1971h182z" />
    <glyph glyph-name="zero" unicode="0" horiz-adv-x="1020" 
d="M970 359q-77 -395 -467 -395q-326 0 -326 276q0 54 13 119l242 1244q77 396 467 396q326 0 326 -276q0 -55 -13 -120zM981 1603q32 168 -126 168h-2q-158 0 -190 -168l-242 -1244q-33 -168 126 -168t192 168z" />
    <glyph glyph-name="one" unicode="1" horiz-adv-x="1040" 
d="M1018 1966l-339 -1743h274l-44 -227h-780l44 227h275l295 1516h-275l44 227h506z" />
    <glyph glyph-name="two" unicode="2" horiz-adv-x="1040" 
d="M208 400q50 259 346 446q328 204 359 357l77 399q33 169 -124 169h-2q-159 0 -192 -169l-46 -241h-231l46 241q78 397 468 397q325 0 325 -276q0 -55 -13 -121l-79 -406q-51 -264 -348 -452q-328 -205 -360 -369l-30 -153h549l-44 -227h-780z" />
    <glyph glyph-name="three" unicode="3" horiz-adv-x="1040" 
d="M721 1095q179 27 210 199l60 309q32 168 -126 168q-160 0 -192 -168l-48 -243h-231l48 243q76 395 468 396q325 0 325 -276q0 -55 -13 -120l-62 -319q-40 -205 -257 -307q177 -101 142 -283l-65 -335q-77 -396 -466 -396q-327 1 -327 277q0 54 13 119l47 243h231
l-47 -243q-33 -168 127 -168q158 0 191 168l65 335q35 164 -139 173h-111l44 228h113z" />
    <glyph glyph-name="four" unicode="4" horiz-adv-x="1046" 
d="M1260 1966l-242 -1245h113l-44 -227h-113l-97 -498h-231l97 498h-595l43 220l746 1252h323zM404 721h383l189 971z" />
    <glyph glyph-name="five" unicode="5" horiz-adv-x="1040" 
d="M861 937q25 128 -34 155q-27 15 -89 15q-15 0 -30 -1q-115 -5 -150 -108l-13 -54h-231l240 1023h738l-44 -227h-516l-134 -556q129 136 267 143q15 0 32 -3q138 -12 190 -110q43 -81 5 -277l-112 -578q-77 -395 -467 -395q-326 0 -326 276q0 54 13 119l41 210h231
l-41 -210q-33 -168 126 -168t192 168z" />
    <glyph glyph-name="six" unicode="6" horiz-adv-x="1040" 
d="M980 359q-77 -395 -467 -395q-326 0 -326 276q0 54 13 119l242 1244q77 396 467 396q326 0 326 -276q0 -55 -13 -120l-47 -242h-231l47 242q32 168 -126 168h-2q-158 0 -190 -168l-110 -564q147 112 255 112q21 0 41 -2q127 -14 184 -90q57 -80 15 -296zM431 359
q-33 -168 126 -168t192 168l78 404q26 130 -33 157q-28 13 -90 13q-15 0 -30 -1q-133 -5 -165 -169z" />
    <glyph glyph-name="seven" unicode="7" horiz-adv-x="1041" 
d="M459 1739l44 227h805l-34 -174l-753 -1796h-237l730 1743h-555z" />
    <glyph glyph-name="eight" unicode="8" horiz-adv-x="1040" 
d="M431 359q-33 -168 127 -168q158 0 191 168l65 333q36 173 -126 173t-192 -173zM442 1603q76 395 468 396q325 0 325 -276q0 -55 -13 -120l-67 -343q-35 -181 -252 -283q177 -101 142 -283l-65 -335q-77 -396 -466 -396q-327 1 -327 277q0 54 13 119l65 335
q35 182 252 283q-177 102 -142 283zM606 1260q-36 -167 98 -172q16 -1 32 -1q61 0 95 12q70 30 93 161l67 343q32 168 -126 168q-160 0 -192 -168z" />
    <glyph glyph-name="nine" unicode="9" horiz-adv-x="1040" 
d="M991 1603q32 168 -126 168q-160 0 -192 -168l-79 -404q-25 -129 34 -157q27 -12 87 -12q15 0 30 1q135 4 167 168zM442 1603q76 395 468 396q325 0 325 -276q0 -55 -13 -120l-242 -1244q-77 -395 -467 -395q-326 0 -326 276q0 54 13 119l47 243h231l-47 -243
q-33 -167 126 -168h2q157 0 190 168l110 565q-148 -113 -258 -113q-19 0 -38 2q-127 14 -183 90q-59 81 -17 296z" />
    <glyph glyph-name="colon" unicode=":" horiz-adv-x="514" 
d="M377 1322h274l-54 -274h-274zM174 282h274l-53 -275h-274z" />
    <glyph glyph-name="semicolon" unicode=";" horiz-adv-x="541" 
d="M176 288h301l-51 -263l-171 -351h-130l126 339h-128zM379 1328h275l-54 -274h-275z" />
    <glyph glyph-name="semicolon" unicode="&#x37e;" horiz-adv-x="541" 
d="M176 288h301l-51 -263l-171 -351h-130l126 339h-128zM379 1328h275l-54 -274h-275z" />
    <glyph glyph-name="less" unicode="&#x3c;" horiz-adv-x="1014" 
d="M335 1106l859 434l-42 -213l-710 -350l576 -341l-41 -213l-693 419z" />
    <glyph glyph-name="equal" unicode="=" horiz-adv-x="1014" 
d="M340 1131l35 179h774l-35 -179h-774zM247 652l35 178h774l-35 -178h-774z" />
    <glyph glyph-name="greater" unicode="&#x3e;" horiz-adv-x="1014" 
d="M1057 842l-855 -419l41 213l709 341l-574 350l41 213l690 -434z" />
    <glyph glyph-name="question" unicode="?" horiz-adv-x="1020" 
d="M292 270h275l-53 -275h-275zM1172 1398q-48 -246 -283 -441q-257 -215 -289 -380l-15 -77h-231l20 102q47 241 282 436q256 213 286 367l38 197q33 169 -124 169h-2q-159 0 -192 -169l-46 -241h-231l46 241q78 397 469 397q324 0 324 -275q0 -56 -13 -122z" />
    <glyph glyph-name="at" unicode="@" horiz-adv-x="1465" 
d="M1595 1345l-22 -113q-49 -251 -295 -251h-144l-75 -387q-49 -251 -295 -251t-197 251l52 266q49 250 295 250h116l58 302q24 121 -91 121h-2q-114 0 -138 -121l-8 -41h-131l8 41q49 250 295 250t197 -250l-58 -302h144q115 0 138 122l38 193q89 458 -381 458
q-471 0 -563 -472l-161 -830q-89 -458 382 -458q470 0 561 471l3 13h132l-3 -13q-116 -598 -718 -598q-507 0 -507 414q0 78 18 171l161 830q116 599 719 599q507 0 507 -415q0 -78 -18 -170l-16 -80h-1zM872 982q-115 0 -139 -122l-52 -266q-23 -122 92 -122q116 0 139 122
l75 387z" />
    <glyph glyph-name="A" unicode="A" horiz-adv-x="1016" 
d="M1016 682l-41 -686h-235l27 431h-353l-142 -431h-233l223 682l453 1288h349zM781 655l69 1113l-363 -1113h294z" />
    <glyph glyph-name="B" unicode="B" horiz-adv-x="1010" 
d="M512 1966h421q296 -1 296 -270q0 -57 -14 -127l-60 -305q-35 -181 -252 -283q178 -102 142 -283l-59 -306q-77 -395 -456 -396h-401zM699 1739l-125 -644h123q67 0 98 10q107 41 129 159l60 305q33 170 -125 170h-160zM529 867l-125 -644h160q158 0 191 169l59 306
q24 119 -68 158q-26 11 -94 11h-123z" />
    <glyph glyph-name="C" unicode="C" horiz-adv-x="990" 
d="M960 359q-77 -395 -467 -396q-326 0 -326 276q0 55 13 120l242 1244q77 395 467 395q326 0 326 -276q0 -54 -13 -119l-47 -243h-231l47 243q32 167 -126 168h-2q-158 0 -190 -168l-242 -1244q-33 -168 126 -168t192 168l47 243h231z" />
    <glyph glyph-name="D" unicode="D" horiz-adv-x="1020" 
d="M512 1966h421q296 -1 296 -270q0 -57 -14 -127l-229 -1177q-77 -395 -456 -396h-401zM699 1739l-295 -1516h160q158 0 191 169l229 1177q33 170 -125 170h-160z" />
    <glyph glyph-name="E" unicode="E" horiz-adv-x="908" 
d="M976 1095l-45 -228h-402l-125 -644h467l-44 -227h-698l383 1970h698l-44 -227h-467l-125 -644h402z" />
    <glyph glyph-name="F" unicode="F" horiz-adv-x="888" 
d="M512 1966h698l-44 -227h-467l-125 -644h402l-45 -228h-402l-169 -871h-231z" />
    <glyph glyph-name="G" unicode="G" horiz-adv-x="1000" 
d="M960 359q-77 -395 -467 -396q-326 0 -326 276q0 55 13 120l242 1244q77 395 467 395q326 0 326 -276q0 -54 -13 -119l-47 -243h-231l47 243q32 167 -126 168h-2q-158 0 -190 -168l-242 -1244q-33 -168 126 -168t192 168l99 508h-148l44 228h379z" />
    <glyph glyph-name="H" unicode="H" horiz-adv-x="1040" 
d="M512 1966h231l-169 -871h318l169 871h231l-383 -1970h-231l169 871h-318l-169 -871h-231z" />
    <glyph glyph-name="I" unicode="I" horiz-adv-x="501" 
d="M517 1966h231l-383 -1970h-231z" />
    <glyph glyph-name="J" unicode="J" horiz-adv-x="940" 
d="M117 449h231l-17 -89q-33 -169 127 -169q158 0 191 169l312 1607h231l-312 -1607q-77 -397 -466 -397q-327 1 -327 277q0 55 13 120z" />
    <glyph glyph-name="K" unicode="K" horiz-adv-x="1012" 
d="M773 981l198 -985h-246l-186 923l-179 -923h-231l383 1970h231l-180 -927l545 927h246z" />
    <glyph glyph-name="L" unicode="L" horiz-adv-x="868" 
d="M129 -4l383 1970h231l-339 -1743h467l-44 -227h-698z" />
    <glyph glyph-name="M" unicode="M" horiz-adv-x="1470" 
d="M829 475l656 1491h237l-383 -1970h-219l271 1395l-577 -1395h-149l-44 1388l-270 -1388h-222l383 1970h238z" />
    <glyph glyph-name="N" unicode="N" horiz-adv-x="1040" 
d="M512 1966h237l59 -1415l274 1411l210 3l-383 -1969h-237l-55 1380l-268 -1380h-220z" />
    <glyph glyph-name="O" unicode="O" horiz-adv-x="1000" 
d="M960 359q-77 -395 -467 -396q-326 0 -326 276q0 55 13 120l242 1244q77 395 467 395q326 0 326 -276q0 -54 -13 -119zM971 1603q32 167 -126 168h-2q-158 0 -190 -168l-242 -1244q-33 -168 126 -168t192 168z" />
    <glyph glyph-name="P" unicode="P" horiz-adv-x="965" 
d="M512 1966h396q296 -1 296 -270q0 -57 -14 -127l-60 -305q-56 -292 -332 -376q-67 -21 -190 -21h-79l-169 -871h-231zM699 1739l-125 -644h98q67 0 98 10q107 41 129 159l60 305q33 170 -125 170h-135z" />
    <glyph glyph-name="Q" unicode="Q" horiz-adv-x="1000" 
d="M961 365q-69 -355 -400 -395q-15 -124 299 -126l-36 -183q-222 0 -303 48q-99 56 -62 260q-290 22 -290 280q0 53 12 116l242 1243q77 396 467 396q326 0 326 -276q0 -55 -13 -120zM972 1608q32 168 -126 169h-2q-158 0 -190 -169l-242 -1243q-33 -169 126 -169t192 169z
" />
    <glyph glyph-name="R" unicode="R" horiz-adv-x="1001" 
d="M512 1966h396q296 -1 296 -270q0 -57 -14 -127l-60 -305q-48 -247 -304 -335l144 -933h-255l-91 897l-92 -12l-172 -885h-231zM699 1739l-125 -644h98q67 0 98 10q107 41 129 159l60 305q33 170 -125 170h-135z" />
    <glyph glyph-name="S" unicode="S" horiz-adv-x="1000" 
d="M422 1603q76 395 466 395q326 0 326 -277q0 -54 -12 -118l-48 -243h-231l48 243q32 167 -126 168h-2q-158 0 -190 -168l-36 -185q-30 -151 218 -357q225 -187 175 -445l-50 -257q-77 -396 -466 -396q-327 1 -327 277q0 54 13 119l47 243h231l-47 -243q-33 -168 127 -168
q158 0 191 168l45 232q32 163 -216 369q-225 187 -174 452z" />
    <glyph glyph-name="T" unicode="T" horiz-adv-x="880" 
d="M1212 1966l-44 -227h-274l-339 -1743h-231l339 1743h-275l44 227h780z" />
    <glyph glyph-name="U" unicode="U" horiz-adv-x="1020" 
d="M970 360q-77 -396 -467 -397q-326 0 -326 277q0 55 13 120l313 1607h231l-313 -1607q-33 -169 126 -169t192 169l313 1607h231z" />
    <glyph glyph-name="V" unicode="V" horiz-adv-x="1016" 
d="M681 -4h-349l47 1286l43 684h233l-111 -1772l579 1772h235l-225 -686z" />
    <glyph glyph-name="W" unicode="W" horiz-adv-x="1721" 
d="M1250 194l579 1772h234l-224 -686l-452 -1284h-348l61 1236l-419 -1236h-349l47 1286l43 684h232l-110 -1772l579 1772h237z" />
    <glyph glyph-name="X" unicode="X" horiz-adv-x="965" 
d="M652 1966l88 -639l337 639h230l-520 -985l137 -985h-230l-89 639l-336 -639h-230l518 985l-135 985h230z" />
    <glyph glyph-name="Y" unicode="Y" horiz-adv-x="1018" 
d="M666 1966l51 -889l398 889h245l-576 -1141l-161 -829h-231l161 829l-131 1141h244z" />
    <glyph glyph-name="Z" unicode="Z" horiz-adv-x="844" 
d="M1101 1825l-719 -1602h425l-44 -227h-684l27 141l719 1602h-394l44 227h653z" />
    <glyph glyph-name="bracketleft" unicode="[" horiz-adv-x="499" 
d="M901 2223l-35 -178h-160l-413 -2126h160l-35 -179h-339l483 2483h339z" />
    <glyph glyph-name="backslash" unicode="\" horiz-adv-x="695" 
d="M624 1967l10 -1971h-182l-10 1971h182z" />
    <glyph glyph-name="bracketright" unicode="]" horiz-adv-x="499" 
d="M801 2223l-483 -2483h-339l35 179h160l413 2126h-160l35 178h339z" />
    <glyph glyph-name="asciicircum" unicode="^" horiz-adv-x="1096" 
d="M1041 1962l186 -773h-195l-140 582l-365 -582h-196l487 773h223z" />
    <glyph glyph-name="underscore" unicode="_" horiz-adv-x="1007" 
d="M-57 -291l31 157h1007l-31 -157h-1007z" />
    <glyph glyph-name="grave" unicode="`" horiz-adv-x="663" 
d="M525 2031h186l178 -199h-141l-229 168z" />
    <glyph glyph-name="a" unicode="a" horiz-adv-x="1016" 
d="M1000 599l-25 -603h-235l17 379h-353l-132 -379h-233l207 601l423 1133h349zM766 576l43 980l-337 -980h294z" />
    <glyph glyph-name="b" unicode="b" horiz-adv-x="1010" 
d="M466 1730h421q302 -1 302 -247q0 -47 -11 -102l-52 -269q-31 -160 -245 -249q179 -90 148 -249l-52 -270q-68 -347 -447 -348h-401zM658 1530l-110 -567h123q67 0 98 9q106 36 126 140l52 269q29 149 -129 149h-160zM509 762l-110 -567h160q158 0 187 149l52 270
q21 105 -72 138q-26 10 -94 10h-123z" />
    <glyph glyph-name="c" unicode="c" horiz-adv-x="990" 
d="M951 312q-68 -348 -458 -349q-332 0 -332 253q0 44 10 96l212 1094q68 348 458 348q332 0 332 -252q0 -44 -10 -96l-41 -214h-231l41 214q29 148 -129 148h-2q-158 0 -187 -148l-212 -1094q-29 -149 130 -149t188 149l41 213h231z" />
    <glyph glyph-name="d" unicode="d" horiz-adv-x="1020" 
d="M466 1730h421q302 -1 302 -247q0 -47 -11 -102l-201 -1037q-68 -347 -447 -348h-401zM658 1530l-259 -1335h160q158 0 187 149l201 1037q29 149 -129 149h-160z" />
    <glyph glyph-name="e" unicode="e" horiz-adv-x="908" 
d="M466 1730h698l-39 -200h-467l-110 -567h402l-39 -201h-402l-110 -567h467l-39 -199h-698z" />
    <glyph glyph-name="f" unicode="f" horiz-adv-x="888" 
d="M466 1730h698l-39 -200h-467l-110 -567h402l-39 -201h-402l-149 -766h-231z" />
    <glyph glyph-name="g" unicode="g" horiz-adv-x="1000" 
d="M951 312q-68 -348 -458 -349q-332 0 -332 253q0 44 10 96l212 1094q68 348 458 348q332 0 332 -252q0 -44 -10 -96l-41 -214h-231l41 214q29 148 -129 148h-2q-158 0 -187 -148l-212 -1094q-29 -149 130 -149t188 149l87 447h-148l39 200h379z" />
    <glyph glyph-name="h" unicode="h" horiz-adv-x="1040" 
d="M466 1730h231l-149 -767h318l149 767h231l-337 -1734h-231l149 766h-318l-149 -766h-231z" />
    <glyph glyph-name="i" unicode="i" horiz-adv-x="501" 
d="M471 1730h231l-337 -1734h-231z" />
    <glyph glyph-name="j" unicode="j" horiz-adv-x="940" 
d="M106 391h231l-15 -79q-29 -148 131 -148q158 0 187 148l274 1414h231l-274 -1414q-68 -349 -457 -349q-333 1 -333 253q0 44 10 96z" />
    <glyph glyph-name="k" unicode="k" horiz-adv-x="1012" 
d="M751 863l220 -867h-246l-207 812l-158 -812h-231l337 1734h231l-159 -816l524 816h246z" />
    <glyph glyph-name="l" unicode="l" horiz-adv-x="868" 
d="M129 -4l337 1734h231l-298 -1535h467l-39 -199h-698z" />
    <glyph glyph-name="m" unicode="m" horiz-adv-x="1470" 
d="M818 418l621 1312h237l-337 -1734h-219l239 1228l-545 -1228h-149l-77 1221l-237 -1221h-222l337 1734h238z" />
    <glyph glyph-name="n" unicode="n" horiz-adv-x="1040" 
d="M466 1730h237l92 -1246l241 1242l210 3l-337 -1733h-237l-87 1214l-236 -1214h-220z" />
    <glyph glyph-name="o" unicode="o" horiz-adv-x="1000" 
d="M951 312q-68 -348 -458 -349q-332 0 -332 253q0 44 10 96l212 1094q68 348 458 348q332 0 332 -252q0 -44 -10 -96zM932 1406q29 148 -129 148h-2q-158 0 -187 -148l-212 -1094q-29 -149 130 -149t188 149z" />
    <glyph glyph-name="p" unicode="p" horiz-adv-x="965" 
d="M466 1730h396q302 -1 302 -247q0 -47 -11 -102l-52 -269q-50 -257 -323 -331q-67 -19 -190 -19h-79l-149 -766h-231zM658 1530l-110 -567h98q67 0 98 9q106 36 126 140l52 269q29 149 -129 149h-135z" />
    <glyph glyph-name="q" unicode="q" horiz-adv-x="1000" 
d="M944 280q-60 -311 -390 -347q-12 -109 301 -111l-31 -161q-222 0 -304 42q-100 49 -68 229q-298 20 -298 256q0 43 10 92l213 1094q68 349 458 349q332 0 332 -253q0 -44 -10 -96zM926 1374q29 148 -129 149h-2q-158 0 -187 -149l-213 -1094q-29 -148 130 -148t188 148z
" />
    <glyph glyph-name="r" unicode="r" horiz-adv-x="1001" 
d="M466 1730h396q302 -1 302 -247q0 -47 -11 -102l-52 -269q-42 -217 -296 -295l165 -821h-255l-112 789l-92 -11l-151 -778h-231zM658 1530l-110 -567h98q67 0 98 9q106 36 126 140l52 269q29 149 -129 149h-135z" />
    <glyph glyph-name="s" unicode="s" horiz-adv-x="1000" 
d="M383 1406q68 348 458 348q332 0 332 -252q0 -44 -10 -96l-41 -214h-231l41 214q29 148 -129 148h-2q-158 0 -187 -148l-31 -162q-26 -134 227 -315q229 -164 185 -391l-44 -226q-68 -349 -457 -349q-333 1 -333 253q0 44 10 96l41 213h231l-41 -213q-29 -149 131 -149
q158 0 187 149l39 204q28 143 -225 325q-229 164 -183 397z" />
    <glyph glyph-name="t" unicode="t" horiz-adv-x="880" 
d="M1166 1730l-39 -200h-274l-298 -1534h-231l298 1534h-275l39 200h780z" />
    <glyph glyph-name="u" unicode="u" horiz-adv-x="1020" 
d="M961 312q-68 -348 -458 -349q-332 0 -332 253q0 44 10 96l275 1414h231l-275 -1414q-29 -148 130 -148t188 148l275 1414h231z" />
    <glyph glyph-name="v" unicode="v" horiz-adv-x="1016" 
d="M681 -4h-349l17 1132l27 602h233l-69 -1560l537 1560h235l-209 -604z" />
    <glyph glyph-name="w" unicode="w" horiz-adv-x="1721" 
d="M1246 170l537 1560h234l-208 -604l-422 -1130h-348l32 1087l-390 -1087h-349l17 1132l27 602h232l-68 -1560l537 1560h237z" />
    <glyph glyph-name="x" unicode="x" horiz-adv-x="965" 
d="M606 1730l103 -563l322 563h230l-496 -867l159 -867h-230l-104 562l-321 -562h-230l496 867l-159 867h230z" />
    <glyph glyph-name="y" unicode="y" horiz-adv-x="1018" 
d="M620 1730l72 -782l377 782h245l-549 -1005l-142 -729h-231l142 729l-158 1005h244z" />
    <glyph glyph-name="z" unicode="z" horiz-adv-x="844" 
d="M1058 1606l-681 -1411h425l-39 -199h-684l24 124l681 1410h-394l39 200h653z" />
    <glyph glyph-name="braceleft" unicode="{" horiz-adv-x="501" 
d="M420 -260q-283 4 -283 268q0 58 14 129l114 586q32 166 -82 168l35 181q116 3 148 168l114 587q76 391 423 396l-35 -179q-116 -3 -148 -169l-114 -586q-38 -195 -151 -307q69 -113 32 -308l-114 -586q-32 -165 82 -168z" />
    <glyph glyph-name="bar" unicode="|" horiz-adv-x="458" 
d="M588 2306h178l-515 -2649h-178z" />
    <glyph glyph-name="braceright" unicode="}" horiz-adv-x="501" 
d="M14 -80q116 3 148 168l114 586q37 195 150 308q-69 112 -31 307l114 586q32 166 -82 169l35 179q283 -4 283 -267q0 -58 -14 -129l-114 -587q-33 -165 82 -168l-35 -181q-116 -2 -148 -168l-114 -586q-76 -392 -423 -397z" />
    <glyph glyph-name="asciitilde" unicode="~" horiz-adv-x="1045" 
d="M391 869l-107 78l51 61q122 145 242 145h10q80 -5 194 -104q66 -59 122 -59q48 0 84 36l55 57l96 -90l-55 -56q-105 -107 -209 -107h-11q-80 5 -191 103q-75 66 -98 70q-8 2 -17 2q-52 0 -115 -76z" />
    <glyph glyph-name="exclamdown" unicode="&#xa1;" horiz-adv-x="575" 
d="M-262 -237l307 1466h231l-263 -1466h-275zM343 1459h-275l53 274h275z" />
    <glyph glyph-name="cent" unicode="&#xa2;" horiz-adv-x="1030" 
d="M428 393l520 1040q11 133 -132 134q-160 0 -190 -153zM423 217q44 -50 120 -50q159 0 188 152l41 210h231l-41 -210q-67 -345 -457 -345q-96 0 -190 28l-170 -338l-79 5l184 369q-104 96 -68 281l213 1095q67 346 457 346q126 0 234 -48l126 249l78 -6l-147 -296
q61 -96 32 -245l-40 -209h-218z" />
    <glyph glyph-name="sterling" unicode="&#xa3;" horiz-adv-x="1100" 
d="M675 946l-80 -410q-34 -174 -151 -314h557l-44 -227h-898l44 227h40q160 0 193 170l108 554h-200l20 102h200l107 554q78 397 467 397q326 0 326 -276q0 -55 -13 -121l-46 -241h-231l46 241q33 169 -125 169h-3q-157 0 -190 -169l-107 -554h343l-20 -102h-343z" />
    <glyph glyph-name="currency" unicode="&#xa4;" horiz-adv-x="1351" 
d="M1231 844q-11 -57 -34 -122l133 -162l-158 -133l-90 112q-132 -91 -319 -91q-189 0 -284 90l-132 -112l-108 134l195 162q5 64 16 122l54 276q9 49 26 104l-131 161l159 133l82 -103q133 102 331 102q197 0 291 -102l122 103l106 -133l-193 -161q-3 -56 -12 -104z
M1054 1120q33 168 -126 169h-2q-158 0 -191 -169l-54 -276q-33 -169 126 -169q160 0 193 169z" />
    <glyph glyph-name="yen" unicode="&#xa5;" horiz-adv-x="1138" 
d="M599 945l-117 1021h244l52 -887l397 887h245l-513 -1021h233l-20 -102h-272l-44 -227h272l-20 -102h-272l-101 -518h-231l101 518h-271l20 102h271l44 227h-271l20 102h233z" />
    <glyph glyph-name="brokenbar" unicode="&#xa6;" horiz-adv-x="458" 
d="M476 1729h178l-138 -708h-178zM286 750h178l-146 -750h-178z" />
    <glyph glyph-name="section" unicode="&#xa7;" horiz-adv-x="1020" 
d="M447 -338q-309 0 -309 255q0 49 11 108l15 79h231l-15 -79q-31 -159 117 -159q145 0 176 159q42 216 -213 392q-229 155 -163 494q51 261 299 351q-201 154 -152 405q65 338 451 338q314 0 314 -244q0 -43 -10 -94l-14 -73h-231l14 73q29 150 -118 150q-146 0 -175 -150
q-40 -204 218 -369q231 -146 169 -462q-52 -270 -365 -339q264 -184 208 -472q-71 -363 -458 -363zM846 898q35 179 -134 181h-2q-168 0 -203 -181l-8 -42q-35 -180 134 -180q170 0 205 180z" />
    <glyph glyph-name="dieresis" unicode="&#xa8;" horiz-adv-x="860" 
d="M523 2021h189l-37 -188h-189zM933 2021h190l-37 -188h-190z" />
    <glyph glyph-name="copyright" unicode="&#xa9;" horiz-adv-x="1445" 
d="M1440 594q-116 -598 -719 -598q-506 0 -506 414q0 78 18 171l161 830q116 599 718 599q508 0 508 -415q0 -78 -18 -170zM1470 1425q89 458 -381 458q-471 0 -563 -472l-161 -830q-89 -458 381 -458q471 0 562 471zM1088 590q-49 -254 -299 -254q-249 0 -200 254l161 826
q49 253 298 253q250 0 201 -253l-9 -48h-134l9 48q24 123 -91 124q-117 0 -141 -124l-161 -826q-24 -124 92 -124t140 124l10 47h134z" />
    <glyph glyph-name="ordfeminine" unicode="&#xaa;" horiz-adv-x="711" 
d="M845 1290l-11 -345h-133l8 229h-251l-83 -229h-132l124 344l262 668h214zM710 1264l11 626l-232 -626h221zM164 526l27 138h579l-27 -138h-579z" />
    <glyph glyph-name="guillemotleft" unicode="&#xab;" horiz-adv-x="1322" 
d="M862 1200l-290 -211l210 -205l-48 -246l-409 464l587 455zM1351 1200l-290 -211l210 -205l-48 -246l-409 464l587 455z" />
    <glyph glyph-name="logicalnot" unicode="&#xac;" horiz-adv-x="1034" 
d="M304 897l35 179h774l-93 -476h-178l58 297h-596z" />
    <glyph glyph-name="registered" unicode="&#xae;" horiz-adv-x="1445" 
d="M1440 594q-116 -598 -719 -598q-506 0 -506 414q0 78 18 171l161 830q116 599 718 599q508 0 508 -415q0 -78 -18 -170zM1470 1425q89 458 -381 458q-471 0 -563 -472l-161 -830q-89 -458 381 -458q471 0 562 471zM790 1648l257 -1h13q228 0 179 -252l-40 -204
q-22 -114 -180 -188q129 -74 107 -189l-89 -456h-132l89 456q17 85 -51 115q-18 9 -66 9h-92l-113 -580h-133zM898 1518l-88 -450h92q48 0 70 9q79 29 95 114l40 204q24 123 -92 123h-117z" />
    <glyph glyph-name="macron" unicode="&#xaf;" horiz-adv-x="1189" 
d="M346 1779l31 157h1189l-31 -157h-1189z" />
    <glyph glyph-name="degree" unicode="&#xb0;" horiz-adv-x="837" 
d="M812 2029q242 0 242 -202q0 -39 -9 -86q-56 -289 -345 -289q-241 0 -241 203q0 39 9 86q56 288 344 288zM787 1902q-161 0 -192 -161q-31 -162 130 -162q162 0 193 162q31 161 -131 161z" />
    <glyph glyph-name="plusminus" unicode="&#xb1;" horiz-adv-x="1014" 
d="M593 899h-298l35 180h298l58 297h179l-58 -297h297l-35 -180h-297l-58 -297h-179zM956 327l-31 -158h-772l31 158h772z" />
    <glyph glyph-name="uni00B2" unicode="&#xb2;" horiz-adv-x="629" 
d="M307 1065q28 144 194 250q197 122 217 218l45 232q21 112 -84 112h-1q-105 0 -126 -112l-25 -127h-109l25 127q42 219 256 219q180 0 180 -153q0 -30 -7 -66l-46 -236q-29 -148 -197 -254q-197 -123 -216 -225l-20 -102h320l-21 -107h-429z" />
    <glyph glyph-name="uni00B3" unicode="&#xb3;" horiz-adv-x="634" 
d="M670 1256q16 85 -25 106q-20 9 -56 9h-28l21 107h41q32 0 54 12q42 23 57 100l35 179q17 84 -24 106q-20 9 -58 9q-11 0 -21 -2q-91 -3 -113 -113l-25 -129h-109l25 130q31 155 123 197q69 34 135 34q63 0 123 -29q62 -30 62 -123q0 -35 -9 -79l-35 -181
q-19 -99 -162 -167q117 -67 98 -166l-43 -218q-27 -140 -103 -188q-50 -30 -148 -34h-15q-87 0 -127 27q-49 32 -49 116q0 35 8 79l25 130h109l-25 -131q-22 -114 86 -114t130 114z" />
    <glyph glyph-name="acute" unicode="&#xb4;" horiz-adv-x="663" 
d="M922 2000l-295 -168h-141l256 199h186z" />
    <glyph glyph-name="mu" unicode="&#xb5;" horiz-adv-x="1030" 
d="M433 370q-32 -168 127 -168t191 169l247 1268h231l-247 -1268q-69 -358 -378 -391q-19 -3 -36 -3q-87 0 -195 81l-76 -389h-231l383 1970h231z" />
    <glyph glyph-name="paragraph" unicode="&#xb6;" horiz-adv-x="1142" 
d="M1394 1967l-383 -1971h-146l355 1825h-294l-355 -1825h-146l206 1058q-221 0 -261 34q-29 25 -29 99q0 54 16 135l71 367q37 190 109 240q56 38 240 38h617z" />
    <glyph glyph-name="periodcentered" unicode="&#xb7;" horiz-adv-x="516" 
d="M165.046 1077.59h233.743l-45.0488 -233.744h-233.743z" />
    <glyph glyph-name="periodcentered" unicode="&#x2219;" horiz-adv-x="516" 
d="M165.046 1077.59h233.743l-45.0488 -233.744h-233.743z" />
    <glyph glyph-name="cedilla" unicode="&#xb8;" horiz-adv-x="584" 
d="M235 -49q59 31 103 31q8 0 17 -2q48 -7 63 -31q8 -15 8 -37q0 -14 -3 -31l-25 -128q-14 -72 -113 -80q-18 -2 -40 -2q-12 0 -23 1q-103 3 -103 63q0 8 2 17h75q-11 -56 53 -56q63 0 74 57l25 128q11 58 -48 61h-3q-48 0 -61 -22h-72l48 123h69z" />
    <glyph glyph-name="uni00B9" unicode="&#xb9;" horiz-adv-x="1028" 
d="M774 1951l-196 -1006h159l-20 -104h-424l20 104h159l176 902h-159l20 104h265z" />
    <glyph glyph-name="ordmasculine" unicode="&#xba;" horiz-adv-x="734" 
d="M829 1106q-38 -195 -285 -195t-209 195l127 656q38 195 285 195q214 0 214 -146q0 -23 -5 -49zM825 1762q20 104 -94 105q-116 0 -137 -105l-127 -656q-21 -105 94 -105q116 0 137 105zM229 511l23 119h473l-23 -119h-473z" />
    <glyph glyph-name="guillemotright" unicode="&#xbb;" horiz-adv-x="1322" 
d="M414 1457l410 -455l-589 -464l48 246l290 205l-209 211zM903 1457l410 -455l-589 -464l48 246l290 205l-209 211z" />
    <glyph glyph-name="onequarter" unicode="&#xbc;" horiz-adv-x="1597" 
d="M1645 1099l-139 -714h65l-20 -103h-65l-55 -286h-106l55 286h-341l22 109l421 708h163zM1148 385h252l125 639zM1687 1967l-1108 -1971h-116l1109 1971h115zM767 1966l-196 -1006h159l-20 -104h-424l20 104h159l176 902h-159l20 104h265z" />
    <glyph glyph-name="onehalf" unicode="&#xbd;" horiz-adv-x="1678" 
d="M1627 1967l-1108 -1971h-116l1109 1971h115zM707 1966l-196 -1006h159l-20 -104h-424l20 104h159l176 902h-159l20 104h265zM1191 220q28 144 195 249q196 122 216 219l45 232q22 112 -83 112h-1q-105 0 -127 -112l-24 -128h-109l24 128q43 218 257 218q179 0 179 -151
q0 -31 -7 -67l-45 -236q-29 -148 -197 -254q-197 -123 -217 -225l-20 -103h320l-20 -106h-429z" />
    <glyph glyph-name="threequarters" unicode="&#xbe;" horiz-adv-x="1535" 
d="M1583 1098l-139 -714h65l-20 -103h-65l-55 -286h-106l55 286h-340l22 110l420 707h163zM1087 384h251l125 640zM1626 1966l-1108 -1971h-116l1109 1971h115zM672 1270q16 85 -25 107q-20 8 -56 8h-28l21 108h41q32 0 54 11q42 23 58 101l34 178q17 85 -24 107
q-20 8 -58 8q-11 0 -21 -1q-91 -3 -113 -114l-25 -128h-109l25 129q31 155 123 198q69 33 135 33q63 0 123 -29q85 -40 53 -202l-35 -180q-19 -100 -162 -167q117 -67 98 -167l-43 -217q-27 -140 -103 -189q-50 -30 -148 -33h-15q-87 0 -127 27q-49 31 -49 116q0 35 8 79
l25 129h109l-25 -130q-22 -114 86 -114t130 114z" />
    <glyph glyph-name="questiondown" unicode="&#xbf;" 
d="M728 1459h-275l53 275h275zM-152 331q48 246 283 441q257 215 289 380l15 77h231l-20 -102q-47 -241 -282 -436q-256 -213 -286 -367l-38 -197q-33 -169 124 -169h2q159 0 192 169l46 241h231l-46 -241q-78 -397 -469 -397q-324 0 -324 275q0 56 13 122z" />
    <glyph glyph-name="Agrave" unicode="&#xc0;" horiz-adv-x="1124" 
d="M1036 682l-41 -686h-235l27 431h-353l-142 -431h-233l223 682l453 1288h349zM801 655l69 1113l-363 -1113h294zM615 2264h186l178 -199h-141l-229 168z" />
    <glyph glyph-name="Aacute" unicode="&#xc1;" horiz-adv-x="1124" 
d="M1036 682l-41 -686h-235l27 431h-353l-142 -431h-233l223 682l453 1288h349zM801 655l69 1113l-363 -1113h294zM1223 2233l-295 -168h-141l256 199h186z" />
    <glyph glyph-name="Acircumflex" unicode="&#xc2;" horiz-adv-x="1124" 
d="M1036 682l-41 -686h-235l27 431h-353l-142 -431h-233l223 682l453 1288h349zM801 655l69 1113l-363 -1113h294zM557 2066l240 198h249l165 -198h-177l-131 102l-170 -102h-176z" />
    <glyph glyph-name="Atilde" unicode="&#xc3;" horiz-adv-x="1124" 
d="M1036 682l-41 -686h-235l27 431h-353l-142 -431h-233l223 682l453 1288h349zM801 655l69 1113l-363 -1113h294zM652 2043l-78 47l32 46q85 124 178 129h6q61 0 151 -63q53 -39 96 -39q45 0 79 39l34 42l72 -55l-35 -44q-76 -93 -158 -97h-6q-60 0 -149 64q-64 46 -85 49
h-7q-48 0 -99 -73z" />
    <glyph glyph-name="Adieresis" unicode="&#xc4;" horiz-adv-x="1124" 
d="M1036 682l-41 -686h-235l27 431h-353l-142 -431h-233l223 682l453 1288h349zM801 655l69 1113l-363 -1113h294zM621 2254h189l-37 -188h-189zM1031 2254h190l-37 -188h-190z" />
    <glyph glyph-name="Aring" unicode="&#xc5;" horiz-adv-x="1056" 
d="M800 649l69 1113l-363 -1113h294zM963 2242q-114 0 -136 -114q-23 -115 91 -115q115 0 138 115q22 114 -93 114zM1017 1960h66l-48 -1284l-41 -686h-235l27 431h-353l-142 -431h-233l223 683l453 1287h66q-48 91 -33 168q33 174 207 174q147 0 147 -123q0 -23 -5 -51
q-15 -77 -99 -168z" />
    <glyph glyph-name="AE" unicode="&#xc6;" horiz-adv-x="1456" 
d="M648 427h-214l-142 -431h-233l223 682l453 1288h910l-44 -227h-467l-125 -644h402l-45 -228h-402l-125 -644h467l-44 -227h-698zM692 655l162 832l16 280l-363 -1112h185z" />
    <glyph glyph-name="Ccedilla" unicode="&#xc7;" horiz-adv-x="990" 
d="M454 -31q-286 17 -286 276q0 54 13 120l242 1243q77 396 467 396q326 0 326 -276q0 -55 -13 -120l-47 -242h-231l47 242q32 168 -125 169h-2q-158 0 -191 -169l-242 -1243q-33 -169 126 -169t192 169l47 243h231l-47 -243q-74 -383 -444 -397l-25 -51q60 31 103 31
q10 0 18 -2q49 -8 62.5 -31.5t4.5 -68.5l-24 -127q-15 -73 -114 -81q-18 -2 -40 -2q-11 0 -22 1q-117 3 -102 81h75q-11 -56 53 -56t76 57l24 127q11 58 -48 61h-4q-48 0 -61 -21h-71z" />
    <glyph glyph-name="Egrave" unicode="&#xc8;" horiz-adv-x="968" 
d="M976 1095l-45 -228h-402l-125 -644h467l-44 -227h-698l383 1970h698l-44 -227h-467l-125 -644h402zM566 2264h186l178 -199h-141l-229 168z" />
    <glyph glyph-name="Eacute" unicode="&#xc9;" horiz-adv-x="968" 
d="M976 1095l-45 -228h-402l-125 -644h467l-44 -227h-698l383 1970h698l-44 -227h-467l-125 -644h402zM1176 2233l-295 -168h-141l256 199h186z" />
    <glyph glyph-name="Ecircumflex" unicode="&#xca;" horiz-adv-x="968" 
d="M954 1095l-45 -228h-402l-125 -644h467l-44 -227h-698l383 1970h698l-44 -227h-467l-125 -644h402zM486 2066l240 198h249l165 -198h-177l-131 102l-170 -102h-176z" />
    <glyph glyph-name="Edieresis" unicode="&#xcb;" horiz-adv-x="968" 
d="M976 1095l-45 -228h-402l-125 -644h467l-44 -227h-698l383 1970h698l-44 -227h-467l-125 -644h402zM573 2254h189l-37 -188h-189zM983 2254h190l-37 -188h-190z" />
    <glyph glyph-name="Igrave" unicode="&#xcc;" horiz-adv-x="564" 
d="M520 1966h231l-383 -1970h-231zM341 2264h186l178 -199h-141l-229 168z" />
    <glyph glyph-name="Iacute" unicode="&#xcd;" horiz-adv-x="564" 
d="M493 1966h231l-383 -1970h-231zM923 2233l-295 -168h-141l256 199h186z" />
    <glyph glyph-name="Icircumflex" unicode="&#xce;" horiz-adv-x="576" 
d="M482 1966h231l-383 -1970h-231zM244 2066l240 198h249l165 -198h-177l-131 102l-170 -102h-176z" />
    <glyph glyph-name="Idieresis" unicode="&#xcf;" horiz-adv-x="574" 
d="M523 1966h231l-383 -1970h-231zM350 2254h189l-37 -188h-189zM760 2254h190l-37 -188h-190z" />
    <glyph glyph-name="Eth" unicode="&#xd0;" horiz-adv-x="1087" 
d="M592 903l-132 -680h160q159 0 192 169l229 1177q33 170 -126 170h-160l-132 -679h102l-31 -157h-102zM392 1060l176 906l421 -1q297 0 297 -269q0 -57 -14 -127l-229 -1177q-77 -395 -437 -395q-7 0 -20 -1h-401l176 907h-128l31 157h128z" />
    <glyph glyph-name="Ntilde" unicode="&#xd1;" horiz-adv-x="1100" 
d="M512 1966h237l59 -1415l274 1411l210 3l-383 -1969h-237l-55 1380l-268 -1380h-220zM645 2043l-78 47l32 46q85 124 178 129h6q61 0 151 -63q53 -39 96 -39q45 0 79 39l34 42l72 -55l-35 -44q-76 -93 -158 -97h-6q-60 0 -149 64q-64 46 -85 49h-7q-48 0 -99 -73z" />
    <glyph glyph-name="Ograve" unicode="&#xd2;" 
d="M970 359q-77 -395 -467 -396q-326 0 -326 276q0 55 13 120l242 1244q77 395 467 395q326 0 326 -276q0 -54 -13 -119zM981 1603q32 167 -126 168h-2q-158 0 -190 -168l-242 -1244q-33 -168 126 -168t192 168zM598 2264h186l178 -199h-141l-229 168z" />
    <glyph glyph-name="Oacute" unicode="&#xd3;" 
d="M970 359q-77 -395 -467 -396q-326 0 -326 276q0 55 13 120l242 1244q77 395 467 395q326 0 326 -276q0 -54 -13 -119zM981 1603q32 167 -126 168h-2q-158 0 -190 -168l-242 -1244q-33 -168 126 -168t192 168zM1207 2233l-295 -168h-141l256 199h186z" />
    <glyph glyph-name="Ocircumflex" unicode="&#xd4;" 
d="M970 359q-77 -395 -467 -396q-326 0 -326 276q0 55 13 120l242 1244q77 395 467 395q326 0 326 -276q0 -54 -13 -119zM981 1603q32 167 -126 168h-2q-158 0 -190 -168l-242 -1244q-33 -168 126 -168t192 168zM539 2066l240 198h249l165 -198h-177l-131 102l-170 -102
h-176z" />
    <glyph glyph-name="Otilde" unicode="&#xd5;" 
d="M970 359q-77 -395 -467 -396q-326 0 -326 276q0 55 13 120l242 1244q77 395 467 395q326 0 326 -276q0 -54 -13 -119zM981 1603q32 167 -126 168h-2q-158 0 -190 -168l-242 -1244q-33 -168 126 -168t192 168zM635 2043l-78 47l32 46q85 124 178 129h6q61 0 151 -63
q53 -39 96 -39q45 0 79 39l34 42l72 -55l-35 -44q-76 -93 -158 -97h-6q-60 0 -149 64q-64 46 -85 49h-7q-48 0 -99 -73z" />
    <glyph glyph-name="Odieresis" unicode="&#xd6;" 
d="M970 359q-77 -395 -467 -396q-326 0 -326 276q0 55 13 120l242 1244q77 395 467 395q326 0 326 -276q0 -54 -13 -119zM981 1603q32 167 -126 168h-2q-158 0 -190 -168l-242 -1244q-33 -168 126 -168t192 168zM603 2254h189l-37 -188h-189zM1013 2254h190l-37 -188h-190z
" />
    <glyph glyph-name="multiply" unicode="&#xd7;" horiz-adv-x="985" 
d="M659 855l-251 -211l-102 128l252 210l-169 210l150 127l170 -211l250 211l101 -128l-250 -209l169 -210l-151 -127z" />
    <glyph glyph-name="Oslash" unicode="&#xd8;" horiz-adv-x="1020" 
d="M418 276q28 -84 129 -84q159 0 192 169l227 1169zM458 553l511 1172q-45 48 -113 48h-2q-158 0 -191 -169zM1142 1934q82 -78 82 -216q0 -53 -12 -114l-242 -1243q-77 -396 -467 -397q-104 0 -204 37l-96 -217h-80l116 265q-88 110 -49 312l242 1243q77 396 467 396
q87 0 178 -27l61 138h82z" />
    <glyph glyph-name="Ugrave" unicode="&#xd9;" 
d="M970 360q-77 -396 -467 -397q-326 0 -326 277q0 55 13 120l313 1607h231l-313 -1607q-33 -169 126 -169t192 169l313 1607h231zM598 2264h186l178 -199h-141l-229 168z" />
    <glyph glyph-name="Uacute" unicode="&#xda;" 
d="M970 360q-77 -396 -467 -397q-326 0 -326 277q0 55 13 120l313 1607h231l-313 -1607q-33 -169 126 -169t192 169l313 1607h231zM1207 2233l-295 -168h-141l256 199h186z" />
    <glyph glyph-name="Ucircumflex" unicode="&#xdb;" 
d="M970 360q-77 -396 -467 -397q-326 0 -326 277q0 55 13 120l313 1607h231l-313 -1607q-33 -169 126 -169t192 169l313 1607h231zM539 2066l240 198h249l165 -198h-177l-131 102l-170 -102h-176z" />
    <glyph glyph-name="Udieresis" unicode="&#xdc;" 
d="M970 360q-77 -396 -467 -397q-326 0 -326 277q0 55 13 120l313 1607h231l-313 -1607q-33 -169 126 -169t192 169l313 1607h231zM603 2254h189l-37 -188h-189zM1013 2254h190l-37 -188h-190z" />
    <glyph glyph-name="Yacute" unicode="&#xdd;" horiz-adv-x="1139" 
d="M686 1966l51 -889l398 889h245l-576 -1141l-161 -829h-231l161 829l-131 1141h244zM1225 2233l-295 -168h-141l256 199h186z" />
    <glyph glyph-name="Thorn" unicode="&#xde;" horiz-adv-x="984" 
d="M678 1633h126q6 0 18 -1h21q295 0 295 -268q0 -57 -14 -127l-60 -306q-56 -292 -331 -376q-68 -21 -191 -21h-78l-169 -871h-231l449 2309h231zM634 1406l-126 -645h97q68 0 100 11q106 41 128 159l60 306q33 169 -125 169h-134z" />
    <glyph glyph-name="germandbls" unicode="&#xdf;" horiz-adv-x="1020" 
d="M1156 1268q-35 -182 -254 -283q180 -101 144 -283l-102 -526q-77 -395 -434 -395l44 226q126 0 159 169l102 526q23 118 -68 158q-27 12 -95 12h-122l-169 -872h-231l306 1574q77 396 467 396q326 0 326 -276q0 -55 -13 -120zM575 1099h122q68 0 99 11q106 38 129 158
l60 306q33 168 -125 169h-2q-158 0 -191 -169z" />
    <glyph glyph-name="agrave" unicode="&#xe0;" horiz-adv-x="1123" 
d="M1020 599l-25 -603h-235l17 379h-353l-132 -379h-233l207 601l423 1133h349zM786 576l43 980l-337 -980h294zM614 2031h186l178 -199h-141l-229 168z" />
    <glyph glyph-name="aacute" unicode="&#xe1;" horiz-adv-x="1123" 
d="M1020 599l-25 -603h-235l17 379h-353l-132 -379h-233l207 601l423 1133h349zM786 576l43 980l-337 -980h294zM1223 2000l-295 -168h-141l256 199h186z" />
    <glyph glyph-name="acircumflex" unicode="&#xe2;" horiz-adv-x="1123" 
d="M1020 599l-25 -603h-235l17 379h-353l-132 -379h-233l207 601l423 1133h349zM786 576l43 980l-337 -980h294zM556 1833l240 198h249l165 -198h-177l-131 102l-170 -102h-176z" />
    <glyph glyph-name="atilde" unicode="&#xe3;" horiz-adv-x="1123" 
d="M1020 599l-25 -603h-235l17 379h-353l-132 -379h-233l207 601l423 1133h349zM786 576l43 980l-337 -980h294zM651 1810l-78 47l32 46q85 124 178 129h6q61 0 151 -63q53 -39 96 -39q45 0 79 39l34 42l72 -55l-35 -44q-76 -93 -158 -97h-6q-60 0 -149 64q-64 46 -85 49h-7
q-48 0 -99 -73z" />
    <glyph glyph-name="adieresis" unicode="&#xe4;" horiz-adv-x="1123" 
d="M1020 599l-25 -603h-235l17 379h-353l-132 -379h-233l207 601l423 1133h349zM786 576l43 980l-337 -980h294zM620 2021h189l-37 -188h-189zM1030 2021h190l-37 -188h-190z" />
    <glyph glyph-name="aring" unicode="&#xe5;" horiz-adv-x="1053" 
d="M785 568l43 984l-339 -984h296zM916 2005q-114 0 -136 -114q-23 -115 91 -115q115 0 138 115q22 114 -93 114zM970 1723h67l-17 -1129l-28 -600h-233l17 381h-353l-132 -381h-232l206 597l422 1132h66q-48 91 -33 168q34 174 208 174q147 0 147 -122q0 -24 -6 -52
q-15 -77 -99 -168z" />
    <glyph glyph-name="ae" unicode="&#xe6;" horiz-adv-x="1545" 
d="M639 381h-215l-132 -381h-232l206 597l422 1132h911l-37 -193h-467l-112 -575h402l-38 -192h-402l-111 -576h467l-38 -193h-698zM677 574l141 728l11 257l-339 -985h187z" />
    <glyph glyph-name="ccedilla" unicode="&#xe7;" horiz-adv-x="990" 
d="M450 -21l-29 -58q60 31 104 31q8 0 16 -2q49 -7 63 -31t5 -69l-25 -127q-14 -73 -112 -81q-19 -2 -40 -2q-12 0 -24 1q-115 3 -100 81h74q-11 -56 54 -56q63 0 74 57l25 127q11 58 -48 62h-3q-48 0 -61 -22h-72l37 96q-225 36 -225 243q0 43 10 94l213 1095
q67 346 457 346q333 0 333 -252q0 -43 -10 -94l-41 -209h-231l41 209q29 152 -128 153q-160 0 -190 -153l-213 -1095q-30 -152 129 -152t189 152l41 210h231l-41 -210q-67 -345 -457 -345q-24 0 -46 1z" />
    <glyph glyph-name="egrave" unicode="&#xe8;" horiz-adv-x="948" 
d="M466 1730h698l-39 -200h-467l-110 -567h402l-39 -201h-402l-110 -567h467l-39 -199h-698zM566 2031h186l178 -199h-141l-229 168z" />
    <glyph glyph-name="eacute" unicode="&#xe9;" horiz-adv-x="948" 
d="M466 1730h698l-39 -200h-467l-110 -567h402l-39 -201h-402l-110 -567h467l-39 -199h-698zM1176 2000l-295 -168h-141l256 199h186z" />
    <glyph glyph-name="ecircumflex" unicode="&#xea;" horiz-adv-x="948" 
d="M444 1730h698l-39 -200h-467l-110 -567h402l-39 -201h-402l-110 -567h467l-39 -199h-698zM486 1833l240 198h249l165 -198h-177l-131 102l-170 -102h-176z" />
    <glyph glyph-name="edieresis" unicode="&#xeb;" horiz-adv-x="948" 
d="M466 1730h698l-39 -200h-467l-110 -567h402l-39 -201h-402l-110 -567h467l-39 -199h-698zM573 2021h189l-37 -188h-189zM983 2021h190l-37 -188h-190z" />
    <glyph glyph-name="igrave" unicode="&#xec;" horiz-adv-x="525" 
d="M474 1729h231l-336 -1729h-231zM341 2031h186l178 -199h-141l-229 168z" />
    <glyph glyph-name="iacute" unicode="&#xed;" horiz-adv-x="525" 
d="M447 1729h231l-336 -1729h-231zM923 2000l-295 -168h-141l256 199h186z" />
    <glyph glyph-name="icircumflex" unicode="&#xee;" horiz-adv-x="537" 
d="M436 1729h231l-336 -1729h-231zM244 1833l240 198h249l165 -198h-177l-131 102l-170 -102h-176z" />
    <glyph glyph-name="idieresis" unicode="&#xef;" horiz-adv-x="535" 
d="M477 1729h231l-336 -1729h-231zM350 2021h189l-37 -188h-189zM760 2021h190l-37 -188h-190z" />
    <glyph glyph-name="eth" unicode="&#xf0;" horiz-adv-x="1020" 
d="M589 1385l-80 122l252 183q-90 63 -176 99l87 173q166 -52 274 -140l194 141l80 -122l-179 -129q142 -254 64 -657l-129 -662q-77 -397 -466 -397q-327 0 -327 277q0 55 13 120l74 378q73 375 406 375q98 0 197 -94q64 330 -21 524zM427 393q-33 -169 127 -169
q158 0 191 169l74 378q31 163 -99 169q-16 1 -31 1q-61 0 -94 -13q-69 -28 -94 -157z" />
    <glyph glyph-name="ntilde" unicode="&#xf1;" horiz-adv-x="1100" 
d="M466 1730h237l92 -1246l241 1242l210 3l-337 -1733h-237l-87 1214l-236 -1214h-220zM645 1810l-78 47l32 46q85 124 178 129h6q61 0 151 -63q53 -39 96 -39q45 0 79 39l34 42l72 -55l-35 -44q-76 -93 -158 -97h-6q-60 0 -149 64q-64 46 -85 49h-7q-48 0 -99 -73z" />
    <glyph glyph-name="ograve" unicode="&#xf2;" 
d="M961 312q-68 -348 -458 -349q-332 0 -332 253q0 44 10 96l212 1094q68 348 458 348q332 0 332 -252q0 -44 -10 -96zM942 1406q29 148 -129 148h-2q-158 0 -187 -148l-212 -1094q-29 -149 130 -149t188 149zM598 2031h186l178 -199h-141l-229 168z" />
    <glyph glyph-name="oacute" unicode="&#xf3;" 
d="M961 312q-68 -348 -458 -349q-332 0 -332 253q0 44 10 96l212 1094q68 348 458 348q332 0 332 -252q0 -44 -10 -96zM942 1406q29 148 -129 148h-2q-158 0 -187 -148l-212 -1094q-29 -149 130 -149t188 149zM1207 2000l-295 -168h-141l256 199h186z" />
    <glyph glyph-name="ocircumflex" unicode="&#xf4;" 
d="M961 312q-68 -348 -458 -349q-332 0 -332 253q0 44 10 96l212 1094q68 348 458 348q332 0 332 -252q0 -44 -10 -96zM942 1406q29 148 -129 148h-2q-158 0 -187 -148l-212 -1094q-29 -149 130 -149t188 149zM539 1833l240 198h249l165 -198h-177l-131 102l-170 -102h-176z
" />
    <glyph glyph-name="otilde" unicode="&#xf5;" 
d="M961 312q-68 -348 -458 -349q-332 0 -332 253q0 44 10 96l212 1094q68 348 458 348q332 0 332 -252q0 -44 -10 -96zM942 1406q29 148 -129 148h-2q-158 0 -187 -148l-212 -1094q-29 -149 130 -149t188 149zM635 1810l-78 47l32 46q85 124 178 129h6q61 0 151 -63
q53 -39 96 -39q45 0 79 39l34 42l72 -55l-35 -44q-76 -93 -158 -97h-6q-60 0 -149 64q-64 46 -85 49h-7q-48 0 -99 -73z" />
    <glyph glyph-name="odieresis" unicode="&#xf6;" 
d="M961 312q-68 -348 -458 -349q-332 0 -332 253q0 44 10 96l212 1094q68 348 458 348q332 0 332 -252q0 -44 -10 -96zM942 1406q29 148 -129 148h-2q-158 0 -187 -148l-212 -1094q-29 -149 130 -149t188 149zM603 2021h189l-37 -188h-189zM1013 2021h190l-37 -188h-190z
" />
    <glyph glyph-name="divide" unicode="&#xf7;" horiz-adv-x="1072" 
d="M1101 1073l-35 -180h-772l35 180h772zM627 1641h274l-54 -274h-274zM424 601h274l-53 -275h-274z" />
    <glyph glyph-name="oslash" unicode="&#xf8;" horiz-adv-x="1009" 
d="M421 218q45 -51 121 -51q159 0 188 152l165 849zM428 397l519 1039q8 130 -132 131q-160 0 -190 -153zM1142 1660q61 -96 32 -246l-213 -1095q-67 -345 -457 -345q-96 0 -191 28l-170 -338l-79 5l185 369q-103 97 -68 281l213 1095q67 346 457 346q126 0 234 -48l125 249
l78 -6z" />
    <glyph glyph-name="ugrave" unicode="&#xf9;" 
d="M961 312q-68 -348 -458 -349q-332 0 -332 253q0 44 10 96l275 1414h231l-275 -1414q-29 -148 130 -148t188 148l275 1414h231zM598 2031h186l178 -199h-141l-229 168z" />
    <glyph glyph-name="uacute" unicode="&#xfa;" 
d="M961 312q-68 -348 -458 -349q-332 0 -332 253q0 44 10 96l275 1414h231l-275 -1414q-29 -148 130 -148t188 148l275 1414h231zM1207 2000l-295 -168h-141l256 199h186z" />
    <glyph glyph-name="ucircumflex" unicode="&#xfb;" 
d="M961 312q-68 -348 -458 -349q-332 0 -332 253q0 44 10 96l275 1414h231l-275 -1414q-29 -148 130 -148t188 148l275 1414h231zM539 1833l240 198h249l165 -198h-177l-131 102l-170 -102h-176z" />
    <glyph glyph-name="udieresis" unicode="&#xfc;" 
d="M961 312q-68 -348 -458 -349q-332 0 -332 253q0 44 10 96l275 1414h231l-275 -1414q-29 -148 130 -148t188 148l275 1414h231zM603 2021h189l-37 -188h-189zM1013 2021h190l-37 -188h-190z" />
    <glyph glyph-name="yacute" unicode="&#xfd;" horiz-adv-x="1138" 
d="M640 1730l72 -782l377 782h245l-549 -1005l-142 -729h-231l142 729l-158 1005h244zM1223 2000l-295 -168h-141l256 199h186z" />
    <glyph glyph-name="thorn" unicode="&#xfe;" horiz-adv-x="976" 
d="M678 1633h126q6 0 18 -1h21q295 0 295 -268q0 -57 -14 -127l-60 -306q-56 -292 -331 -376q-68 -21 -191 -21h-78l-169 -871h-231l449 2309h231zM634 1406l-126 -645h97q68 0 100 11q106 41 128 159l60 306q33 169 -125 169h-134z" />
    <glyph glyph-name="ydieresis" unicode="&#xff;" horiz-adv-x="1138" 
d="M640 1730l72 -782l377 782h245l-549 -1005l-142 -729h-231l142 729l-158 1005h244zM621 2021h189l-37 -188h-189zM1031 2021h190l-37 -188h-190z" />
    <glyph glyph-name="dotlessi" unicode="&#x131;" horiz-adv-x="462" 
d="M471 1729h231l-336 -1729h-231z" />
    <glyph glyph-name="circumflex" unicode="&#x2c6;" horiz-adv-x="985" 
d="M522 1833l240 198h249l165 -198h-177l-131 102l-170 -102h-176z" />
    <glyph glyph-name="caron" unicode="&#x2c7;" horiz-adv-x="985" 
d="M737 2031l130 -102l171 102h177l-241 -198h-249l-164 198h176z" />
    <glyph glyph-name="uni02C9" unicode="&#x2c9;" horiz-adv-x="860" 
d="M520 2009h600l-34 -177h-600z" />
    <glyph glyph-name="breve" unicode="&#x2d8;" horiz-adv-x="958" 
d="M1222 2029q-140 -206 -396 -206h-8q-257 5 -294 206h153q10 -112 176 -112h1q167 0 220 112h148z" />
    <glyph glyph-name="dotaccent" unicode="&#x2d9;" horiz-adv-x="450" 
d="M524 2026h190l-37 -188h-190z" />
    <glyph glyph-name="ring" unicode="&#x2da;" horiz-adv-x="609" 
d="M700 2035q147 0 147 -122q0 -24 -6 -52q-34 -175 -209 -175q-146 0 -146 122q0 24 6 53q34 174 208 174zM688 1975q-114 0 -136 -114q-22 -115 92 -115q115 0 137 115q22 114 -93 114z" />
    <glyph glyph-name="tilde" unicode="&#x2dc;" horiz-adv-x="889" 
d="M569 1810l-78 47l32 46q85 124 178 129h6q61 0 151 -63q53 -39 96 -39q45 0 79 39l34 42l72 -55l-35 -44q-76 -93 -158 -97h-6q-60 0 -149 64q-64 46 -85 49h-7q-48 0 -99 -73z" />
    <glyph glyph-name="endash" unicode="&#x2013;" horiz-adv-x="1148" 
d="M219 868l35 179h1036l-35 -179h-1036z" />
    <glyph glyph-name="emdash" unicode="&#x2014;" horiz-adv-x="2057" 
d="M219 868l35 179h1972l-35 -179h-1972z" />
    <glyph glyph-name="quoteleft" unicode="&#x2018;" horiz-adv-x="507" 
d="M689 1330h-300l51 263l171 351h130l-126 -339h127z" />
    <glyph glyph-name="quoteright" unicode="&#x2019;" horiz-adv-x="560" 
d="M507 1944h300l-51 -263l-170 -351h-131l126 339h-127z" />
    <glyph glyph-name="quotesinglbase" unicode="&#x201a;" horiz-adv-x="507" 
d="M179 306h301l-50 -262l-172 -352h-130l126 339h-128z" />
    <glyph glyph-name="quotedblleft" unicode="&#x201c;" horiz-adv-x="1057" 
d="M689 1330h-300l51 263l171 351h130l-126 -339h127zM1179 1330h-300l51 263l171 351h130l-126 -339h127z" />
    <glyph glyph-name="quotedblright" unicode="&#x201d;" horiz-adv-x="1110" 
d="M507 1944h300l-51 -263l-170 -351h-131l126 339h-127zM997 1944h300l-51 -263l-170 -351h-131l126 339h-127z" />
    <glyph glyph-name="quotedblbase" unicode="&#x201e;" horiz-adv-x="1110" 
d="M507 307h300l-51 -263l-170 -351h-131l126 339h-127zM997 307h300l-51 -263l-170 -351h-131l126 339h-127z" />
    <glyph glyph-name="dagger" unicode="&#x2020;" horiz-adv-x="1435" 
d="M1045 1432l466 61q11 2 22 2q46 0 46 -63q0 -22 -6 -52q-23 -117 -94 -117q-10 0 -18 2l-431 63q-16 -254 -76 -562l-32 -166q-61 -311 -74 -519q-1 -12 -3 -22q-12 -62 -125 -63q-119 0 -105 72q2 9 6 18q67 198 123 487q11 53 20 109q8 43 16 87q59 300 147 555
l-467 -61q-11 -2 -22 -2q-46 0 -46 64q0 22 5 51q23 117 93 117q11 0 20 -2l431 -65l28 455q-1 13 1 22q12 62 127 62q117 0 103 -70q-2 -11 -6 -20z" />
    <glyph glyph-name="daggerdbl" unicode="&#x2021;" horiz-adv-x="1435" 
d="M1195 1875q-90 -266 -106 -349q-8 -43 4 -57q10 -13 49 -13q81 0 369 37q11 2 22 2q46 0 46 -64q0 -22 -5 -51q-23 -117 -94 -117q-10 0 -19 2l-431 63l-10 -175q30 -29 24 -59q-1 -6 -4 -14q-14 -44 -24 -94q-10 -54 -15 -113q1 -8 -1 -14q-5 -29 -53 -56l-58 -165
l467 60q11 2 22 2q62 0 41 -114q-23 -118 -96 -118q-8 0 -16 2l-432 65l-28 -454q0 -12 -2 -22q-12 -62 -126 -63q-118 0 -104 72q1 9 5 18l151 443l-466 -60q-14 -3 -23 -3q-45 0 -45 62q0 23 6 53q23 117 93 117q10 0 19 -2l431 -63l10 175q-31 29 -25 60q1 6 4 14
q15 44 25 93q10 54 14 113q-1 8 1 14q5 29 55 56l57 166l-467 -61q-11 -2 -22 -2q-62 0 -40 115q23 117 93 117q10 0 18 -2l432 -65l27 454q0 13 2 22q12 63 126 63q118 0 104 -72q-1 -9 -5 -18z" />
    <glyph glyph-name="bullet" unicode="&#x2022;" horiz-adv-x="951" 
d="M959 1227q60 -74 60 -173q0 -34 -7 -71q-28 -143 -148 -245q-121 -100 -265 -100q-143 0 -226 100q-59 76 -59 174q0 34 7 71q28 144 147 244q122 102 265 102q144 0 226 -102z" />
    <glyph glyph-name="ellipsis" unicode="&#x2026;" horiz-adv-x="2058" 
d="M173 276h275l-53 -275h-275zM856 276h275l-53 -275h-275zM1539 276h275l-53 -275h-275z" />
    <glyph glyph-name="guilsinglleft" unicode="&#x2039;" horiz-adv-x="759" 
d="M862 1200l-290 -211l210 -205l-48 -246l-409 464l587 455z" />
    <glyph glyph-name="guilsinglright" unicode="&#x203a;" horiz-adv-x="759" 
d="M414 1457l410 -455l-589 -464l48 246l290 205l-209 211z" />
    <glyph glyph-name="fraction" unicode="&#x2044;" horiz-adv-x="285" 
d="M940 1967l-1108 -1971h-116l1109 1971h115z" />
    <glyph glyph-name="fraction" unicode="&#x2215;" horiz-adv-x="285" 
d="M940 1967l-1108 -1971h-116l1109 1971h115z" />
    <glyph glyph-name="franc" unicode="&#x20a3;" horiz-adv-x="932" 
d="M280 551l275 1415h699l-44 -227h-468l-125 -644h402l-44 -228h-402l-62 -316h193l-30 -156h-193l-78 -399h-231l78 399h-123l30 156h123z" />
    <glyph glyph-name="lira" unicode="&#x20a4;" horiz-adv-x="1099" 
d="M495 1212l75 390q78 397 468 397q325 0 325 -276q0 -55 -13 -121l-46 -241h-231l46 241q33 169 -126 169h-2q-157 0 -190 -169l-75 -390h344l-20 -102h-344l-44 -226h344l-20 -102h-344l-48 -246q-34 -174 -151 -314h558l-44 -227h-898l44 227h40q159 0 192 170l76 390
h-199l20 102h199l44 226h-199l20 102h199z" />
    <glyph glyph-name="peseta" unicode="&#x20a7;" horiz-adv-x="2188" 
d="M670 1740l-125 -645h91q61 0 90 11q98 41 120 158l60 306q33 170 -112 170h-124zM1101 1533l-53 -269q-56 -293 -305 -377q-59 -19 -169 -19h-74l-169 -872h-202l383 1971l353 -1q240 0 259 -241h743l-12 -63q161 92 327 92q333 0 333 -251q0 -44 -10 -95l-40 -209h-231
l40 209q30 153 -128 154q-160 0 -190 -154l-31 -161q-27 -138 227 -319q228 -164 185 -388l-44 -227q-67 -345 -456 -345q-391 0 -324 345l41 211h231l-41 -211q-30 -152 130 -152q158 0 188 152l39 204q29 149 -225 330q-228 165 -183 393l32 168q10 48 37 125h-207
l-299 -1537h-231l299 1537h-223z" />
    <glyph glyph-name="Euro" unicode="&#x20ac;" horiz-adv-x="1066" 
d="M408 1196l80 407q77 396 467 396q326 0 326 -276q0 -55 -13 -120l-47 -242h-231l47 242q32 168 -126 168h-2q-158 0 -190 -168l-80 -407h396l-19 -101h-396l-44 -228h396l-20 -102h-396l-79 -406q-33 -168 126 -168t192 168l47 243h231l-47 -243q-77 -395 -467 -395
q-326 0 -326 276q0 54 13 119l79 406h-146l20 102h146l44 228h-146l19 101h146z" />
    <glyph glyph-name="afii61352" unicode="&#x2116;" horiz-adv-x="1872" 
d="M512 1966h237l59 -1415l274 1411l210 3l-383 -1969h-237l-55 1380l-268 -1380h-220zM1907 1106q-38 -195 -285 -195t-209 195l127 656q38 195 285 195q214 0 214 -146q0 -23 -5 -49zM1903 1762q20 104 -94 105q-116 0 -137 -105l-127 -656q-21 -105 94 -105
q116 0 137 105zM1307 511l23 119h473l-23 -119h-473z" />
    <glyph glyph-name="trademark" unicode="&#x2122;" horiz-adv-x="1081" 
d="M710 1712l-11 -54h-123l-135 -697h-71l135 697h-123l11 54h317zM958 1071l302 642h78l-146 -751h-64l132 680l-300 -680h-43l-40 672l-131 -672h-65l146 751h77z" />
    <glyph glyph-name="partialdiff" unicode="&#x2202;" horiz-adv-x="1020" 
d="M873 1052q111 570 -289 737l88 173q461 -144 461 -641q0 -122 -28 -266l-129 -662q-77 -397 -467 -397q-326 0 -326 277q0 55 13 120l74 378q73 375 405 375q99 0 198 -94zM427 393q-33 -169 127 -169q158 0 191 169l74 378q31 163 -101 169q-15 1 -30 1q-60 0 -93 -13
q-69 -28 -94 -157z" />
    <glyph glyph-name="minus" unicode="&#x2212;" horiz-adv-x="1012" 
d="M1101 1073l-35 -180h-772l35 180h772z" />
    <glyph glyph-name="approxequal" unicode="&#x2248;" horiz-adv-x="1129" 
d="M391 928l-107 78l51 61q122 145 242 145h10q80 -5 194 -104q66 -59 122 -59q48 0 84 36l55 57l96 -90l-55 -56q-105 -107 -209 -107h-11q-80 5 -191 103q-75 66 -98 70q-8 2 -17 2q-52 0 -115 -76zM391 557l-107 78l51 61q122 145 242 145h10q80 -5 194 -104
q66 -59 122 -59q48 0 84 36l55 57l96 -90l-55 -56q-105 -107 -209 -107h-11q-80 5 -191 103q-75 66 -98 70q-8 2 -17 2q-52 0 -115 -76z" />
    <glyph glyph-name="lessequal" unicode="&#x2264;" horiz-adv-x="1074" 
d="M335 1065l859 434l-42 -213l-710 -350l576 -341l-41 -213l-693 419zM1101 207l-35 -180h-772l35 180h772z" />
    <glyph glyph-name="greaterequal" unicode="&#x2265;" horiz-adv-x="1074" 
d="M1057 801l-855 -419l41 213l709 341l-574 350l41 213l690 -434zM1100 207l-35 -180h-772l35 180h772z" />
    <glyph glyph-name="uniF001" unicode="&#xf001;" horiz-adv-x="1488" 
d="M466 1730h698l-39 -200h-467l-110 -567h402l-39 -201h-402l-149 -766h-231zM1403 1730h231l-337 -1734h-231z" />
    <glyph glyph-name="uniF001" unicode="&#xfb01;" horiz-adv-x="1488" 
d="M466 1730h698l-39 -200h-467l-110 -567h402l-39 -201h-402l-149 -766h-231zM1403 1730h231l-337 -1734h-231z" />
    <glyph glyph-name="uniF002" unicode="&#xf002;" horiz-adv-x="1872" 
d="M466 1730h698l-39 -200h-467l-110 -567h402l-39 -201h-402l-149 -766h-231zM1053 -4l337 1734h231l-298 -1535h467l-39 -199h-698z" />
    <glyph glyph-name="uniF002" unicode="&#xfb02;" horiz-adv-x="1872" 
d="M466 1730h698l-39 -200h-467l-110 -567h402l-39 -201h-402l-149 -766h-231zM1053 -4l337 1734h231l-298 -1535h467l-39 -199h-698z" />
    </font>
</defs>
</svg>
